<?xml version="1.0" encoding="UTF-8"?>
<svg id="Layer_1" xmlns="http://www.w3.org/2000/svg" version="1.1" viewBox="0 0 1024 1024">
  <!-- Generator: Adobe Illustrator 30.3.0, SVG Export Plug-In . SVG Version: 2.1.3 Build 182)  -->
  <defs>
    <style>
      .st0 {
        fill: #f1bfc9;
        opacity: .8;
      }

      .st1 {
        fill: none;
        stroke: #3c2238;
        stroke-linecap: round;
        stroke-linejoin: round;
        stroke-width: 1.1px;
      }

      .st2 {
        fill: #ab4347;
      }
    </style>
  </defs>
  <g>
    <path class="st2" d="M558.3,631.4C310.1,806.3,60.7,883.5,31,842.3c-29.6-41.2,230.7-224.1,230.7-224.1l-52.7-159.8s24.7-89,187.8-187.9c163.1-98.8,260.3-103.8,260.3-103.8h0c0,0,80.7,112,80.7,112,0,0,230.7-121.9,253.8-84,30.3,49.8-115.4,212.6-433.4,436.7Z" fill="#ab4347"/>
    <path class="st0" d="M657.1,166.7h0c-31.4,46.1-98.8,130.4-206.3,195.3-155.8,93.9-241.8,96.4-241.8,96.4,0,0,24.7-89,187.8-187.9,163.1-98.8,260.3-103.8,260.3-103.8Z" opacity=".8" fill="#f1bfc9"/>
    <path class="st1" d="M261.7,618.2s135.1-20.6,288.4-131.8c153.2-111.2,192.4-209.7,192.4-209.7" stroke-width="1.1px" stroke="#3c2238" stroke-linejoin="round" stroke-linecap="round" fill="none"/>
  </g>
  <path class="st1" d="M944.1,403.8c-22.2-32.2-65.7-41.7-104.7-41-26.3.4-52.6,4.3-77.9,11.4-30,8.4-63.4,21.1-90.6,5.8,36.3,5.2,66.4-30,96.6-50.7,58.2-39.8,134.3-52.1,202-32.6" stroke-width="1.1px" stroke="#3c2238" stroke-linejoin="round" stroke-linecap="round" fill="none"/>
</svg>