<?xml version="1.0" encoding="UTF-8"?>
<svg id="Layer_1" xmlns="http://www.w3.org/2000/svg" version="1.1" viewBox="0 0 1024 1024">
  <!-- Generator: Adobe Illustrator 30.3.0, SVG Export Plug-In . SVG Version: 2.1.3 Build 182)  -->
  <defs>
    <style>
      .st0 {
        fill: #282322;
      }

      .st1 {
        fill: #e3e3e2;
      }
    </style>
  </defs>
  <path class="st1" d="M762.1,360.2c-33.4-26.6-59.2-2-130.4-20.3-69-17.7-71.6-47.7-117.5-46.3-46.5,1.4-47.8,32.3-116.4,52.7-63.8,19-87.5-.3-115.7,25-24.1,21.6-5.8,34.7-33.9,95.1-24.2,52-51.5,72.1-63.4,132,0,0-1.8,9-3.1,19.8-14.5,121.8,63.6,260.8,40.7,274.7-4.6,2.8-8.3-2.7-37.5-4.1-18.4-.9-23.4,1-27.8.1-48.6-10.1-22.1-275-22.1-275,13.6-135.6,20.4-203.5,36.6-237.3,54.3-113.7,188.7-228.1,356.3-224.7,179.4,3.6,287.7,141.1,314.1,177.8,55,76.6,66.4,147.5,86.2,274.5,25.9,165.9-.5,268.2-22.3,272.8-2,.4-10.2,1.3-18.5,1.8-20.1,1.2-30.2,1.7-34.7-.7-27-14.5,15.7-170.5,25.9-207.9,4.1-15,14-51.1.9-91.3-2-6.1-4.2-11.1-8.7-20.2-24.7-49.9-46-76.2-64.4-107-37.6-62.8-20.3-72.4-44.4-91.6Z" fill="#e3e3e2"/>
  <path class="st0" d="M212.8,324.2c-5.2-.1-10.3-3-12.8-8-3.8-7.3-.9-16.2,6.4-20,93.6-48.4,198.2-75.7,302.6-79.2,109-3.6,219.3,18.7,319.1,64.6,7.5,3.4,10.7,12.2,7.3,19.7-3.4,7.5-12.3,10.7-19.7,7.3-95.6-43.9-201.3-65.3-305.7-61.9-100,3.3-200.3,29.6-289.9,75.9-2.3,1.2-4.8,1.7-7.2,1.7Z" fill="#282322"/>
</svg>