<?xml version="1.0" encoding="UTF-8"?>
<svg id="Layer_1" xmlns="http://www.w3.org/2000/svg" version="1.1" viewBox="0 0 1024 1024">
  <!-- Generator: Adobe Illustrator 30.3.0, SVG Export Plug-In . SVG Version: 2.1.3 Build 182)  -->
  <defs>
    <style>
      .st0 {
        stroke: #fff;
        stroke-width: 2px;
      }

      .st0, .st1 {
        fill: none;
        stroke-linecap: round;
        stroke-linejoin: round;
      }

      .st1 {
        stroke: #0f0808;
        stroke-width: .8px;
      }

      .st2 {
        fill: #a24941;
      }
    </style>
  </defs>
  <path class="st2" d="M966.8,240.4C684.8,485.8,402.8,731.2,120.8,976.6c-20.4-11.2-40.8-22.5-61.2-33.7L944,157.9c7.6,27.5,15.2,55,22.8,82.5Z" fill="#a24941"/>
  <rect class="st0" x="444.4" y="516.5" width="166.3" height="118.1" transform="translate(-249 495.3) rotate(-41.6)" fill="none" stroke="#fff" stroke-width="2px" stroke-linecap="round" stroke-linejoin="round"/>
  <path class="st1" d="M631.8,440.1c12.2.4,24.1,5.8,32.5,14.5,8.5,8.7,13.4,20.8,13.5,33" fill="none" stroke="#0f0808" stroke-width=".8px" stroke-linecap="round" stroke-linejoin="round"/>
  <path class="st1" d="M525.1,576c27.6-23.3,55.2-46.5,82.9-69.8" fill="none" stroke="#0f0808" stroke-width=".8px" stroke-linecap="round" stroke-linejoin="round"/>
  <path class="st1" d="M416.3,674.3c3.8-3.4,7.6-6.8,11.5-10.2" fill="none" stroke="#0f0808" stroke-width=".8px" stroke-linecap="round" stroke-linejoin="round"/>
  <path class="st1" d="M341.8,740.4c3-2.7,6-5.3,9-8" fill="none" stroke="#0f0808" stroke-width=".8px" stroke-linecap="round" stroke-linejoin="round"/>
</svg>
