<?xml version="1.0" encoding="UTF-8"?>
<svg id="Layer_1" xmlns="http://www.w3.org/2000/svg" version="1.1" xmlns:xlink="http://www.w3.org/1999/xlink" viewBox="0 0 1024 1024">
  <!-- Generator: Adobe Illustrator 30.3.0, SVG Export Plug-In . SVG Version: 2.1.3 Build 182)  -->
  <defs>
    <style>
      .st0 {
        filter: url(#drop-shadow-2);
      }

      .st1 {
        fill: #db6b11;
      }

      .st2 {
        fill: #9a1c75;
      }

      .st3 {
        fill: #ef7d07;
      }
    </style>
    <filter id="drop-shadow-2" x="84.9" y="330.1" width="882.5" height="457.3" filterUnits="userSpaceOnUse">
      <feOffset dx="4" dy="4"/>
      <feGaussianBlur result="blur" stdDeviation="0"/>
      <feFlood flood-color="#010101" flood-opacity="0"/>
      <feComposite in2="blur" operator="in"/>
      <feComposite in="SourceGraphic"/>
    </filter>
  </defs>
  <g class="st0" filter="url(#drop-shadow-2)">
    <path class="st1" d="M557.6,713.6c-119.4-26.4-217-50.5-287.1-124-70-73.5-125.2-151.6-176.8-94.2-51.7,57.4,135.5,264.1,282.5,273.3,217.8,13.7,280.2-56.3,280.2-56.3l-98.8,1.1Z" fill="#db6b11"/>
    <path class="st3" d="M541.5,378.3c-58.5-2.9-68.9-58.6-121.7-34.5-52.8,24.1-119,329.6-118.6,345.7.3,16.1,116.8,82.8,273.3,63.8,156.5-19,190.9-64.9,190.9-64.9,0,0-39-359.4-109.1-358.3-70,1.1-67.8,50.5-114.8,48.2Z" fill="#ef7d07"/>
    <path class="st1" d="M524.3,494.3c65.4-13.2,119.9-103.6,131.8-164.2-69.8,1.3-67.6,50.5-114.6,48.2-58.5-2.9-68.9-58.6-121.7-34.5-1.7.8-3.3,1.8-5,3.1-3.1,56,28.3,163.7,109.5,147.4Z" fill="#db6b11"/>
    <path class="st2" d="M320.2,597.6c-11.8,48.8-19.1,86.6-19,91.9.3,16.1,116.8,82.8,273.3,63.8,156.5-19,190.9-64.9,190.9-64.9,0,0-3-27.6-8.8-67.6-215.7,100.2-373.2,19.8-436.4-23.2Z" fill="#9a1c75"/>
    <path class="st3" d="M376.2,768.8c150.4,19.5,235.4,19.6,359.4,0,124-19.6,167.7-120.6,195.2-174.6,27.6-54,68.9-171.1-29.9-141.3-98.8,29.9-133.2,133.2-268.7,225.1-82.1,55.6-199.8,78.2-256.1,90.8Z" fill="#ef7d07"/>
  </g>
</svg>