<?xml version="1.0" encoding="UTF-8"?>
<svg id="Layer_1" xmlns="http://www.w3.org/2000/svg" version="1.1" xmlns:xlink="http://www.w3.org/1999/xlink" viewBox="0 0 1024 1024">
  <!-- Generator: Adobe Illustrator 30.3.0, SVG Export Plug-In . SVG Version: 2.1.3 Build 182)  -->
  <defs>
    <style>
      .st0 {
        fill: #c91618;
      }

      .st1 {
        fill: #f3b814;
      }

      .st2 {
        fill: #ef7d07;
      }

      .st3 {
        fill: #010101;
        opacity: .2;
      }

      .st4 {
        filter: url(#drop-shadow-3);
      }

      .st5 {
        fill: #2b818d;
      }
    </style>
    <filter id="drop-shadow-3" x="76.1" y="239.9" width="796.3" height="548.2" filterUnits="userSpaceOnUse">
      <feOffset dx="4" dy="4"/>
      <feGaussianBlur result="blur" stdDeviation="0"/>
      <feFlood flood-color="#010101" flood-opacity="0"/>
      <feComposite in2="blur" operator="in"/>
      <feComposite in="SourceGraphic"/>
    </filter>
  </defs>
  <g class="st4" filter="url(#drop-shadow-3)">
    <path class="st0" d="M265.3,733.7c128.3-27.8,298.9-78.7,417.3-3.7,28.2-28.6,44.7-63.3,44.7-100.6,0-98.3-114.3-178-255.3-178s-255.3,79.7-255.3,178,18,75,48.5,104.3Z" fill="#c91618"/>
    <path class="st3" d="M350.1,694.4c5.3,11.4.4,24.9-10.9,30.2h0c-11.4,5.3-24.9.5-30.2-10.9l-41.7-88.8c-5.3-11.4-.4-24.9,10.9-30.2h0c11.4-5.3,24.9-.5,30.2,10.9l41.7,88.8Z" opacity=".2" fill="#010101"/>
    <path class="st3" d="M456.1,661.2c2.9,12.2-4.7,24.5-16.9,27.3h0c-12.2,2.9-24.5-4.7-27.3-16.9l-22.5-95.5c-2.9-12.2,4.7-24.5,16.9-27.3h0c12.2-2.9,24.5,4.7,27.3,16.9l22.5,95.5Z" opacity=".2" fill="#010101"/>
    <path class="st3" d="M592.8,694.4c-5.3,11.4-.4,24.9,10.9,30.2h0c11.4,5.3,24.9.5,30.2-10.9l41.7-88.8c5.3-11.4.4-24.9-10.9-30.2h0c-11.4-5.3-24.9-.5-30.2,10.9l-41.7,88.8Z" opacity=".2" fill="#010101"/>
    <path class="st3" d="M486.8,661.2c-2.9,12.2,4.7,24.5,16.9,27.3h0c12.2,2.9,24.5-4.7,27.3-16.9l22.5-95.5c2.9-12.2-4.7-24.5-16.9-27.3h0c-12.2-2.9-24.5,4.7-27.3,16.9l-22.5,95.5Z" opacity=".2" fill="#010101"/>
    <path class="st2" d="M246,728c-8.1,0-15.1-6.2-15.8-14.5-5-56.9-44.3-92.8-82.4-127.6-38.9-35.5-79-72.2-70.6-128,4.9-32.2,17.8-55.4,38.6-68.9,42.8-27.9,109.2-9.7,179.6,9.6,11.6,3.2,23.2,6.4,35,9.4,82.1,21.2,109.6-32.6,131.8-75.9,3.6-7,7-13.7,10.4-19.5,4.5-7.5,14.2-10,21.7-5.6,7.5,4.5,10,14.2,5.6,21.7-2.9,5-6.1,11.2-9.5,17.8-22.9,44.8-61.3,119.8-168,92.2-11.9-3.1-23.7-6.3-35.4-9.5-63.3-17.3-123-33.7-153.9-13.6-13,8.5-21,23.8-24.5,47-5.6,37.1,19.4,62.1,60.6,99.8,40.6,37.1,86.5,79.1,92.6,148.3.8,8.7-5.7,16.4-14.4,17.2-.5,0-.9,0-1.4,0Z" fill="#ef7d07"/>
    <path class="st1" d="M401.8,713.7c-8.5,0-15.5-6.7-15.8-15.2-2.8-69.9-57.9-105.1-106.5-136.1-43.5-27.8-84.6-54.1-77.7-100.7,4.8-32,18.1-55.4,39.6-69.4,29.6-19.3,73.7-20.7,135-4.1,64.7,17.6,77.1-16,95-81.9l2.6-9.4c2.3-8.4,11.1-13.4,19.5-11.1,8.4,2.3,13.4,11.1,11.1,19.5l-2.5,9.3c-15.9,58.3-35.6,130.8-133.9,104.2-51.3-13.9-88-13.9-109.3,0-13.8,9-22.1,24.6-25.5,47.5-3.7,25,21.7,42.7,63.4,69.3,52.4,33.5,117.6,75.2,121.1,161.6.4,8.8-6.5,16.1-15.2,16.5-.2,0-.4,0-.7,0Z" fill="#f3b814"/>
    <path class="st2" d="M698.5,728c-.5,0-.9,0-1.4,0-8.7-.8-15.2-8.4-14.4-17.2,6-69.2,52-111.2,92.6-148.3,41.3-37.7,66.2-62.7,60.6-99.8-3.5-23.2-11.5-38.5-24.5-47-30.9-20.1-90.6-3.7-153.9,13.6-11.7,3.2-23.5,6.4-35.4,9.5-106.7,27.6-145.1-47.4-168-92.2-3.4-6.6-6.6-12.8-9.5-17.8-4.5-7.5-2-17.3,5.6-21.7,7.5-4.5,17.3-2,21.7,5.6,3.4,5.8,6.8,12.5,10.4,19.5,22.1,43.3,49.7,97.1,131.8,75.9,11.7-3,23.4-6.2,35-9.4,70.3-19.3,136.8-37.4,179.6-9.6,20.7,13.5,33.7,36.7,38.6,68.9,8.4,55.8-31.8,92.5-70.6,128-38.1,34.8-77.4,70.7-82.4,127.6-.7,8.3-7.6,14.5-15.8,14.5Z" fill="#ef7d07"/>
    <path class="st1" d="M542.7,713.7c-.2,0-.4,0-.7,0-8.8-.4-15.6-7.7-15.2-16.5,3.5-86.4,68.7-128.1,121.1-161.6,41.7-26.7,67.1-44.3,63.4-69.3-3.4-23-11.8-38.5-25.5-47.5-21.3-13.9-58-13.9-109.3,0-98.3,26.7-118-45.9-133.9-104.2l-2.5-9.3c-2.3-8.4,2.6-17.2,11.1-19.5,8.5-2.3,17.2,2.6,19.5,11.1l2.6,9.4c17.9,65.9,30.3,99.4,95,81.9,61.2-16.6,105.4-15.3,135,4.1,21.5,14,34.8,37.4,39.6,69.4,6.9,46.7-34.2,72.9-77.7,100.7-48.6,31.1-103.7,66.2-106.5,136.1-.3,8.5-7.4,15.2-15.8,15.2Z" fill="#f3b814"/>
    <path class="st1" d="M472,684.9c-8.8,0-15.9-7.1-15.9-15.9v-330.5c0-8.8,7.1-15.9,15.9-15.9s15.9,7.1,15.9,15.9v330.5c0,8.8-7.1,15.9-15.9,15.9Z" fill="#f3b814"/>
    <path class="st2" d="M536.2,304c0,35.4-28.7,64.1-64.1,64.1s-64.1-28.7-64.1-64.1,28.7-64.1,64.1-64.1,64.1,28.7,64.1,64.1Z" fill="#ef7d07"/>
    <path class="st5" d="M508.1,304c0,19.9-16.2,36.1-36.1,36.1s-36.1-16.2-36.1-36.1,16.2-36.1,36.1-36.1,36.1,16.2,36.1,36.1Z" fill="#2b818d"/>
    <path class="st1" d="M243.9,784.1l-41.7-108.6c151.6-58.3,383.6-61.7,539.8-7.8l-37.9,110c-112.5-38.7-320.4-47.3-460.2,6.4Z" fill="#f3b814"/>
  </g>
</svg>