<?xml version="1.0" encoding="UTF-8"?>
<svg id="Layer_1" xmlns="http://www.w3.org/2000/svg" version="1.1" viewBox="0 0 1024 1024">
  <!-- Generator: Adobe Illustrator 30.3.0, SVG Export Plug-In . SVG Version: 2.1.3 Build 182)  -->
  <defs>
    <style>
      .st0 {
        fill: #e94d41;
      }

      .st0, .st1 {
        fill-rule: evenodd;
      }

      .st1 {
        fill: #e7363a;
      }
    </style>
  </defs>
  <path class="st1" d="M518.4,455.8c-6,0-169.1-101.2-255.2-113.3-84.6-12.1-110.2,142-72.5,237.1,39.3,95.1,48.3,116.3,102.7,113.3,52.9-3,225-90.6,225-90.6v-146.5Z" fill="#e7363a"/>
  <path class="st1" d="M554.7,455.8c6,0,169.1-101.2,255.2-113.3,84.6-12.1,110.2,142,72.5,237.1-39.3,95.1-48.3,116.3-102.7,113.3-52.9-3-225-90.6-225-90.6v-146.5Z" fill="#e7363a"/>
  <path class="st1" d="M536.6,419.5h0c46.8,0,86.1,37.8,86.1,84.6v36.2c0,48.3-39.3,86.1-86.1,86.1h0c-46.8,0-86.1-37.8-86.1-86.1v-36.2c0-46.8,39.3-84.6,86.1-84.6h0Z" fill="#e7363a"/>
  <path class="st0" d="M489.8,419.5h46.8v206.9h-46.8c-21.1,0-39.3-16.6-39.3-39.3v-128.4c0-22.7,18.1-39.3,39.3-39.3h0Z" fill="#e94d41"/>
</svg>