<?xml version="1.0" encoding="UTF-8"?>
<svg id="Layer_1" xmlns="http://www.w3.org/2000/svg" version="1.1" viewBox="0 0 1024 1024">
  <!-- Generator: Adobe Illustrator 30.3.0, SVG Export Plug-In . SVG Version: 2.1.3 Build 182)  -->
  <defs>
    <style>
      .st0 {
        fill-rule: evenodd;
      }

      .st0, .st1 {
        fill: #373435;
      }
    </style>
  </defs>
  <path class="st1" d="M626.4,587.1c-103.3,0-205.2-22.7-303.7-67.5-62.8-28.6-123.7-66.5-176-109.4-5.4-4.4-6.2-12.4-1.8-17.8,4.4-5.4,12.4-6.2,17.8-1.8,67.8,55.7,252.4,183.7,500.9,170.2,106.4-5.8,213-37.5,308.5-91.6,6.1-3.5,13.8-1.3,17.3,4.8,3.5,6.1,1.3,13.8-4.8,17.3-98.9,56-209.4,88.9-319.6,94.9-12.9.7-25.8,1.1-38.7,1.1Z" fill="#373435"/>
  <path class="st0" d="M719.9,507.3s-107.3,31.5-132.8,35.8c-25.5,4.3-15.3,57,49.4,83.4,65.6,26.4,124.3-3.4,138.8-52.8,14.5-50.2-55.3-66.4-55.3-66.4h0Z"/>
</svg>