<?xml version="1.0" encoding="UTF-8"?>
<svg xmlns="http://www.w3.org/2000/svg" version="1.1" xmlns:xlink="http://www.w3.org/1999/xlink" viewBox="0 0 1024 1024">
  <!-- Generator: Adobe Illustrator 30.3.0, SVG Export Plug-In . SVG Version: 2.1.3 Build 182)  -->
  <defs>
    <style>
      .st0 {
        clip-path: url(#clippath-1);
      }

      .st1 {
        isolation: isolate;
      }

      .st2 {
        fill: #e8bd3c;
      }

      .st3 {
        fill: #fcfae2;
      }

      .st4 {
        mix-blend-mode: color-burn;
        opacity: .3;
      }

      .st5 {
        clip-path: url(#clippath);
      }

      .st6 {
        fill: #9c9c9b;
      }
    </style>
    <clipPath id="clippath">
      <path class="st3" d="M1002.5,442.2c-7.8-60.6-65.4-134.2-201.8-116.5-24.1,3.1-49,9.3-73.8,17.4,17.2-26.8,31.8-54.3,41.9-81.9,47.6-129.1-11.4-201.6-68.8-222.7-57.4-21.1-149.2-4-196.5,125.2-10.9,29.8-17.9,62.9-22,97-13.6-22-28.4-42.5-44.6-60.3-92.6-101.8-184.1-82.9-229.3-41.7-45.2,41.2-72.4,130.6,20.4,232.1,7.8,8.5,16.2,16.8,25.2,24.8-11.9.9-23.6,2.2-34.9,4.2-135.5,23.7-168.6,111.1-158,171.3,10.6,60.2,71.5,131.1,207,107.1,23.7-4.2,48-11.4,72.2-20.5-17.6,29.6-32.3,60-41.8,90.3-41.5,131.2,20.8,200.8,79.1,219.2,58.3,18.4,149.3-3,190.5-134.2,8.8-28,14.1-58.8,16.8-90.4,14.7,21.6,30.6,41.7,47.8,58.9,97.2,97.4,187.7,74.3,231,31.1,43.2-43.2,66.3-133.8-31.1-231-4.7-4.7-9.6-9.2-14.7-13.7,6.7-.5,13.3-1,19.8-1.9,136.5-17.4,173.5-103.2,165.7-163.8Z" fill="#fcfae2"/>
    </clipPath>
    <clipPath id="clippath-1">
      <path class="st2" d="M633,532.6c0-53.4-43.3-96.6-96.6-96.6s-96.6,43.3-96.6,96.6,43.3,96.6,96.6,96.6,96.6-43.3,96.6-96.6Z" fill="#e8bd3c"/>
    </clipPath>
  </defs>
  <g class="st1">
    <g id="Layer_1">
      <g>
        <path class="st3" d="M1002.5,442.2c-7.8-60.6-65.4-134.2-201.8-116.5-24.1,3.1-49,9.3-73.8,17.4,17.2-26.8,31.8-54.3,41.9-81.9,47.6-129.1-11.4-201.6-68.8-222.7-57.4-21.1-149.2-4-196.5,125.2-10.9,29.8-17.9,62.9-22,97-13.6-22-28.4-42.5-44.6-60.3-92.6-101.8-184.1-82.9-229.3-41.7-45.2,41.2-72.4,130.6,20.4,232.1,7.8,8.5,16.2,16.8,25.2,24.8-11.9.9-23.6,2.2-34.9,4.2-135.5,23.7-168.6,111.1-158,171.3,10.6,60.2,71.5,131.1,207,107.1,23.7-4.2,48-11.4,72.2-20.5-17.6,29.6-32.3,60-41.8,90.3-41.5,131.2,20.8,200.8,79.1,219.2,58.3,18.4,149.3-3,190.5-134.2,8.8-28,14.1-58.8,16.8-90.4,14.7,21.6,30.6,41.7,47.8,58.9,97.2,97.4,187.7,74.3,231,31.1,43.2-43.2,66.3-133.8-31.1-231-4.7-4.7-9.6-9.2-14.7-13.7,6.7-.5,13.3-1,19.8-1.9,136.5-17.4,173.5-103.2,165.7-163.8Z" fill="#fcfae2"/>
        <g class="st5" clip-path="url(#clippath)">
          <g>
            <path class="st2" d="M633,532.6c0-53.4-43.3-96.6-96.6-96.6s-96.6,43.3-96.6,96.6,43.3,96.6,96.6,96.6,96.6-43.3,96.6-96.6Z" fill="#e8bd3c"/>
            <g class="st0" clip-path="url(#clippath-1)">
              <g class="st4" opacity=".3">
                <path class="st6" d="M400.7,513.1c10.8,15.7,21.6,31.4,33.5,46.1,11.9,14.7,24.9,28.4,40,39.2,1.9,1.4,3.8,2.6,5.7,3.9,2,1.2,3.9,2.5,5.9,3.6,2,1.2,4,2.2,6.1,3.3,1,.5,2.1,1,3.1,1.5,1,.5,2.1,1,3.1,1.4,4.2,1.8,8.5,3.3,12.9,4.5,4.4,1.3,8.8,2.1,13.3,2.8,18,2.5,36.6,0,53.9-6,17.3-6.1,33.5-15.6,47.7-27.4,7.1-6,13.7-12.4,19.7-19.6,6-7.1,11.7-14.5,16.8-22.4,10.3-15.6,18.7-32.6,26-50,3.6-8.7,7.1-17.6,10.3-26.5,3.2-9,6.3-18,9.2-27-2,9.3-4.2,18.6-6.6,27.9-2.5,9.2-5.2,18.4-8.3,27.5-6.3,18.1-14,35.8-24,52.5-4.9,8.3-10.5,16.3-16.7,23.9-6,7.6-12.9,14.7-20.3,21.1-14.8,12.8-31.9,23.1-50.5,29.6-9.3,3.2-19,5.5-28.9,6.6-4.9.6-9.9.8-14.9.6-5-.1-9.9-.5-14.9-1.3-4.9-.8-9.8-1.9-14.5-3.4-4.7-1.5-9.4-3.2-13.9-5.3-1.1-.5-2.3-1-3.3-1.6-1.1-.6-2.2-1.1-3.3-1.7-2.1-1.2-4.3-2.4-6.4-3.7-2.1-1.3-4.1-2.7-6.2-4-2-1.4-4-2.8-5.9-4.4-15.4-12.1-28.2-26.9-39.2-42.5-11.1-15.7-20.6-32.3-29.6-49.1Z" fill="#9c9c9b"/>
              </g>
            </g>
          </g>
        </g>
      </g>
    </g>
  </g>
</svg>