<?xml version="1.0" encoding="UTF-8"?>
<svg id="Layer_1" xmlns="http://www.w3.org/2000/svg" version="1.1" xmlns:xlink="http://www.w3.org/1999/xlink" viewBox="0 0 1024 1024">
  <!-- Generator: Adobe Illustrator 30.3.0, SVG Export Plug-In . SVG Version: 2.1.3 Build 182)  -->
  <defs>
    <style>
      .st0 {
        fill: #924515;
      }

      .st1 {
        filter: url(#drop-shadow-1);
      }
    </style>
    <filter id="drop-shadow-1" x="84.7" y="440.5" width="866.6" height="246.9" filterUnits="userSpaceOnUse">
      <feOffset dx="4" dy="4"/>
      <feGaussianBlur result="blur" stdDeviation="0"/>
      <feFlood flood-color="#010101" flood-opacity="0"/>
      <feComposite in2="blur" operator="in"/>
      <feComposite in="SourceGraphic"/>
    </filter>
  </defs>
  <g class="st1" filter="url(#drop-shadow-1)">
    <path class="st0" d="M516,593.4c35.2,104.7,231.8,94,198.7,83.6-33.1-10.4-50.2-32.9-53.8-55.3,35.2,45.5,209.3,42.8,167.6,30.4-29.5-8.7-47.6-34.6-70.4-58.8,60,27.5,144.9,29.8,189.2-30.2-92.3,35.2-151.9-101.4-280.2-120-128.3-18.6-151.1,64.2-151.1,64.2,0,0-22.8-82.8-151.1-64.2-128.3,18.6-188,155.2-280.2,120,44.3,60,129.2,57.7,189.2,30.2-22.8,24.2-40.9,50.1-70.4,58.8-41.7,12.4,132.4,15.1,167.6-30.4-4.8,25.7-20.7,44.9-53.8,55.3-33.1,10.3,163.5,21.1,198.7-83.6Z" fill="#924515"/>
  </g>
</svg>