<?xml version="1.0" encoding="UTF-8"?>
<svg id="Layer_1" xmlns="http://www.w3.org/2000/svg" version="1.1" viewBox="0 0 1024 1024">
  <!-- Generator: Adobe Illustrator 30.3.0, SVG Export Plug-In . SVG Version: 2.1.3 Build 182)  -->
  <defs>
    <style>
      .st0 {
        fill: #2e241c;
      }

      .st1 {
        fill: #ea5524;
      }

      .st2 {
        fill: #3b2d26;
      }
    </style>
  </defs>
  <path class="st0" d="M925.9,614.7c0,65.6-183.5,118.8-409.9,118.8s-409.9-53.2-409.9-118.8,183.5-95.1,409.9-95.1,409.9,29.4,409.9,95.1Z" fill="#2e241c"/>
  <path class="st2" d="M815.8,547.5c-5.2,15.3-151,67.3-292.8,67.2-152.7-.2-302.3-53.8-308.5-67.2,0-33.5,6.4-160.7,18-190.4,42-107.2,152.7-183.8,282.7-183.8s244.2,79,284.6,188.9c10.4,28.3,16.1,153.7,16.1,185.3Z" fill="#3b2d26"/>
  <path class="st1" d="M528.9,555.8c-137.6-.2-272.8-39.6-312.7-59.3-1.1,22-1.7,40.8-1.7,50.9,6.3,13.4,155.8,67,308.5,67.2,141.8.2,287.5-51.9,292.8-67.2,0-8.9-.5-25.4-1.3-45-48.3,21.2-168.3,53.4-285.6,53.3Z" fill="#ea5524"/>
</svg>