<?xml version="1.0" encoding="UTF-8"?>
<svg id="Layer_1" xmlns="http://www.w3.org/2000/svg" version="1.1" viewBox="0 0 1024 1024">
  <!-- Generator: Adobe Illustrator 30.3.0, SVG Export Plug-In . SVG Version: 2.1.3 Build 182)  -->
  <defs>
    <style>
      .st0 {
        fill: #0f6389;
      }

      .st1 {
        fill: #2b8caf;
      }

      .st2 {
        fill: #187f35;
      }

      .st3 {
        fill: #81b668;
      }
    </style>
  </defs>
  <g>
    <path class="st1" d="M211.4,728.2c.1,5.9,2.3,13.7,8.2,13.4.4-76.9.7-153.9,1.1-230.8,0-4.6-.4-10.1-4.3-12.5-9.2,8-4.3,37.9-4.6,49-.5,20.5-.9,41-1.1,61.5-.4,39.8-.1,79.6.8,119.5Z" fill="#2b8caf"/>
    <g>
      <path class="st2" d="M236.4,736.6c-6.2-14-31.5-12.9-38.3-.1-3.8,7.1-2,16.8,4.4,21.6,5,3.7,11.6,4.2,17.7,4.1,2.1,0,4.2,0,6.1-.9,1.7-.8,3.1-2.1,4.4-3.6,5.1-5.8,8.7-14.1,5.6-21.1Z" fill="#187f35"/>
      <path class="st2" d="M198.9,787.5c-3.2,13.1-5.9,27.3-.6,39.7.5,1.1,1.1,2.3,2.3,2.6,1.2.3,2.3-.5,3.3-1.2,3-2.2,5.9-4.5,8.9-6.7-.1,4,.9,9.4,4.9,9.6,2.6.1,4.6-2.3,5.5-4.7.9-2.4,1.1-5.1,2.4-7.4,1.2,3.4,3.2,7.5,6.9,7.5,4.5,0,6.1-5.8,6.1-10.3.3-19.4-3.1-38.8-10.4-56.7-1.7-4.2-3.9-8.6-8-10.7-15.4-7.7-19.4,30.7-21.2,38.2Z" fill="#187f35"/>
    </g>
  </g>
  <path class="st0" d="M934.9,500.7c-1.3-3-4.1-4.9-6.8-6.7-17.9-11.5-37.6-20-57.1-28.4-33.8-14.5-67.6-29-101.4-43.4-60.6-25.9-121.2-51.7-181.9-77.5-15.3-6.5-30.6-13-46-19.5-12.1-5.1-26-14.1-39.6-12.9-11.7,1.1-22.7,8.5-33,12.9-15.3,6.5-30.6,13-46,19.5-60.6,25.8-121.3,51.6-181.9,77.5-33.8,14.4-67.6,28.9-101.4,43.4-19.6,8.4-39.2,16.8-57.1,28.4-2.7,1.7-5.5,3.7-6.8,6.7-3.5,7.9,5.4,15.4,13.1,19.3,38.8,19.6,116.9,45.1,116.9,45.1,26.1,5.7,62,15.8,104.1,34.8,12.9-20.7,45.8-66.5,103.5-84.2,48.7-14.9,90.6-2.4,149.2,15.1,34.5,10.3,85.1,29.2,141.3,65.6,42.1-16.8,76.9-26,100.8-31.3,0,0,78.4-25.7,116.9-45.1,7.7-3.9,16.6-11.4,13.1-19.3Z" fill="#0f6389"/>
  <path class="st1" d="M488.3,433.8c-42.4.8-84.6,7.8-124.9,20.7-15.3,4.9-30.5,10.7-44.2,19.1-6.5,4-12.9,8.8-16,15.8-2.1,4.8-2.5,10.2-2.7,15.4-1.3,28.2-.2,56.6,3.3,84.6.6,5.1,1.6,10.6,5.3,14.2,5,4.8,12.9,4.2,19.8,3.3,118.4-14.9,238.7-15,357.1-.2,6.4.8,14.6.7,17.1-5.2.7-1.6.8-3.4.9-5.2l5.8-98.7c.2-3.7.4-7.5-.8-11-2.1-6-8-9.7-13.6-12.7-32.2-17.2-68.1-25.9-104-31.3-33.6-5-69.1-9.5-103.1-8.9Z" fill="#2b8caf"/>
  <path class="st3" d="M468.2,490.5c-10.3,10.4-15.9,25.7-13.4,40.1,2.8,16.5,16.2,30.3,32.2,35,16,4.7,34.1.5,47.3-9.8,4.5-3.5,8.6-7.8,11.1-13,2.9-6,3.6-12.9,3.4-19.6-.4-11.4-3.3-23-9.8-32.4-17.3-25.1-51.1-20.3-70.8-.4Z" fill="#81b668"/>
</svg>