<?xml version="1.0" encoding="UTF-8"?>
<svg id="Layer_1" xmlns="http://www.w3.org/2000/svg" version="1.1" viewBox="0 0 1024 1024">
  <!-- Generator: Adobe Illustrator 30.3.0, SVG Export Plug-In . SVG Version: 2.1.3 Build 182)  -->
  <defs>
    <style>
      .st0 {
        fill: #fabb64;
      }

      .st1 {
        fill: #f5a054;
      }

      .st2 {
        fill: #fcd3a4;
      }
    </style>
  </defs>
  <g>
    <path class="st1" d="M715.4,884.6s-.8,31.1-1.9,34-3.3,3.7-3.3-1.1,1.3-26.4,1.3-26.4l-2.3.8s.3,28.5-.9,29.8c-1.2,1.4-2.7-5.5-2.7-28.1l-.9-.2s1.3,29.5-1.3,30.3c-2.6.8-1.5-29-1.5-29l-2.4.6s.9,30.2-2,30.1c-2.8,0-1.1-30.4-1.1-30.4l-1.2.9s.9,30.6-1.5,30.5c-2.4,0-2.1-29.4-2.1-29.4h-2c0-.1,2,30.9-.8,30.4-2.9-.5-2.4-29.6-2.4-29.6,0,0-2.3,28.6-4.9,28.8-2.6.2.3-28.5.3-28.5h-1.7c0,.1-.8,30.8-4.1,30.6-3.3-.2.4-30.2.4-30.2h-2c0,.1-2.2,30-4.4,29.7-2.2-.3,1.6-29.2,1.6-29.2l-2.9-.7s-1,31.6-3.4,31.1c-2.4-.5.6-31.3.6-31.3h-1.7c0-.1-2.1,30.4-4.1,30.6s-1.2-9.7.5-29.6c1.7-19.9,54.8-14.3,54.8-14.3Z" fill="#f5a054"/>
    <path class="st0" d="M722.6,780.8c.1,1.3-1.4,2.3-1.8,2.6-11.5,9-4.3,24-5,69.3-.1,8.4-.9,38.4-.9,38.5,0,0-22.8,11.1-54.3,7.7-10.9-93.1-6.6-95.4,10.1-111.2,9.8-9.4,21.2-12,21.2-12,13.9-3.2,30.4,1,30.7,5.1Z" fill="#fabb64"/>
  </g>
  <path class="st2" d="M229.4,379.3c12.4,21.7,104.2-43.8,281.1-51.5,176.6-7.7,274.5,49.2,286.1,24.7,14.5-30.7-114.9-169.7-271.9-170.4-173.6-.8-312,167.9-295.4,197.2Z" fill="#fcd3a4"/>
  <path class="st0" d="M514.1,168c-246.7,1.9-377.7,210.2-392.1,234.1-26.2,43.4-113,186.9-56.3,301.4,71.1,143.6,316.3,137,454.8,133.2,139.4-3.8,394.3-10.6,457-161.8,54.2-130.9-69.5-287.8-95.7-321.1-28.1-35.6-156-187.4-367.7-185.8ZM895.9,645.8c-58.1,177.7-699.8,189.2-764.1,13.9-55.6-151.6,328.8-420.5,374.7-452.1,47.5,26.9,107.6,66,170,121.5,68.4,60.8,250.4,221.9,219.5,316.6Z" fill="#fabb64"/>
</svg>