<?xml version="1.0" encoding="UTF-8"?>
<svg id="Layer_1" xmlns="http://www.w3.org/2000/svg" version="1.1" xmlns:xlink="http://www.w3.org/1999/xlink" viewBox="0 0 1024 1024">
  <!-- Generator: Adobe Illustrator 30.3.0, SVG Export Plug-In . SVG Version: 2.1.3 Build 182)  -->
  <defs>
    <style>
      .st0 {
        filter: url(#drop-shadow-4);
      }

      .st1 {
        fill: #f3b814;
      }

      .st2, .st3 {
        fill: #ef7d07;
      }

      .st4 {
        fill: #c54e7a;
      }

      .st3 {
        stroke: #e4b62d;
        stroke-linecap: round;
        stroke-linejoin: round;
        stroke-width: 2px;
      }
    </style>
    <filter id="drop-shadow-4" x="168" y="168.5" width="609.6" height="758.8" filterUnits="userSpaceOnUse">
      <feOffset dx="4" dy="4"/>
      <feGaussianBlur result="blur" stdDeviation="0"/>
      <feFlood flood-color="#010101" flood-opacity="0"/>
      <feComposite in2="blur" operator="in"/>
      <feComposite in="SourceGraphic"/>
    </filter>
  </defs>
  <g class="st0" filter="url(#drop-shadow-4)">
    <g>
      <path class="st1" d="M306.5,295.7c-2.3,1.7-5.2,2.4-8.1,2-2.8-.5-5.4-2-7.1-4.4-1.7-2.3-2.4-5.2-2-8.1.9-5.7,6.7-10,12.4-9.1,2.8.4,5.4,2,7.1,4.3,1.7,2.3,2.4,5.2,2,8.1-.5,2.9-2,5.4-4.3,7.1Z" fill="#f3b814"/>
      <path class="st1" d="M378.9,436.4c-5.8,1.9-11.9-1.2-13.8-6.9h0c-1.9-5.7,1.2-11.9,6.9-13.7h0c5.7-1.9,11.9,1.2,13.8,6.9h0c1.5,4.6-.2,9.5-3.9,12.2h0c-.9.6-1.9,1.2-3,1.5ZM355.9,442.2c-6,1-11.6-3.1-12.6-8.9h0c-1-6,3-11.6,8.9-12.6h0c6-1,11.5,3,12.6,8.9h0c.7,4.2-1.1,8.3-4.3,10.6h0c-1.3,1-2.9,1.7-4.6,2ZM332.2,444.2h0c-6,0-11-4.8-11-10.8h0c0-6,4.8-11,10.8-11h0c6,0,10.9,4.8,11,10.9h0c0,3.6-1.7,6.8-4.5,8.8h0c-1.8,1.3-4,2.1-6.4,2.1ZM308.4,442.4c-6-1-10.1-6.5-9.1-12.5h0c.9-5.9,6.5-10,12.4-9.1h0c6,1,10,6.5,9.1,12.4h0c-.5,3-2.1,5.4-4.3,7.1h0c-2.3,1.7-5.1,2.5-8.1,2ZM285.4,437.1c-5.7-1.8-8.9-7.9-7.2-13.7h0c1.8-5.8,7.9-9,13.6-7.2h0c5.8,1.8,9,7.9,7.2,13.6h0c-.7,2.3-2.1,4.2-4,5.6h0c-2.7,2-6.3,2.7-9.7,1.6ZM263.5,428.6c-5.5-2.5-7.9-9-5.3-14.5h0c2.5-5.5,9-7.9,14.5-5.3h0c5.4,2.5,7.8,9,5.3,14.5h0c-.8,1.7-2,3.2-3.5,4.2h0c-3.1,2.3-7.3,2.9-11,1.1ZM242.9,417.7c-5.2-3.1-6.8-9.8-3.7-15h0c3.1-5.1,9.8-6.8,14.9-3.7h0c5.2,3.1,6.8,9.8,3.7,14.9h0c-.8,1.3-1.8,2.4-2.9,3.2h0c-3.5,2.5-8.2,2.9-12.1.6ZM223.7,404.9c-4.8-3.6-5.9-10.4-2.3-15.3h0c3.5-4.8,10.4-5.9,15.2-2.3h0c4.8,3.5,5.8,10.4,2.3,15.2h0c-.7.9-1.5,1.7-2.3,2.3h0c-3.8,2.8-9,2.9-12.9,0ZM205.7,390.2c-4.5-4.1-4.8-10.9-.8-15.4h0c4-4.4,10.9-4.8,15.4-.8h0c4.4,4,4.8,10.9.7,15.4h0c-.5.6-1,1.1-1.6,1.5h0c-4.1,3-9.9,2.9-13.8-.7ZM189.4,373.1c-3.8-4.6-3.1-11.5,1.5-15.3h0c4.6-3.8,11.5-3.2,15.3,1.5h0c3.8,4.7,3.1,11.6-1.5,15.3h0c-.2.1-.4.3-.5.4h0c-4.7,3.4-11.2,2.6-14.9-1.9ZM276.2,289.6h0c-5.8-1.7-9.1-7.7-7.3-13.6h0c1.7-5.8,7.8-9,13.6-7.3h0c5.8,1.7,9,7.8,7.3,13.6h0c-.7,2.3-2.1,4.3-4,5.7h0c-2.6,1.9-6.2,2.6-9.6,1.6ZM190.5,357.6c-5.4,2.7-11.9.6-14.6-4.8h0c-2.7-5.4-.6-11.9,4.8-14.6h0c5.4-2.7,11.9-.5,14.6,4.8h0c2.5,4.8.9,10.6-3.3,13.7h0c-.5.4-1,.7-1.5.9ZM256.2,285.3c-5.9-.8-10.1-6.3-9.3-12.3h0c.8-6,6.3-10.1,12.2-9.3h0c6,.8,10.1,6.3,9.3,12.3h0c-.4,3-2,5.6-4.4,7.3h0c-2.2,1.6-5,2.4-7.9,2ZM180.3,337.7c-6,.8-11.4-3.5-12.1-9.5h0c-.8-6,3.5-11.4,9.5-12.1h0c6-.8,11.4,3.5,12.2,9.5h0c.5,4-1.3,7.9-4.4,10.1h0c-1.5,1.1-3.2,1.7-5.1,2ZM236.3,284.4h0c-6,.4-11.2-4.2-11.5-10.3h0c-.3-6,4.2-11.2,10.2-11.5h0c6-.4,11.2,4.3,11.5,10.3h0c.2,3.8-1.5,7.3-4.4,9.4h0c-1.6,1.2-3.6,2-5.8,2.1ZM177.5,315.4c-5.6-2.3-8.3-8.6-6.1-14.2h0c2.2-5.5,8.6-8.3,14.1-6h0c5.6,2.2,8.3,8.6,6.1,14.2h0c-.8,1.9-2.1,3.5-3.6,4.7h0c-2.9,2.2-6.9,2.8-10.5,1.4ZM217.4,287.8h0c-5.7,1.8-11.9-1.3-13.8-7h0c-1.8-5.7,1.3-11.9,7-13.7h0c5.7-1.9,11.9,1.3,13.7,7h0c1.5,4.6-.2,9.5-3.9,12.2h0c-.9.6-2,1.2-3,1.6ZM186.2,294.7c-3.8-4.7-3.1-11.6,1.6-15.3h0c4.6-3.8,11.5-3.1,15.3,1.5h0c3.8,4.7,3.1,11.6-1.6,15.3h0c-.1.1-.2.2-.4.4h0c-4.7,3.4-11.2,2.6-14.9-1.9Z" fill="#f3b814"/>
      <path class="st1" d="M403,427.2c-2.3,1.7-5.2,2.4-8.1,2-2.8-.4-5.4-2-7.1-4.4-1.7-2.3-2.4-5.2-2-8.1.9-5.7,6.7-10,12.4-9.1,2.8.4,5.4,2,7.1,4.3,1.7,2.3,2.5,5.3,2,8.1-.5,2.9-2,5.4-4.3,7.1Z" fill="#f3b814"/>
      <path class="st1" d="M403.5,409.7c-4.9-3.5-6-10.3-2.5-15.2h0c3.5-4.8,10.3-6,15.2-2.4h0c4.9,3.5,5.9,10.3,2.4,15.2h0c-.7,1-1.5,1.8-2.4,2.4h0c-3.7,2.7-8.9,2.9-12.8,0ZM416.6,391.8c-5.3-2.8-7.4-9.3-4.8-14.7h0c2.8-5.3,9.3-7.5,14.7-4.7h0c5.3,2.8,7.5,9.3,4.7,14.7h0c-.8,1.6-1.9,2.8-3.2,3.8h0c-3.2,2.4-7.6,2.9-11.4.9ZM426.6,372.2c-5.7-1.9-8.9-8-7-13.8h0c1.9-5.8,8-8.9,13.7-7h0c5.7,1.9,8.9,8,7,13.7h0c-.7,2.3-2.2,4.1-3.9,5.4h0c-2.7,2-6.3,2.7-9.8,1.7ZM433.4,351c-5.9-.9-10-6.5-9.1-12.4h0c.9-5.9,6.5-10,12.4-9.1h0c5.9.9,10,6.5,9.1,12.4h0c-.5,3-2.1,5.4-4.3,7.1h0c-2.3,1.7-5.1,2.5-8.1,2ZM436.7,329.2c-6,0-10.9-4.9-10.8-11h0c0-6,4.9-10.9,11-10.8h0c6,0,10.9,4.9,10.8,10.9h0c0,3.6-1.8,6.7-4.5,8.7h0c-1.8,1.3-4,2.1-6.5,2.1ZM436.7,307.1c-5.9.8-11.4-3.5-12.1-9.5h0c-.7-6,3.5-11.4,9.5-12.1h0c6-.7,11.4,3.5,12.2,9.5h0c.5,4.1-1.2,7.9-4.4,10.2h0c-1.4,1-3.2,1.8-5.1,2ZM434,285.2c-5.9,1.4-11.7-2.2-13.1-8.1h0c-1.4-5.9,2.2-11.7,8.1-13.1h0c5.8-1.4,11.7,2.2,13.1,8h0c1,4.4-.8,8.9-4.2,11.4h0c-1.1.8-2.4,1.5-3.9,1.8ZM428.7,263.7c-5.7,1.9-11.9-1.1-13.8-6.8h0c-2-5.7,1.1-11.9,6.8-13.8h0c5.6-2,11.9,1.1,13.8,6.8h0c1.6,4.6-.1,9.6-3.9,12.3h0c-.9.6-1.9,1.2-2.9,1.5ZM421.6,242.7c-5.5,2.5-11.9,0-14.4-5.4h0c-2.5-5.5-.2-11.9,5.3-14.5h0c5.4-2.5,11.9-.1,14.4,5.3h0c2.2,4.8.6,10.3-3.4,13.3h0c-.6.4-1.2.8-1.9,1.1ZM412.4,222.6c-5,3.3-11.7,1.9-15.1-3.2h0c-3.3-5-1.9-11.7,3.2-15.1h0c5-3.3,11.8-1.9,15.1,3.2h0c3.2,4.9,1.9,11.3-2.7,14.7h0c-.1,0-.3.2-.5.4ZM385.1,204c-4.3-4.2-4.3-11.1,0-15.4h0c4.2-4.3,11.1-4.3,15.4-.1h0c4.3,4.2,4.4,11.1.2,15.4h0c-.5.4-.9.8-1.4,1.2h0c-4.2,3.1-10.2,2.8-14.1-1ZM298.7,275.4c-6,0-10.8-5-10.7-11.1h0c.1-6,5.1-10.8,11.1-10.7h0c6,.1,10.8,5,10.7,11.1h0c0,3.5-1.8,6.7-4.4,8.6h0c-1.8,1.4-4.1,2.2-6.6,2.1ZM299.1,253.3c-5.9-1.1-9.9-6.7-8.9-12.6h0c1-5.9,6.6-9.9,12.6-8.9h0c5.9,1,9.9,6.7,8.9,12.6h0c-.5,2.9-2.1,5.3-4.3,6.9h0c-2.3,1.7-5.2,2.4-8.3,2ZM370.2,193.4c-5.5-2.5-7.9-9-5.3-14.5h0c2.6-5.4,9-7.8,14.5-5.3h0c5.4,2.5,7.8,9,5.3,14.4h0c-.8,1.7-2,3.2-3.5,4.2h0c-3.1,2.3-7.3,2.9-11,1.1ZM302.8,231.5c-5.6-2.2-8.5-8.4-6.3-14.1h0c2.2-5.6,8.5-8.4,14.1-6.3h0c5.6,2.1,8.4,8.4,6.3,14.1h0c-.7,2-2.1,3.7-3.7,4.9h0c-2.9,2.1-6.7,2.8-10.3,1.4ZM354.1,190.2c-6,.5-11.2-4.1-11.6-10.1h0c-.4-6,4.1-11.2,10.1-11.6h0c6-.4,11.2,4.1,11.6,10.1h0c.2,3.9-1.5,7.4-4.5,9.6h0c-1.6,1.2-3.5,1.9-5.7,2ZM310.7,210.6c-4.9-3.5-6-10.3-2.5-15.2h0c3.5-4.9,10.3-6,15.2-2.5h0c4.9,3.5,6,10.3,2.5,15.2h0c-.7,1-1.5,1.8-2.4,2.4h0c-3.7,2.7-8.9,2.9-12.8,0ZM338.7,195.6c-5.1,3.3-11.8,1.8-15.1-3.2h0c-3.2-5.1-1.8-11.8,3.2-15.1h0c5.1-3.3,11.8-1.9,15.1,3.2h0c3.1,4.9,1.9,11.3-2.7,14.7h0c-.2.1-.4.3-.5.4Z" fill="#f3b814"/>
    </g>
    <rect class="st1" x="557.8" y="358.5" width="17.3" height="583.1" transform="translate(-274.8 461.1) rotate(-36.3)" fill="#f3b814"/>
    <path class="st2" d="M768.7,883.1c8.3,11.3,5.8,27.1-5.4,35.3-11.3,8.3-27.1,5.8-35.3-5.4-8.3-11.3-5.8-27.1,5.4-35.4,11.3-8.3,27.1-5.8,35.4,5.4Z" fill="#ef7d07"/>
    <path class="st3" d="M280.3,208.7c20,27.3,11.7,67.4,11.7,67.4,0,0-40.7-4.1-60.7-31.4-20-27.3-11.7-67.3-11.7-67.3,0,0,40.7,4.1,60.7,31.4Z" fill="#ef7d07" stroke-width="2px" stroke="#e4b62d" stroke-linecap="round" stroke-linejoin="round"/>
    <path class="st4" d="M299.6,286.3c-38.9-11.5-65.6,29.5-29.5,53,34.7,22.6,75.8,15.8,79.5,15.2,1.8-3.4,20.5-40.5,9.4-80.4-11.5-41.5-58.6-28.3-59.4,12.2Z" fill="#c54e7a"/>
    <path class="st2" d="M382.3,347.7c4.6,6.2,3.2,14.9-3,19.5l-26.5,19.4c-6.2,4.6-14.9,3.2-19.5-3h0c-4.6-6.2-3.2-14.9,3-19.5l26.5-19.4c6.2-4.6,14.9-3.2,19.5,3h0Z" fill="#ef7d07"/>
    <path class="st2" d="M418.5,397c4.6,6.2,3.2,14.9-3,19.5l-26.5,19.4c-6.2,4.6-14.9,3.2-19.5-3h0c-4.6-6.2-3.2-14.9,3-19.5l26.5-19.4c6.2-4.5,14.9-3.2,19.5,3h0Z" fill="#ef7d07"/>
    <path class="st1" d="M410.1,363.7c5,6.9,3.6,16.5-3.3,21.6l-45,33c-6.9,5-16.5,3.6-21.6-3.3h0c-5-6.9-3.6-16.5,3.3-21.6l45-33c6.9-5,16.5-3.6,21.6,3.3h0Z" fill="#f3b814"/>
  </g>
</svg>
