<?xml version="1.0" encoding="UTF-8"?>
<svg xmlns="http://www.w3.org/2000/svg" version="1.1" xmlns:xlink="http://www.w3.org/1999/xlink" viewBox="0 0 1024 1024">
  <!-- Generator: Adobe Illustrator 30.3.0, SVG Export Plug-In . SVG Version: 2.1.3 Build 182)  -->
  <defs>
    <style>
      .st0 {
        fill: #b8dcc4;
      }

      .st1 {
        fill: #a2d2b1;
      }

      .st2 {
        fill: #cbcdce;
      }

      .st3 {
        isolation: isolate;
      }

      .st4 {
        mix-blend-mode: multiply;
      }

      .st5 {
        fill: #d84e20;
      }

      .st6 {
        clip-path: url(#clippath);
      }
    </style>
    <clipPath id="clippath">
      <path class="st5" d="M573.4,1300.6l-27.7-46.2s-23.3-8.1-52.2-8.1-45.3,8.1-45.3,8.1l-27.7,46.2s-2.2,26.5,13.6,54.9c15.8,28.4,33.3,42.7,33.3,42.7h59.2s19.4-12.7,34.4-44.9c15-32.1,12.5-52.7,12.5-52.7Z" fill="#d84e20"/>
    </clipPath>
  </defs>
  <g class="st3">
    <g id="Layer_1">
      <g>
        <g>
          <path class="st1" d="M734.9,503.2c61.1-58.2,122.2-116.4,183.3-174.5.6,1.8,1.3,3.5,1.9,5.3-59,63.8-117.9,127.7-176.9,191.5l-8.2-22.2Z" fill="#a2d2b1"/>
          <path class="st0" d="M729.6,628.6c69.5-74.5,139-149,208.5-223.4.3,2.1.7,4.2,1,6.4-68.7,80.2-137.4,160.3-206,240.5l-3.5-23.4Z" fill="#b8dcc4"/>
        </g>
        <g>
          <path class="st1" d="M477.6,462c20.8-2.3,41.9-1.8,62.6,1.5l213.3,34.1-1.6,69.7-213.3-34.1c-20.7-3.3-41.8-3.8-62.6-1.5l-214.7,24,1.6-69.7,214.7-24Z" fill="#a2d2b1"/>
          <path class="st0" d="M538.6,533.2l213.3,34.1-.3,12.9c-1.4,58.1-41.3,108.1-97.6,122.2l-22.5,5.7c-81.4,20.5-166.8,18.9-247.4-4.6l-30.1-8.8c-56.2-16.4-94.3-68.5-93-127.1l.3-11.9,214.7-24c20.8-2.3,41.9-1.8,62.6,1.5Z" fill="#b8dcc4"/>
        </g>
        <g>
          <path class="st1" d="M290.3,503.4c-61.9-57.4-123.7-114.7-185.6-172.1-.6,1.8-1.2,3.5-1.8,5.3,59.8,63,119.6,126.1,179.5,189.1l7.9-22.3Z" fill="#a2d2b1"/>
          <path class="st0" d="M297.3,628.8c-70.5-73.5-141-147.1-211.5-220.6-.3,2.1-.6,4.3-.9,6.4,69.8,79.2,139.5,158.5,209.3,237.7l3.2-23.5Z" fill="#b8dcc4"/>
        </g>
      </g>
      <g>
        <path class="st5" d="M573.4,1300.6l-27.7-46.2s-23.3-8.1-52.2-8.1-45.3,8.1-45.3,8.1l-27.7,46.2s-2.2,26.5,13.6,54.9c15.8,28.4,33.3,42.7,33.3,42.7h59.2s19.4-12.7,34.4-44.9c15-32.1,12.5-52.7,12.5-52.7Z" fill="#d84e20"/>
        <g class="st6" clip-path="url(#clippath)">
          <g class="st4">
            <rect class="st2" x="481.1" y="1012.7" width="30.9" height="615.7" transform="translate(-25.3 9.8) rotate(-1.1)" fill="#cbcdce"/>
            <polygon class="st2" points="409.7 967.2 440.6 966.6 452.6 1582.2 421.7 1582.8 409.7 967.2" fill="#cbcdce"/>
          </g>
        </g>
      </g>
    </g>
  </g>
</svg>