<?xml version="1.0" encoding="UTF-8"?>
<svg xmlns="http://www.w3.org/2000/svg" version="1.1" xmlns:xlink="http://www.w3.org/1999/xlink" viewBox="0 0 1024 1024">
  <!-- Generator: Adobe Illustrator 30.3.0, SVG Export Plug-In . SVG Version: 2.1.3 Build 182)  -->
  <defs>
    <style>
      .st0 {
        opacity: .4;
      }

      .st0, .st1 {
        fill: #d1d7ce;
      }

      .st2 {
        fill: #fff;
      }

      .st3 {
        fill: #9fa58d;
      }

      .st4 {
        fill: #cbcdce;
      }

      .st5 {
        stroke-width: 3px;
      }

      .st5, .st6 {
        fill: none;
        stroke: #282322;
        stroke-linecap: round;
        stroke-linejoin: round;
      }

      .st7 {
        fill: #282322;
      }

      .st8 {
        isolation: isolate;
      }

      .st9 {
        fill: #f4f3f3;
      }

      .st10 {
        fill: #a8b7a3;
      }

      .st11 {
        fill: #ea5524;
      }

      .st12 {
        mix-blend-mode: multiply;
      }

      .st13 {
        fill: #e06661;
      }

      .st14 {
        fill: #babb83;
      }

      .st6 {
        stroke-width: 2px;
      }

      .st15 {
        clip-path: url(#clippath);
      }
    </style>
    <clipPath id="clippath">
      <polygon class="st11" points="467.3 -689.8 526.5 -689.8 618.9 -148.4 494 -33.9 378.8 -151 467.3 -689.8" fill="#ea5524"/>
    </clipPath>
  </defs>
  <g class="st8">
    <g id="Layer_1">
      <g>
        <polygon class="st11" points="467.3 -689.8 526.5 -689.8 618.9 -148.4 494 -33.9 378.8 -151 467.3 -689.8" fill="#ea5524"/>
        <g class="st15" clip-path="url(#clippath)">
          <g class="st12">
            <polygon class="st4" points="352.3 59.4 325.3 22.4 820.4 -387 847.4 -350 352.3 59.4" fill="#cbcdce"/>
          </g>
        </g>
      </g>
      <g>
        <path class="st6" d="M547,401c-5.2,18.3-12,46.6-14.9,81.7-5,61,6.9,82.5,5.6,136.2-1.8,75.4-26,66.3-27.6,136.9-1.5,64.9,18.7,86.5,13.7,161.6-2,30.2-7.1,54.7-11.2,70.9" fill="none" stroke="#282322" stroke-width="2px" stroke-linecap="round" stroke-linejoin="round"/>
        <path class="st10" d="M552.5,402.1c-2.3,1.6-4.4,3.5-4.1,5.5.4,3.5,7.3,4.1,7.3,6.6,0,2-5.1,4.6-9.8,3.9-3.3-.5-3.6-1.9-6.5-2.1-5.7-.4-9.6,4.8-10.6,3.8-.8-.8,1.2-4.5,3-7,2.6-3.5,4.8-4.3,4.7-6.3,0-1-.7-2.4-3.4-3.9,2.8.2,5.9.3,9.3.2,3.7-.1,7.1-.4,10.1-.8Z" fill="#a8b7a3"/>
        <g>
          <circle class="st9" cx="536.9" cy="220.1" r="184.2" fill="#f4f3f3"/>
          <path class="st0" d="M721.2,220.1c0,101.8-82.5,184.2-184.2,184.2s-60.6-7.7-86.3-21.4c9.4,1.6,19,2.4,28.9,2.4,95,0,172-77,172-172s-71-165.9-160.8-171.6c14.8-3.8,30.3-5.9,46.2-5.9,101.8,0,184.2,82.5,184.2,184.2Z" opacity=".4"/>
          <path class="st14" d="M472.4,96.6c.2.1.4.2.6.3-.2-.1-.4-.2-.6-.3Z" fill="#babb83"/>
          <path class="st14" d="M473.9,97.4c.2.1.4.2.6.3-.2-.1-.4-.2-.6-.3Z" fill="#babb83"/>
          <path class="st14" d="M476.7,99.3c.1,0,.2.2.3.2-.1,0-.2-.2-.3-.2Z" fill="#babb83"/>
          <path class="st14" d="M478.3,100.5c0,0,.1.1.2.2,0,0-.1-.1-.2-.2Z" fill="#babb83"/>
          <path class="st14" d="M471,95.9c.2.1.4.2.6.3-.2-.1-.4-.2-.6-.3Z" fill="#babb83"/>
          <path class="st14" d="M475.3,98.3c.2.1.3.2.5.3-.2-.1-.3-.2-.5-.3Z" fill="#babb83"/>
          <path class="st14" d="M467.8,94.6c.3,0,.5.2.8.3-.3,0-.5-.2-.8-.3Z" fill="#babb83"/>
          <path class="st14" d="M462.6,93.2c.3,0,.6.1.8.2-.3,0-.6-.1-.8-.2Z" fill="#babb83"/>
          <path class="st14" d="M461,92.9c.3,0,.6,0,.9.1-.3,0-.6,0-.9-.1Z" fill="#babb83"/>
          <path class="st14" d="M469.5,95.2c.2,0,.4.2.6.3-.2,0-.4-.2-.6-.3Z" fill="#babb83"/>
          <path class="st14" d="M464.2,93.5c.3,0,.5.1.8.2-.3,0-.5-.1-.8-.2Z" fill="#babb83"/>
          <path class="st14" d="M465.8,93.9c.2,0,.5.1.7.2-.2,0-.5-.1-.7-.2Z" fill="#babb83"/>
          <path class="st14" d="M479.5,101.6c.1.1.2.2.4.3-.1-.1-.2-.2-.4-.3Z" fill="#babb83"/>
          <path class="st14" d="M482.9,105c.1.1.2.3.4.4-.1-.1-.2-.3-.4-.4Z" fill="#babb83"/>
          <path class="st14" d="M488.9,115.2c0,.2.1.4.2.5,0-.2-.1-.4-.2-.5Z" fill="#babb83"/>
          <path class="st14" d="M488.2,113.7c0,.2.2.4.2.5,0-.2-.2-.4-.2-.5Z" fill="#babb83"/>
          <path class="st14" d="M489.4,116.9c0,.2.1.3.1.5,0-.2,0-.3-.1-.5Z" fill="#babb83"/>
          <path class="st14" d="M487.6,112.2c0,.2.2.3.2.5,0-.2-.2-.3-.2-.5Z" fill="#babb83"/>
          <path class="st14" d="M490,118.8s0,0,0,0c0,0,0,0,0,0Z" fill="#babb83"/>
          <path class="st1" d="M462.2,106.3c-19.4,0-35.1,15.7-35.1,35.1s.3,4.9.8,7.3c6.4,8.6,16.6,14.1,28.2,14.1,19.4,0,35.1-15.7,35.1-35.1s-.3-4.9-.8-7.3c-6.4-8.6-16.6-14.1-28.2-14.1Z" fill="#d1d7ce"/>
          <path class="st14" d="M456,92.5c.3,0,.5,0,.8,0-.3,0-.5,0-.8,0-19.4,0-35.1,15.7-35.1,35.1s0,.3,0,.5c0-.2,0-.3,0-.5,0-19.4,15.7-35.1,35.1-35.1Z" fill="#babb83"/>
          <path class="st14" d="M483.9,106.4c0,.1.2.2.3.4,0-.1-.2-.2-.3-.4Z" fill="#babb83"/>
          <path class="st14" d="M459.3,92.7c.3,0,.6,0,.9,0-.3,0-.6,0-.9,0Z" fill="#babb83"/>
          <path class="st14" d="M481.8,103.8c.1.1.3.3.4.4-.1-.1-.3-.3-.4-.4Z" fill="#babb83"/>
          <path class="st14" d="M486.8,110.8c0,.1.2.3.2.4,0-.1-.2-.3-.2-.4Z" fill="#babb83"/>
          <path class="st14" d="M485.1,107.9s0,0,0,.1c0,0,0,0,0-.1Z" fill="#babb83"/>
          <path class="st14" d="M486,109.4c0,0,0,.2.1.2,0,0,0-.2-.1-.2Z" fill="#babb83"/>
          <path class="st14" d="M480.7,102.7c.1.1.3.3.4.4-.1-.1-.3-.3-.4-.4Z" fill="#babb83"/>
          <path class="st14" d="M422.6,138.5c0-.2-.1-.4-.2-.6,0,.2.1.4.2.6Z" fill="#babb83"/>
          <path class="st14" d="M422.1,136.9c0-.2-.1-.4-.2-.6,0,.2.1.4.2.6Z" fill="#babb83"/>
          <path class="st14" d="M423.7,141.4c0-.1-.1-.3-.2-.4,0,.1.1.3.2.4Z" fill="#babb83"/>
          <path class="st14" d="M421.6,134.8c0-.2,0-.4-.1-.6,0,.2,0,.4.1.6Z" fill="#babb83"/>
          <path class="st14" d="M421.3,133.3c0-.2,0-.5-.1-.7,0,.2,0,.5.1.7Z" fill="#babb83"/>
          <path class="st14" d="M426.9,147.4c0,0,0-.1-.1-.2,0,0,0,.1.1.2Z" fill="#babb83"/>
          <path class="st14" d="M426,146c0-.1-.1-.2-.2-.3,0,.1.1.2.2.3Z" fill="#babb83"/>
          <path class="st14" d="M421.1,131.7c0-.3,0-.5,0-.8,0,.3,0,.5,0,.8Z" fill="#babb83"/>
          <path class="st14" d="M424.4,143c0,0,0-.1,0-.2,0,0,0,.1,0,.2Z" fill="#babb83"/>
          <path class="st14" d="M425.2,144.6c0-.1-.1-.2-.2-.4,0,.1.1.2.2.4Z" fill="#babb83"/>
          <path class="st14" d="M423.1,140c0-.2-.1-.4-.2-.6,0,.2.1.4.2.6Z" fill="#babb83"/>
          <path class="st14" d="M457.6,92.6c.3,0,.6,0,.9,0-.3,0-.6,0-.9,0Z" fill="#babb83"/>
          <path class="st14" d="M420.9,130c0-.2,0-.5,0-.7,0,.2,0,.5,0,.7Z" fill="#babb83"/>
          <path class="st3" d="M486.2,109.7c.2.4.4.8.7,1.1-.2-.4-.4-.8-.7-1.1Z" fill="#9fa58d"/>
          <path class="st3" d="M425,144.3c-.2-.4-.4-.8-.6-1.2.2.4.4.8.6,1.2Z" fill="#9fa58d"/>
          <path class="st3" d="M487.1,111.2c.2.3.3.7.5,1-.2-.3-.3-.7-.5-1Z" fill="#9fa58d"/>
          <path class="st3" d="M463.4,93.3c.3,0,.5.1.8.2-.3,0-.5-.1-.8-.2Z" fill="#9fa58d"/>
          <path class="st3" d="M461.8,93c.3,0,.5,0,.8.1-.3,0-.5,0-.8-.1Z" fill="#9fa58d"/>
          <path class="st3" d="M484.2,106.7c.3.4.6.8.8,1.2-.3-.4-.6-.8-.8-1.2Z" fill="#9fa58d"/>
          <path class="st3" d="M424.3,142.9c-.2-.5-.4-1-.7-1.4.2.5.4,1,.7,1.4Z" fill="#9fa58d"/>
          <path class="st3" d="M456.8,92.5c.3,0,.6,0,.8,0-.3,0-.6,0-.8,0Z" fill="#9fa58d"/>
          <path class="st3" d="M483.2,105.5c.2.3.5.6.7.9-.2-.3-.5-.6-.7-.9Z" fill="#9fa58d"/>
          <path class="st3" d="M485.1,108c.3.5.6.9.9,1.4-.3-.5-.6-.9-.9-1.4Z" fill="#9fa58d"/>
          <path class="st3" d="M490.4,120.4c-.1-.5-.2-1-.4-1.5.1.5.2,1,.3,1.5,0,0,0,0,0,0Z" fill="#9fa58d"/>
          <path class="st3" d="M460.2,92.8c.3,0,.5,0,.8,0-.3,0-.5,0-.8,0Z" fill="#9fa58d"/>
          <path class="st3" d="M468.6,94.9c.3.1.6.2,1,.4-.3-.1-.6-.3-1-.4Z" fill="#9fa58d"/>
          <path class="st3" d="M489.6,117.3c.2.5.3,1,.4,1.5-.1-.5-.3-1-.4-1.5Z" fill="#9fa58d"/>
          <path class="st3" d="M488.5,114.2c.1.3.3.7.4,1-.1-.3-.3-.7-.4-1Z" fill="#9fa58d"/>
          <path class="st3" d="M426.8,147.2c-.2-.4-.5-.7-.7-1.1.2.4.5.8.7,1.1Z" fill="#9fa58d"/>
          <path class="st3" d="M487.8,112.7c.1.3.3.6.4,1-.1-.3-.3-.6-.4-1Z" fill="#9fa58d"/>
          <path class="st3" d="M425.8,145.7c-.2-.3-.4-.7-.6-1,.2.4.4.7.6,1Z" fill="#9fa58d"/>
          <path class="st3" d="M489.1,115.8c.1.4.3.7.4,1.1-.1-.4-.2-.7-.4-1.1Z" fill="#9fa58d"/>
          <path class="st3" d="M427.8,148.7s0,0,0,0c-.3-.4-.6-.9-.9-1.3.3.4.6.9.9,1.3Z" fill="#9fa58d"/>
          <path class="st3" d="M474.4,97.8c.3.2.6.4.8.5-.3-.2-.6-.4-.8-.5Z" fill="#9fa58d"/>
          <path class="st3" d="M473.1,96.9c.3.2.5.3.8.5-.3-.2-.5-.3-.8-.5Z" fill="#9fa58d"/>
          <path class="st3" d="M465,93.7c.3,0,.6.2.8.2-.3,0-.5-.2-.8-.2Z" fill="#9fa58d"/>
          <path class="st3" d="M423.5,141c-.1-.3-.3-.7-.4-1,.1.3.3.7.4,1Z" fill="#9fa58d"/>
          <path class="st3" d="M466.6,94.1c.4.1.8.3,1.3.4-.4-.1-.8-.3-1.3-.4Z" fill="#9fa58d"/>
          <path class="st3" d="M421.9,136.3c-.1-.5-.2-1-.3-1.5.1.5.2,1,.3,1.5Z" fill="#9fa58d"/>
          <path class="st3" d="M421,130.9c0-.3,0-.6,0-.9,0,.3,0,.6,0,.9Z" fill="#9fa58d"/>
          <path class="st3" d="M470.2,95.5c.3.1.6.2.8.4-.3-.1-.6-.3-.8-.4Z" fill="#9fa58d"/>
          <path class="st3" d="M421.2,132.5c0-.3,0-.6-.1-.9,0,.3,0,.6.1.9Z" fill="#9fa58d"/>
          <path class="st3" d="M471.6,96.2c.3.1.5.3.8.4-.3-.1-.5-.3-.8-.4Z" fill="#9fa58d"/>
          <path class="st3" d="M475.8,98.6c.3.2.6.5,1,.7-.3-.2-.6-.5-1-.7Z" fill="#9fa58d"/>
          <path class="st3" d="M458.5,92.6c.3,0,.5,0,.8,0-.3,0-.5,0-.8,0Z" fill="#9fa58d"/>
          <path class="st3" d="M422.9,139.4c-.1-.3-.2-.6-.3-.9,0,.3.2.6.3.9Z" fill="#9fa58d"/>
          <path class="st3" d="M481.1,103.1c.2.2.5.5.7.8-.2-.3-.5-.5-.7-.8Z" fill="#9fa58d"/>
          <path class="st3" d="M482.2,104.3c.2.3.5.5.7.8-.2-.3-.5-.5-.7-.8Z" fill="#9fa58d"/>
          <path class="st3" d="M477.1,99.5c.4.3.8.6,1.3,1-.4-.3-.8-.7-1.3-1Z" fill="#9fa58d"/>
          <path class="st3" d="M479.9,101.9c.3.2.5.5.8.8-.3-.3-.5-.5-.8-.8Z" fill="#9fa58d"/>
          <path class="st3" d="M478.5,100.7c.3.3.7.6,1,.9-.3-.3-.7-.6-1-.9Z" fill="#9fa58d"/>
          <path class="st3" d="M422.4,137.8c0-.3-.2-.6-.3-.9,0,.3.2.6.3.9Z" fill="#9fa58d"/>
          <path class="st3" d="M420.9,129.3c0-.4,0-.8,0-1.1,0,.4,0,.8,0,1.1Z" fill="#9fa58d"/>
          <path class="st3" d="M421.5,134.2c0-.3-.1-.6-.2-1,0,.3.1.7.2,1Z" fill="#9fa58d"/>
          <path class="st10" d="M462.2,106.3c11.5,0,21.8,5.5,28.2,14.1-.1-.5-.2-1-.3-1.5,0,0,0,0,0,0-.1-.5-.3-1-.4-1.5,0-.2-.1-.3-.1-.5-.1-.4-.2-.7-.4-1.1,0-.2-.1-.4-.2-.5-.1-.3-.3-.7-.4-1,0-.2-.2-.4-.2-.5-.1-.3-.3-.6-.4-1,0-.2-.2-.3-.2-.5-.2-.3-.3-.7-.5-1,0-.1-.2-.3-.2-.4-.2-.4-.4-.8-.7-1.1,0,0,0-.2-.1-.2-.3-.5-.6-.9-.9-1.4,0,0,0,0,0-.1-.3-.4-.6-.8-.8-1.2,0-.1-.2-.2-.3-.4-.2-.3-.5-.6-.7-.9-.1-.1-.2-.3-.4-.4-.2-.3-.5-.5-.7-.8-.1-.1-.3-.3-.4-.4-.2-.3-.5-.5-.7-.8-.1-.1-.3-.3-.4-.4-.3-.3-.5-.5-.8-.8-.1-.1-.2-.2-.4-.3-.3-.3-.7-.6-1-.9,0,0-.1-.1-.2-.2-.4-.3-.8-.7-1.3-1-.1,0-.2-.2-.3-.2-.3-.2-.6-.5-1-.7-.2-.1-.3-.2-.5-.3-.3-.2-.6-.4-.8-.5-.2-.1-.4-.2-.6-.3-.3-.2-.5-.3-.8-.5-.2-.1-.4-.2-.6-.3-.3-.1-.5-.3-.8-.4-.2-.1-.4-.2-.6-.3-.3-.1-.6-.3-.8-.4-.2,0-.4-.2-.6-.3-.3-.1-.6-.3-1-.4-.3,0-.5-.2-.8-.3-.4-.1-.8-.3-1.3-.4-.2,0-.5-.1-.7-.2-.3,0-.5-.2-.8-.2-.3,0-.5-.1-.8-.2-.3,0-.5-.1-.8-.2-.3,0-.6-.1-.8-.2-.3,0-.5,0-.8-.1-.3,0-.6,0-.9-.1-.3,0-.5,0-.8,0-.3,0-.6,0-.9,0-.3,0-.5,0-.8,0-.3,0-.6,0-.9,0-.3,0-.6,0-.8,0-.3,0-.5,0-.8,0-19.4,0-35.1,15.7-35.1,35.1s0,.3,0,.5c0,.4,0,.8,0,1.1,0,.2,0,.5,0,.7,0,.3,0,.6,0,.9,0,.3,0,.5,0,.8,0,.3,0,.6.1.9,0,.2,0,.5.1.7,0,.3.1.7.2,1,0,.2,0,.4.1.6.1.5.2,1,.3,1.5,0,.2.1.4.2.6,0,.3.2.6.3.9,0,.2.1.4.2.6,0,.3.2.6.3.9,0,.2.1.4.2.6.1.3.3.7.4,1,0,.1.1.3.2.4.2.5.4,1,.7,1.4,0,0,0,.1,0,.2.2.4.4.8.6,1.2,0,.1.1.2.2.4.2.4.4.7.6,1,0,.1.1.2.2.3.2.4.5.8.7,1.1,0,0,0,.1.1.2.3.4.6.9.9,1.3-.5-2.3-.8-4.8-.8-7.3,0-19.4,15.7-35.1,35.1-35.1Z" fill="#a8b7a3"/>
          <path class="st14" d="M667.1,251.8c.2,0,.5.2.7.3-.2,0-.5-.2-.7-.3Z" fill="#babb83"/>
          <path class="st14" d="M672.5,254.4c.2.1.3.2.5.3-.2-.1-.3-.2-.5-.3Z" fill="#babb83"/>
          <path class="st14" d="M677.5,258.1c.1.1.2.2.3.3-.1-.1-.2-.2-.3-.3Z" fill="#babb83"/>
          <path class="st14" d="M676.5,257.2c0,0,.1.1.2.2,0,0-.1-.1-.2-.2Z" fill="#babb83"/>
          <path class="st14" d="M685.3,268.9c0,.2.1.3.2.5,0-.2-.1-.3-.2-.5Z" fill="#babb83"/>
          <path class="st14" d="M668.6,252.4c.2,0,.4.2.6.2-.2,0-.4-.2-.6-.2Z" fill="#babb83"/>
          <path class="st14" d="M671.2,253.7c.2,0,.4.2.5.3-.2-.1-.4-.2-.5-.3Z" fill="#babb83"/>
          <path class="st14" d="M669.9,253c.2,0,.4.2.6.3-.2,0-.4-.2-.6-.3Z" fill="#babb83"/>
          <path class="st14" d="M673.7,255.2c.1,0,.3.2.4.3-.1-.1-.3-.2-.4-.3Z" fill="#babb83"/>
          <path class="st14" d="M683.4,265.1c0,0,0,.1.1.2,0,0,0-.1-.1-.2Z" fill="#babb83"/>
          <path class="st14" d="M684.1,266.3c0,.1.1.3.2.4,0-.1-.1-.3-.2-.4Z" fill="#babb83"/>
          <path class="st14" d="M682.5,263.8s0,0,0,0c0,0,0,0,0,0Z" fill="#babb83"/>
          <path class="st14" d="M684.7,267.6c0,.2.1.3.2.5,0-.2-.1-.3-.2-.5Z" fill="#babb83"/>
          <path class="st14" d="M680.5,261.2c.1.1.2.2.3.4-.1-.1-.2-.3-.3-.4Z" fill="#babb83"/>
          <path class="st14" d="M679.6,260.1c.1.1.2.3.3.4-.1-.1-.2-.3-.3-.4Z" fill="#babb83"/>
          <path class="st14" d="M678.6,259.1c.1.1.2.2.4.4-.1-.1-.2-.2-.4-.4Z" fill="#babb83"/>
          <path class="st14" d="M681.5,262.4c0,.1.2.2.3.3,0-.1-.2-.2-.3-.3Z" fill="#babb83"/>
          <path class="st14" d="M675,256.1c0,0,.2.1.3.2,0,0-.2-.1-.3-.2Z" fill="#babb83"/>
          <path class="st14" d="M627.1,292.4c0-.2-.1-.3-.2-.5,0,.2.1.3.2.5Z" fill="#babb83"/>
          <path class="st14" d="M626.6,291.1c0-.2-.1-.4-.2-.6,0,.2.1.4.2.6Z" fill="#babb83"/>
          <path class="st14" d="M627.6,293.7c0-.1-.1-.3-.2-.4,0,.1,0,.3.2.4Z" fill="#babb83"/>
          <path class="st14" d="M625.7,287.8c0-.2,0-.4,0-.5,0,.2,0,.4,0,.5Z" fill="#babb83"/>
          <path class="st14" d="M626.2,289.7c0-.2-.1-.4-.1-.5,0,.2,0,.4.1.5Z" fill="#babb83"/>
          <path class="st14" d="M629.7,297.9c0-.1-.1-.2-.2-.3,0,.1.1.2.2.3Z" fill="#babb83"/>
          <path class="st14" d="M628.2,295.2c0,0,0-.1,0-.2,0,0,0,.1,0,.2Z" fill="#babb83"/>
          <path class="st14" d="M629,296.6c0-.1-.1-.2-.2-.3,0,.1.1.2.2.3Z" fill="#babb83"/>
          <path class="st14" d="M662.4,250.6c.2,0,.5,0,.7.1-.2,0-.5-.1-.7-.1Z" fill="#babb83"/>
          <path class="st14" d="M665.3,251.3c.2,0,.4.1.7.2-.2,0-.4-.1-.7-.2Z" fill="#babb83"/>
          <path class="st14" d="M660.9,250.3c.3,0,.5,0,.8.1-.3,0-.5,0-.8-.1Z" fill="#babb83"/>
          <path class="st14" d="M659.5,250.1c.3,0,.5,0,.8,0-.3,0-.5,0-.8,0Z" fill="#babb83"/>
          <path class="st14" d="M625.5,286.4c0-.2,0-.4,0-.7,0,.2,0,.4,0,.7Z" fill="#babb83"/>
          <path class="st14" d="M663.9,250.9c.2,0,.5.1.7.2-.2,0-.5-.1-.7-.2Z" fill="#babb83"/>
          <path class="st14" d="M625.3,285c0-.2,0-.4,0-.7,0,.2,0,.5,0,.7Z" fill="#babb83"/>
          <path class="st14" d="M658,250c.3,0,.5,0,.8,0-.3,0-.5,0-.8,0Z" fill="#babb83"/>
          <path class="st14" d="M625.2,283.5c0-.2,0-.4,0-.7,0,.2,0,.4,0,.7Z" fill="#babb83"/>
          <path class="st14" d="M630.5,299c0,0,0-.1-.1-.2,0,0,0,.1.1.2Z" fill="#babb83"/>
          <path class="st14" d="M686.4,271.8c0,.1,0,.3.1.4,0-.1,0-.3-.1-.4Z" fill="#babb83"/>
          <path class="st1" d="M662.1,262.3c-17.4,0-31.4,14.1-31.4,31.4s.2,4.4.7,6.5c5.7,7.7,14.9,12.6,25.2,12.6,17.4,0,31.4-14.1,31.4-31.4s-.2-4.4-.7-6.5c-5.7-7.7-14.9-12.6-25.2-12.6Z" fill="#d1d7ce"/>
          <path class="st14" d="M686.9,273.5s0,0,0,0c0,0,0,0,0,0Z" fill="#babb83"/>
          <path class="st14" d="M656.5,250c.2,0,.5,0,.7,0-.2,0-.5,0-.7,0-9.2,0-17.5,4-23.3,10.3,5.7-6.3,14-10.3,23.3-10.3Z" fill="#babb83"/>
          <path class="st14" d="M633.2,260.3c-5.1,5.6-8.2,13-8.2,21.1s0,.3,0,.4c0-.1,0-.3,0-.4,0-8.1,3.1-15.5,8.2-21.1Z" fill="#babb83"/>
          <path class="st14" d="M685.9,270.3c0,.2.1.3.2.5,0-.2-.1-.3-.2-.5Z" fill="#babb83"/>
          <path class="st3" d="M660.2,250.2c.2,0,.5,0,.7,0-.2,0-.5,0-.7,0Z" fill="#9fa58d"/>
          <path class="st3" d="M657.2,250c.3,0,.5,0,.8,0-.3,0-.5,0-.8,0Z" fill="#9fa58d"/>
          <path class="st3" d="M670.5,253.3c.2.1.5.2.7.4-.2-.1-.5-.2-.7-.4Z" fill="#9fa58d"/>
          <path class="st3" d="M625.1,282.9c0-.3,0-.7,0-1,0,.3,0,.7,0,1Z" fill="#9fa58d"/>
          <path class="st3" d="M667.7,252.1c.3.1.6.2.9.3-.3-.1-.6-.2-.9-.3Z" fill="#9fa58d"/>
          <path class="st3" d="M669.2,252.7c.3.1.5.2.7.3-.2-.1-.5-.2-.7-.3Z" fill="#9fa58d"/>
          <path class="st3" d="M666,251.4c.4.1.7.2,1.1.4-.4-.1-.7-.3-1.1-.4Z" fill="#9fa58d"/>
          <path class="st3" d="M664.6,251c.2,0,.5.1.7.2-.2,0-.5-.1-.7-.2Z" fill="#9fa58d"/>
          <path class="st3" d="M661.7,250.4c.2,0,.5,0,.7.1-.2,0-.5,0-.7-.1Z" fill="#9fa58d"/>
          <path class="st3" d="M663.1,250.7c.2,0,.5.1.7.2-.2,0-.5-.1-.7-.2Z" fill="#9fa58d"/>
          <path class="st3" d="M658.8,250.1c.2,0,.5,0,.7,0-.2,0-.5,0-.7,0Z" fill="#9fa58d"/>
          <path class="st3" d="M628.2,295c-.2-.4-.4-.9-.6-1.3.2.4.4.9.6,1.3Z" fill="#9fa58d"/>
          <path class="st3" d="M628.8,296.3c-.2-.4-.4-.7-.6-1.1.2.4.4.7.6,1.1Z" fill="#9fa58d"/>
          <path class="st3" d="M631.3,300.2s0,0,0,0c-.3-.4-.6-.8-.8-1.2.3.4.5.8.8,1.2Z" fill="#9fa58d"/>
          <path class="st3" d="M627.4,293.4c-.1-.3-.2-.6-.4-.9.1.3.2.6.4.9Z" fill="#9fa58d"/>
          <path class="st3" d="M629.5,297.5c-.2-.3-.4-.6-.5-.9.2.3.4.6.5.9Z" fill="#9fa58d"/>
          <path class="st3" d="M626,289.2c-.1-.4-.2-.9-.3-1.3,0,.4.2.9.3,1.3Z" fill="#9fa58d"/>
          <path class="st3" d="M625.4,285.8c0-.3,0-.5,0-.8,0,.3,0,.5,0,.8Z" fill="#9fa58d"/>
          <path class="st3" d="M625.6,287.3c0-.3-.1-.6-.2-.9,0,.3.1.6.2.9Z" fill="#9fa58d"/>
          <path class="st3" d="M626.4,290.5c0-.3-.2-.6-.2-.8,0,.3.2.6.2.8Z" fill="#9fa58d"/>
          <path class="st3" d="M626.9,291.9c0-.3-.2-.5-.3-.8,0,.3.2.5.3.8Z" fill="#9fa58d"/>
          <path class="st3" d="M685.5,269.4c.1.3.2.6.3.9-.1-.3-.2-.6-.3-.9Z" fill="#9fa58d"/>
          <path class="st3" d="M625.2,284.3c0-.3,0-.5,0-.8,0,.3,0,.5,0,.8Z" fill="#9fa58d"/>
          <path class="st3" d="M630.4,298.9c-.2-.3-.4-.7-.6-1,.2.3.4.7.6,1Z" fill="#9fa58d"/>
          <path class="st3" d="M674.2,255.4c.3.2.6.4.9.6-.3-.2-.6-.4-.9-.6Z" fill="#9fa58d"/>
          <path class="st3" d="M677.9,258.4c.2.2.5.4.7.7-.2-.2-.5-.5-.7-.7Z" fill="#9fa58d"/>
          <path class="st3" d="M681.7,262.7c.3.3.5.7.8,1.1-.2-.4-.5-.7-.8-1.1Z" fill="#9fa58d"/>
          <path class="st3" d="M675.3,256.3c.4.3.8.6,1.1.9-.4-.3-.7-.6-1.1-.9Z" fill="#9fa58d"/>
          <path class="st3" d="M678.9,259.4c.2.2.4.4.6.7-.2-.2-.4-.5-.6-.7Z" fill="#9fa58d"/>
          <path class="st3" d="M680.9,261.6c.2.3.4.5.6.8-.2-.3-.4-.5-.6-.8Z" fill="#9fa58d"/>
          <path class="st3" d="M676.7,257.3c.3.3.6.5.9.8-.3-.3-.6-.5-.9-.8Z" fill="#9fa58d"/>
          <path class="st3" d="M679.9,260.5c.2.2.4.5.6.7-.2-.2-.4-.5-.6-.7Z" fill="#9fa58d"/>
          <path class="st3" d="M687.3,274.9c0-.5-.2-.9-.3-1.4.1.4.2.9.3,1.3,0,0,0,0,0,0Z" fill="#9fa58d"/>
          <path class="st3" d="M686.1,270.8c.1.3.2.6.3,1-.1-.3-.2-.7-.3-1Z" fill="#9fa58d"/>
          <path class="st3" d="M685,268.1c.1.3.3.6.4.9-.1-.3-.3-.6-.4-.9Z" fill="#9fa58d"/>
          <path class="st3" d="M671.8,254c.2.1.5.3.7.4-.2-.1-.5-.3-.7-.4Z" fill="#9fa58d"/>
          <path class="st3" d="M684.3,266.7c.2.3.3.6.5.9-.1-.3-.3-.6-.5-.9Z" fill="#9fa58d"/>
          <path class="st3" d="M683.5,265.3c.2.3.4.7.6,1-.2-.3-.4-.7-.6-1Z" fill="#9fa58d"/>
          <path class="st3" d="M686.5,272.2c.1.4.3.9.4,1.4-.1-.5-.2-.9-.4-1.4Z" fill="#9fa58d"/>
          <path class="st3" d="M682.6,263.9c.3.4.5.8.8,1.2-.3-.4-.5-.8-.8-1.2Z" fill="#9fa58d"/>
          <path class="st3" d="M673,254.7c.3.2.5.3.7.5-.2-.2-.5-.3-.7-.5Z" fill="#9fa58d"/>
          <path class="st10" d="M662.1,262.3c10.3,0,19.5,5,25.2,12.6,0-.5-.2-.9-.3-1.3,0,0,0,0,0,0-.1-.5-.2-.9-.4-1.4,0-.1,0-.3-.1-.4-.1-.3-.2-.7-.3-1,0-.2-.1-.3-.2-.5-.1-.3-.2-.6-.3-.9,0-.2-.1-.3-.2-.5-.1-.3-.3-.6-.4-.9,0-.2-.1-.3-.2-.5-.1-.3-.3-.6-.5-.9,0-.1-.1-.3-.2-.4-.2-.3-.4-.7-.6-1,0,0,0-.1-.1-.2-.3-.4-.5-.8-.8-1.2,0,0,0,0,0,0-.2-.4-.5-.7-.8-1.1,0-.1-.2-.2-.3-.3-.2-.3-.4-.5-.6-.8-.1-.1-.2-.3-.3-.4-.2-.2-.4-.5-.6-.7-.1-.1-.2-.3-.3-.4-.2-.2-.4-.5-.6-.7-.1-.1-.2-.2-.4-.4-.2-.2-.5-.5-.7-.7-.1-.1-.2-.2-.3-.3-.3-.3-.6-.5-.9-.8,0,0-.1-.1-.2-.2-.4-.3-.7-.6-1.1-.9,0,0-.2-.1-.3-.2-.3-.2-.6-.4-.9-.6-.1-.1-.3-.2-.4-.3-.2-.2-.5-.3-.7-.5-.2-.1-.3-.2-.5-.3-.2-.1-.5-.3-.7-.4-.2-.1-.4-.2-.5-.3-.2-.1-.5-.2-.7-.4-.2,0-.4-.2-.6-.3-.2-.1-.5-.2-.7-.3-.2,0-.4-.2-.6-.2-.3-.1-.6-.2-.9-.3-.2,0-.5-.2-.7-.3-.4-.1-.7-.3-1.1-.4-.2,0-.4-.1-.7-.2-.2,0-.5-.1-.7-.2-.2,0-.5-.1-.7-.2-.2,0-.5-.1-.7-.2-.2,0-.5-.1-.7-.1-.2,0-.5,0-.7-.1-.3,0-.5,0-.8-.1-.2,0-.5,0-.7,0-.3,0-.5,0-.8,0-.2,0-.5,0-.7,0-.3,0-.5,0-.8,0-.3,0-.5,0-.8,0-.2,0-.5,0-.7,0-9.2,0-17.5,4-23.3,10.3-5.1,5.6-8.2,13-8.2,21.1s0,.3,0,.4c0,.3,0,.7,0,1,0,.2,0,.4,0,.7,0,.3,0,.5,0,.8,0,.2,0,.5,0,.7,0,.3,0,.5,0,.8,0,.2,0,.4,0,.7,0,.3.1.6.2.9,0,.2,0,.4,0,.5,0,.4.2.9.3,1.3,0,.2,0,.4.1.5,0,.3.2.6.2.8,0,.2.1.4.2.6,0,.3.2.5.3.8,0,.2.1.3.2.5.1.3.2.6.4.9,0,.1,0,.3.2.4.2.4.4.9.6,1.3,0,0,0,.1,0,.2.2.4.4.7.6,1.1,0,.1.1.2.2.3.2.3.4.6.5.9,0,.1.1.2.2.3.2.3.4.7.6,1,0,0,0,.1.1.2.3.4.5.8.8,1.2-.4-2.1-.7-4.3-.7-6.5,0-17.4,14.1-31.4,31.4-31.4Z" fill="#a8b7a3"/>
          <path class="st14" d="M404.2,297.6c-.2-.4-.3-.8-.5-1.2.1.4.3.8.5,1.2Z" fill="#babb83"/>
          <path class="st14" d="M435.2,280.1c.2.3.5.7.7,1.1-.2-.4-.5-.7-.7-1.1Z" fill="#babb83"/>
          <path class="st14" d="M404.8,298.8c-.2-.3-.3-.7-.5-1,.2.3.3.7.5,1Z" fill="#babb83"/>
          <path class="st14" d="M422.2,272.7c-.5,0-1,0-1.5,0-4.3,0-8.3,1.5-11.4,4.1,3.1-2.6,7.1-4.1,11.4-4.1s1,0,1.5,0Z" fill="#babb83"/>
          <path class="st14" d="M434.3,278.9c.3.3.6.7.8,1-.3-.3-.5-.7-.8-1Z" fill="#babb83"/>
          <path class="st14" d="M428.3,274.3c.4.2.8.4,1.2.6-.4-.2-.8-.4-1.2-.6Z" fill="#babb83"/>
          <path class="st14" d="M437.9,285.5c.1.4.2.9.3,1.3,0-.4-.2-.9-.3-1.3Z" fill="#babb83"/>
          <path class="st14" d="M436.8,282.6c.2.4.4.8.5,1.2-.2-.4-.3-.8-.5-1.2Z" fill="#babb83"/>
          <path class="st14" d="M406.3,301.2c-.2-.3-.4-.6-.6-.9.2.3.4.6.6.9Z" fill="#babb83"/>
          <path class="st14" d="M405.5,300.1c-.2-.3-.4-.7-.6-1,.2.4.4.7.6,1Z" fill="#babb83"/>
          <path class="st14" d="M403.3,294.9c-.1-.4-.2-.8-.3-1.2,0,.4.2.8.3,1.2Z" fill="#babb83"/>
          <path class="st14" d="M436,281.3c.2.4.4.8.6,1.2-.2-.4-.4-.8-.6-1.2Z" fill="#babb83"/>
          <path class="st14" d="M403.7,296.2c-.1-.4-.3-.8-.4-1.2.1.4.2.8.4,1.2Z" fill="#babb83"/>
          <path class="st14" d="M429.7,275.1c.4.2.8.5,1.1.7-.4-.2-.7-.5-1.1-.7Z" fill="#babb83"/>
          <path class="st1" d="M423.9,279.7c-9.9,0-17.9,8-17.9,17.9s.1,2.5.4,3.7c3.3,4.4,8.5,7.2,14.4,7.2,9.9,0,17.9-8,17.9-17.9s-.1-2.5-.4-3.7c-3.3-4.4-8.5-7.2-14.4-7.2Z" fill="#d1d7ce"/>
          <path class="st14" d="M433.3,277.8c.3.3.6.6.9.9-.3-.3-.6-.6-.9-.9Z" fill="#babb83"/>
          <path class="st14" d="M437.4,284.1c.2.4.3.8.4,1.3-.1-.4-.3-.8-.4-1.3Z" fill="#babb83"/>
          <path class="st14" d="M425.5,273.3c.9.3,1.8.6,2.7,1-.9-.4-1.7-.7-2.7-1Z" fill="#babb83"/>
          <path class="st14" d="M424,273c.5,0,.9.2,1.4.3-.4-.1-.9-.2-1.4-.3Z" fill="#babb83"/>
          <path class="st14" d="M403,293.5c0-.4-.1-.9-.2-1.3,0,.4,0,.9.2,1.3Z" fill="#babb83"/>
          <path class="st14" d="M432.1,276.7c.3.3.7.6,1,.9-.3-.3-.7-.6-1-.9Z" fill="#babb83"/>
          <path class="st14" d="M431,275.9c.4.3.7.5,1.1.8-.3-.3-.7-.5-1.1-.8Z" fill="#babb83"/>
          <path class="st14" d="M422.4,272.7c.5,0,.9.1,1.4.2-.5,0-.9-.1-1.4-.2Z" fill="#babb83"/>
          <path class="st14" d="M408,277.9s0,0,0,0c0,0,0,0,0,0Z" fill="#babb83"/>
          <path class="st14" d="M406.6,279.4c-2.4,3.1-3.9,6.9-3.9,11.1s0,.9,0,1.4c0-.5,0-.9,0-1.4,0-4.2,1.5-8.1,3.9-11.1Z" fill="#babb83"/>
          <path class="st3" d="M406.6,279.4c.4-.5.9-1.1,1.4-1.5-.5.5-.9,1-1.4,1.5Z" fill="#9fa58d"/>
          <path class="st3" d="M429.5,275c0,0,.1,0,.2.1,0,0-.1,0-.2-.1Z" fill="#9fa58d"/>
          <path class="st3" d="M406.3,301.3s0,0,0,0c0,0,0,0,0,0,0,0,0,0,0,0Z" fill="#9fa58d"/>
          <path class="st3" d="M422.2,272.7c0,0,.1,0,.2,0,0,0-.1,0-.2,0Z" fill="#9fa58d"/>
          <path class="st3" d="M423.8,272.9c0,0,.1,0,.2,0,0,0-.1,0-.2,0Z" fill="#9fa58d"/>
          <path class="st3" d="M428.1,274.3c0,0,.1,0,.2,0,0,0-.1,0-.2,0Z" fill="#9fa58d"/>
          <path class="st3" d="M408.1,277.8c.4-.4.8-.7,1.2-1.1-.4.3-.8.7-1.2,1.1Z" fill="#9fa58d"/>
          <path class="st3" d="M403.3,295s0,0,0,0c0,0,0,0,0,0Z" fill="#9fa58d"/>
          <path class="st3" d="M402.8,292.2c0,0,0-.1,0-.2,0,0,0,.1,0,.2Z" fill="#9fa58d"/>
          <path class="st3" d="M404.3,297.8s0,0,0-.1c0,0,0,0,0,.1Z" fill="#9fa58d"/>
          <path class="st3" d="M404.9,299c0,0,0-.1-.1-.2,0,0,0,.1.1.2Z" fill="#9fa58d"/>
          <path class="st3" d="M403,293.7c0,0,0-.1,0-.2,0,0,0,.1,0,.2Z" fill="#9fa58d"/>
          <path class="st3" d="M405.6,300.3c0,0-.1-.2-.2-.3,0,0,.1.2.2.3Z" fill="#9fa58d"/>
          <path class="st3" d="M425.3,273.3s0,0,.1,0c0,0,0,0-.1,0Z" fill="#9fa58d"/>
          <path class="st3" d="M436.7,282.4c0,0,0,.1.1.2,0,0,0-.2-.1-.2Z" fill="#9fa58d"/>
          <path class="st3" d="M435.1,279.9c0,0,0,.1.1.2,0,0,0-.1-.1-.2Z" fill="#9fa58d"/>
          <path class="st3" d="M436,281.1s0,0,0,.1c0,0,0,0,0-.1Z" fill="#9fa58d"/>
          <path class="st3" d="M437.3,283.8c0,0,0,.2,0,.2,0,0,0-.2,0-.2Z" fill="#9fa58d"/>
          <path class="st3" d="M437.9,285.3c0,0,0,.1,0,.2,0,0,0-.1,0-.2Z" fill="#9fa58d"/>
          <path class="st3" d="M432,276.7s0,0,0,0c0,0,0,0,0,0Z" fill="#9fa58d"/>
          <path class="st3" d="M430.8,275.8c0,0,0,0,.1.1,0,0,0,0-.1-.1Z" fill="#9fa58d"/>
          <path class="st3" d="M438.3,286.9s0,0,0,0c0,0,0,0,0,0,0,0,0,0,0,0Z" fill="#9fa58d"/>
          <path class="st3" d="M434.1,278.7c0,0,.1.1.2.2,0,0-.1-.1-.2-.2Z" fill="#9fa58d"/>
          <path class="st3" d="M433.1,277.6c0,0,.1.1.2.2,0,0-.1-.1-.2-.2Z" fill="#9fa58d"/>
          <path class="st3" d="M403.8,296.5c0,0,0-.2,0-.2,0,0,0,.2,0,.2Z" fill="#9fa58d"/>
          <path class="st10" d="M423.9,279.7c5.9,0,11.1,2.8,14.4,7.2,0,0,0,0,0,0,0-.4-.2-.9-.3-1.3,0,0,0-.1,0-.2-.1-.4-.3-.8-.4-1.3,0,0,0-.2,0-.2-.2-.4-.3-.8-.5-1.2,0,0,0-.2-.1-.2-.2-.4-.4-.8-.6-1.2,0,0,0,0,0-.1-.2-.4-.5-.7-.7-1.1,0,0,0-.1-.1-.2-.3-.3-.5-.7-.8-1,0,0-.1-.1-.2-.2-.3-.3-.6-.6-.9-.9,0,0-.1-.1-.2-.2-.3-.3-.7-.6-1-.9,0,0,0,0,0,0-.3-.3-.7-.5-1.1-.8,0,0,0,0-.1-.1-.4-.2-.7-.5-1.1-.7,0,0-.1,0-.2-.1-.4-.2-.8-.4-1.2-.6,0,0-.1,0-.2,0-.9-.4-1.7-.7-2.7-1,0,0,0,0-.1,0-.4-.1-.9-.2-1.4-.3,0,0-.1,0-.2,0-.5,0-.9-.1-1.4-.2,0,0-.1,0-.2,0-.5,0-1,0-1.5,0-4.3,0-8.3,1.5-11.4,4.1-.4.3-.8.7-1.2,1.1,0,0,0,0,0,0-.5.5-.9,1-1.4,1.5-2.4,3.1-3.9,6.9-3.9,11.1s0,.9,0,1.4c0,0,0,.1,0,.2,0,.4,0,.9.2,1.3,0,0,0,.1,0,.2,0,.4.2.8.3,1.2,0,0,0,0,0,0,.1.4.2.8.4,1.2,0,0,0,.2,0,.2.1.4.3.8.5,1.2,0,0,0,0,0,.1.2.3.3.7.5,1,0,0,0,.1.1.2.2.4.4.7.6,1,0,0,.1.2.2.3.2.3.4.6.6.9,0,0,0,0,0,0-.3-1.2-.4-2.4-.4-3.7,0-9.9,8-17.9,17.9-17.9Z" fill="#a8b7a3"/>
          <path class="st1" d="M660.6,148.6c0,2.3.2,4.5.7,6.6,5.9,7.8,15.2,12.9,25.8,12.9s17.5-3.9,23.4-10.1c-5.3-14.8-12.4-28.7-21.1-41.4-16.2,1.7-28.7,15.3-28.7,32Z" fill="#d1d7ce"/>
          <path class="st14" d="M680.4,104.6h0c-5.9,1.2-11.1,4.1-15.3,8,4.2-3.9,9.5-6.8,15.3-8Z" fill="#babb83"/>
          <path class="st14" d="M660.5,154c0,0,0-.1-.1-.2,0,0,0,.1.1.2Z" fill="#babb83"/>
          <path class="st14" d="M656.1,144.5c0-.2-.1-.4-.1-.5,0,.2,0,.4.1.5Z" fill="#babb83"/>
          <path class="st14" d="M657,147.3c0-.2-.1-.4-.2-.5,0,.2.1.4.2.5Z" fill="#babb83"/>
          <path class="st14" d="M656.5,145.9c0-.2-.1-.4-.2-.6,0,.2.1.4.2.6Z" fill="#babb83"/>
          <path class="st14" d="M655.6,142.6c0-.2,0-.4-.1-.5,0,.2,0,.4.1.5Z" fill="#babb83"/>
          <path class="st14" d="M659.7,152.8c0-.1-.1-.2-.2-.3,0,.1.1.2.2.3Z" fill="#babb83"/>
          <path class="st14" d="M657.5,148.6c0-.1-.1-.3-.2-.4,0,.1.1.3.2.4Z" fill="#babb83"/>
          <path class="st14" d="M655.4,141.1c0-.2,0-.4,0-.7,0,.2,0,.4,0,.7Z" fill="#babb83"/>
          <path class="st14" d="M658.2,150.1c0,0,0-.1,0-.2,0,0,0,.1,0,.2Z" fill="#babb83"/>
          <path class="st14" d="M659,151.5c0-.1-.1-.2-.2-.3,0,.1.1.2.2.3Z" fill="#babb83"/>
          <path class="st14" d="M655,138.1c0-.2,0-.4,0-.7,0,.2,0,.4,0,.7Z" fill="#babb83"/>
          <path class="st14" d="M663.1,114.7c-5,5.7-8.1,13.1-8.1,21.3s0,.3,0,.4c0-.1,0-.3,0-.4,0-8.2,3.1-15.6,8.1-21.3Z" fill="#babb83"/>
          <path class="st14" d="M655.2,139.7c0-.2,0-.5,0-.7,0,.2,0,.5,0,.7Z" fill="#babb83"/>
          <path class="st3" d="M658.8,151.2c-.2-.4-.4-.7-.6-1.1.2.4.4.8.6,1.1Z" fill="#9fa58d"/>
          <path class="st3" d="M658.1,149.9c-.2-.4-.4-.9-.6-1.3.2.4.4.9.6,1.3Z" fill="#9fa58d"/>
          <path class="st3" d="M665.1,112.6c-.7.7-1.4,1.4-2.1,2.1.7-.7,1.3-1.4,2.1-2.1Z" fill="#9fa58d"/>
          <path class="st3" d="M659.5,152.5c-.2-.3-.4-.6-.6-1,.2.3.4.6.6,1Z" fill="#9fa58d"/>
          <path class="st3" d="M655.5,142c0-.3-.1-.6-.2-.9,0,.3.1.6.2.9Z" fill="#9fa58d"/>
          <path class="st3" d="M655,137.5c0-.3,0-.7,0-1.1,0,.4,0,.7,0,1.1Z" fill="#9fa58d"/>
          <path class="st3" d="M660.4,153.8c-.2-.3-.4-.7-.7-1,.2.3.4.7.7,1Z" fill="#9fa58d"/>
          <path class="st3" d="M661.3,155.2s0,0,0,0c-.3-.4-.6-.8-.9-1.2.3.4.6.8.9,1.2Z" fill="#9fa58d"/>
          <path class="st3" d="M655.1,139c0-.3,0-.6,0-.8,0,.3,0,.6,0,.8Z" fill="#9fa58d"/>
          <path class="st3" d="M656.3,145.3c0-.3-.2-.6-.2-.9,0,.3.2.6.2.9Z" fill="#9fa58d"/>
          <path class="st3" d="M655.3,140.5c0-.3,0-.5-.1-.8,0,.3,0,.5.1.8Z" fill="#9fa58d"/>
          <path class="st3" d="M655.9,143.9c-.1-.4-.2-.9-.3-1.4,0,.5.2.9.3,1.4Z" fill="#9fa58d"/>
          <path class="st3" d="M657.4,148.2c-.1-.3-.3-.6-.4-.9.1.3.2.6.4.9Z" fill="#9fa58d"/>
          <path class="st3" d="M656.8,146.7c0-.3-.2-.6-.3-.8,0,.3.2.6.3.8Z" fill="#9fa58d"/>
          <path class="st10" d="M663.1,114.7c-5,5.7-8.1,13.1-8.1,21.3s0,.3,0,.4c0,.4,0,.7,0,1.1,0,.2,0,.4,0,.7,0,.3,0,.6,0,.8,0,.2,0,.5,0,.7,0,.3,0,.5.1.8,0,.2,0,.4,0,.7,0,.3.1.6.2.9,0,.2,0,.4.1.5,0,.5.2.9.3,1.4,0,.2,0,.4.1.5,0,.3.2.6.2.9,0,.2.1.4.2.6,0,.3.2.6.3.8,0,.2.1.4.2.5.1.3.2.6.4.9,0,.1.1.3.2.4.2.4.4.9.6,1.3,0,0,0,.1,0,.2.2.4.4.8.6,1.1,0,.1.1.2.2.3.2.3.4.6.6,1,0,.1.1.2.2.3.2.3.4.7.7,1,0,0,0,.1.1.2.3.4.6.8.9,1.2-.4-2.1-.7-4.4-.7-6.6,0-16.6,12.6-30.3,28.7-32-2.8-4.1-5.8-8.2-9-12.1-5.9,1.2-11.1,4.1-15.3,8-.7.7-1.4,1.4-2.1,2.1Z" fill="#a8b7a3"/>
          <path class="st14" d="M506.2,347.7c-8.5.7-16.7,4.4-23,11.1-.1.1-.2.2-.3.3.1-.1.2-.2.3-.3,6.3-6.7,14.5-10.4,23-11.1Z" fill="#babb83"/>
          <path class="st14" d="M544.5,384.8c0,.2,0,.4,0,.6,0-.2,0-.4,0-.6Z" fill="#babb83"/>
          <path class="st14" d="M544.4,386.5c0,.2,0,.3,0,.5,0-.2,0-.3,0-.5Z" fill="#babb83"/>
          <path class="st14" d="M543.5,374.6c0,.2,0,.4.1.6,0-.2,0-.4-.1-.6Z" fill="#babb83"/>
          <path class="st14" d="M544.4,380c0,.2,0,.3,0,.5,0-.2,0-.3,0-.5Z" fill="#babb83"/>
          <path class="st14" d="M544.1,388.4s0,0,0,.1c0,0,0,0,0-.1Z" fill="#babb83"/>
          <path class="st14" d="M544.5,381.6c0,.2,0,.4,0,.6,0-.2,0-.4,0-.6Z" fill="#babb83"/>
          <path class="st14" d="M544.2,378.4c0,0,0,.2,0,.3,0,0,0-.2,0-.3Z" fill="#babb83"/>
          <path class="st14" d="M543.9,376.4c0,.1,0,.3,0,.4,0-.1,0-.3,0-.4Z" fill="#babb83"/>
          <path class="st14" d="M544.6,383.2c0,.2,0,.4,0,.6,0-.2,0-.4,0-.6Z" fill="#babb83"/>
          <path class="st14" d="M540.3,399.9s0,0,0,0c0,0,0,0,0,0Z" fill="#babb83"/>
          <path class="st14" d="M541.2,398c0,.1-.1.3-.2.4,0-.1.1-.3.2-.4Z" fill="#babb83"/>
          <path class="st14" d="M543.8,390.2c0,0,0,.2,0,.3,0,0,0-.2,0-.3Z" fill="#babb83"/>
          <path class="st14" d="M543.1,373c0,.2.1.4.2.6,0-.2-.1-.4-.2-.6Z" fill="#babb83"/>
          <path class="st1" d="M528.4,371.5c-14.3-13.3-36.7-12.5-50,1.8-1.7,1.8-3.2,3.8-4.4,5.9-.5,4.9,0,9.9,1.5,14.6,19.2,6.8,39.9,10.5,61.5,10.5s.3,0,.5,0c.7-1,1.4-2,2.1-3.1,1.2-10.7-2.6-21.8-11.1-29.7Z" fill="#d1d7ce"/>
          <path class="st14" d="M541.9,396.4c0,.2-.1.4-.2.5,0-.2.1-.4.2-.5Z" fill="#babb83"/>
          <path class="st14" d="M543,393.3c0,.2-.1.4-.2.5,0-.2.1-.4.2-.5Z" fill="#babb83"/>
          <path class="st14" d="M543.5,391.8c0,.2,0,.3-.1.5,0-.2,0-.3.1-.5Z" fill="#babb83"/>
          <path class="st14" d="M542.5,394.9c0,.2-.1.4-.2.6,0-.2.1-.4.2-.6Z" fill="#babb83"/>
          <path class="st14" d="M533.3,357.1c.2.2.4.4.6.6-.2-.2-.4-.4-.6-.6-7.1-6.6-16.2-9.8-25.2-9.5,9-.3,18.1,2.9,25.2,9.5Z" fill="#babb83"/>
          <path class="st14" d="M537.7,362.1c.2.2.3.5.5.7-.2-.2-.3-.5-.5-.7Z" fill="#babb83"/>
          <path class="st14" d="M477.8,366.5c0-.2.2-.4.3-.6-.1.2-.2.4-.3.6Z" fill="#babb83"/>
          <path class="st14" d="M477.1,368c0-.2.2-.4.3-.6,0,.2-.2.4-.3.6Z" fill="#babb83"/>
          <path class="st14" d="M538.7,363.5c.2.2.3.5.5.7-.1-.2-.3-.5-.5-.7Z" fill="#babb83"/>
          <path class="st14" d="M536.7,360.8c.2.2.4.5.5.7-.2-.2-.4-.5-.5-.7Z" fill="#babb83"/>
          <path class="st14" d="M476.4,369.5c0-.2.2-.4.2-.6,0,.2-.2.4-.2.6Z" fill="#babb83"/>
          <path class="st14" d="M539.6,364.9c.1.2.3.4.4.7-.1-.2-.3-.4-.4-.7Z" fill="#babb83"/>
          <path class="st14" d="M479.7,363.3c.1-.2.3-.4.4-.6-.1.2-.3.4-.4.6Z" fill="#babb83"/>
          <path class="st14" d="M480.7,362c.2-.2.3-.4.5-.6-.2.2-.3.4-.5.6Z" fill="#babb83"/>
          <path class="st14" d="M540.6,366.7c.1.2.2.5.4.7-.1-.2-.2-.5-.4-.7Z" fill="#babb83"/>
          <path class="st14" d="M481.7,360.7c.2-.2.3-.4.5-.6-.2.2-.3.4-.5.6Z" fill="#babb83"/>
          <path class="st14" d="M478.9,364.7c.1-.2.2-.3.3-.5-.1.2-.2.3-.3.5Z" fill="#babb83"/>
          <path class="st14" d="M535.6,359.5c.2.2.4.4.6.7-.2-.2-.4-.4-.6-.7Z" fill="#babb83"/>
          <path class="st14" d="M534.5,358.3c.2.2.4.4.6.6-.2-.2-.4-.4-.6-.6Z" fill="#babb83"/>
          <path class="st14" d="M475.8,370.9c0-.1.1-.3.2-.4,0,.1-.1.3-.2.4Z" fill="#babb83"/>
          <path class="st14" d="M541.4,368.4c0,.2.2.4.3.6,0-.2-.2-.4-.3-.6Z" fill="#babb83"/>
          <path class="st14" d="M475.3,372.7c0,0,0-.1,0-.2,0,0,0,.1,0,.2Z" fill="#babb83"/>
          <path class="st14" d="M474.4,376c0-.1,0-.3,0-.4,0,.1,0,.3,0,.4Z" fill="#babb83"/>
          <path class="st14" d="M474.8,374.4c0-.1,0-.3.1-.4,0,.1,0,.3-.1.4Z" fill="#babb83"/>
          <path class="st14" d="M474.2,377.5c0,0,0-.2,0-.2,0,0,0,.2,0,.2Z" fill="#babb83"/>
          <path class="st14" d="M542.6,371.4c0,.2.2.4.2.7,0-.2-.1-.4-.2-.7Z" fill="#babb83"/>
          <path class="st14" d="M542,369.9c0,.2.2.4.3.7,0-.2-.2-.4-.3-.7Z" fill="#babb83"/>
          <path class="st1" d="M583.9,339.3c-5.5,4.2-5.2,12.5.6,16.3,3.5,2.3,8.2,2.2,11.6-.4,5.5-4.2,5.2-12.5-.6-16.3-3.5-2.3-8.2-2.2-11.6.4Z" fill="#d1d7ce"/>
          <path class="st1" d="M658,203c4.1-4.3,3.8-11.2-.5-15.2-4.3-4.1-11.2-3.8-15.2.5-4.1,4.3-3.8,11.2.5,15.2,4.3,4.1,11.2,3.8,15.2-.5Z" fill="#d1d7ce"/>
          <path class="st1" d="M522,120.4c3,2.8,7.6,2.6,10.4-.4,2.8-3,2.6-7.6-.4-10.4-3-2.8-7.6-2.6-10.4.4-2.8,3-2.6,7.6.4,10.4Z" fill="#d1d7ce"/>
          <path class="st1" d="M384.4,170.4c-3.7,4-3.5,10.3.5,14,4,3.7,10.3,3.5,14-.5,3.7-4,3.5-10.3-.5-14-4-3.7-10.3-3.5-14,.5Z" fill="#d1d7ce"/>
          <path class="st1" d="M427,343.4c-2.2,2.3-2,6,.3,8.2,2.3,2.2,6,2,8.2-.3,2.2-2.3,2-6-.3-8.2-2.3-2.2-6-2-8.2.3Z" fill="#d1d7ce"/>
          <path class="st1" d="M650.7,103.2c2.2-2.3,2-6-.3-8.2-2.3-2.2-6-2-8.2.3-2.2,2.3-2,6,.3,8.2,2.3,2.2,6,2,8.2-.3Z" fill="#d1d7ce"/>
          <path class="st1" d="M522.8,60.5c2.5-2.6,2.3-6.8-.3-9.2-2.6-2.5-6.8-2.3-9.2.3-2.5,2.6-2.3,6.8.3,9.2,2.6,2.5,6.8,2.3,9.2-.3Z" fill="#d1d7ce"/>
          <path class="st3" d="M473.9,379.2s0,0,0,0c0-.5.1-1.1.2-1.6,0,.5-.2,1.1-.2,1.6Z" fill="#9fa58d"/>
          <path class="st3" d="M481.1,361.4c.2-.2.4-.5.6-.7-.2.2-.4.5-.6.7Z" fill="#9fa58d"/>
          <path class="st3" d="M479.2,364.1c.2-.3.4-.6.5-.8-.2.3-.4.6-.5.8Z" fill="#9fa58d"/>
          <path class="st3" d="M476,370.5c.1-.3.3-.7.4-1-.1.3-.3.7-.4,1Z" fill="#9fa58d"/>
          <path class="st3" d="M480.1,362.7c.2-.2.3-.5.5-.7-.2.2-.4.5-.5.7Z" fill="#9fa58d"/>
          <path class="st3" d="M474.2,377.3c0-.4.2-.9.2-1.3,0,.4-.2.9-.2,1.3Z" fill="#9fa58d"/>
          <path class="st3" d="M476.7,368.9c.1-.3.3-.6.4-.9-.1.3-.3.6-.4.9Z" fill="#9fa58d"/>
          <path class="st3" d="M475.3,372.5c.2-.5.3-1,.5-1.5-.2.5-.4,1-.5,1.5Z" fill="#9fa58d"/>
          <path class="st3" d="M539.5,401.3c.3-.4.5-.9.8-1.4-.2.5-.5.9-.8,1.3,0,0,0,0,0,0Z" fill="#9fa58d"/>
          <path class="st3" d="M477.4,367.4c.1-.3.3-.6.5-.9-.2.3-.3.6-.5.9Z" fill="#9fa58d"/>
          <path class="st3" d="M478.1,366c.2-.4.5-.9.8-1.3-.3.4-.5.9-.8,1.3Z" fill="#9fa58d"/>
          <path class="st3" d="M474.5,375.6c0-.4.2-.8.3-1.2,0,.4-.2.8-.3,1.2Z" fill="#9fa58d"/>
          <path class="st3" d="M536.2,360.2c.2.2.3.4.5.6-.2-.2-.3-.4-.5-.6Z" fill="#9fa58d"/>
          <path class="st3" d="M544.5,380.5c0,.4,0,.7,0,1.1,0-.4,0-.7,0-1.1Z" fill="#9fa58d"/>
          <path class="st3" d="M544.5,382.1c0,.4,0,.7,0,1.1,0-.4,0-.7,0-1.1Z" fill="#9fa58d"/>
          <path class="st3" d="M541,367.5c.2.3.3.6.4.9-.1-.3-.3-.6-.4-.9Z" fill="#9fa58d"/>
          <path class="st3" d="M544.5,383.8c0,.4,0,.7,0,1.1,0-.4,0-.7,0-1.1Z" fill="#9fa58d"/>
          <path class="st3" d="M544.3,387c0,.5-.1,1-.2,1.5,0-.5.1-1,.2-1.5Z" fill="#9fa58d"/>
          <path class="st3" d="M544.5,385.4c0,.4,0,.8,0,1.1,0-.4,0-.8,0-1.1Z" fill="#9fa58d"/>
          <path class="st3" d="M540,365.6c.2.4.4.8.6,1.2-.2-.4-.4-.8-.6-1.2Z" fill="#9fa58d"/>
          <path class="st3" d="M542.3,370.6c.1.3.2.6.3.9,0-.3-.2-.6-.3-.9Z" fill="#9fa58d"/>
          <path class="st3" d="M539.1,364.2c.2.2.3.5.4.7-.1-.2-.3-.5-.4-.7Z" fill="#9fa58d"/>
          <path class="st3" d="M543.7,375.2c0,.4.2.8.2,1.2,0-.4-.2-.8-.2-1.2Z" fill="#9fa58d"/>
          <path class="st3" d="M543.3,373.6c0,.3.2.6.2,1,0-.3-.2-.6-.2-1Z" fill="#9fa58d"/>
          <path class="st3" d="M541.7,369.1c.1.3.2.6.4.9-.1-.3-.2-.6-.4-.9Z" fill="#9fa58d"/>
          <path class="st3" d="M544.3,378.6c0,.4.1.9.1,1.3,0-.4,0-.9-.1-1.3Z" fill="#9fa58d"/>
          <path class="st3" d="M544,376.8c0,.5.2,1.1.2,1.6,0-.5-.2-1.1-.2-1.6Z" fill="#9fa58d"/>
          <path class="st3" d="M538.2,362.8c.2.2.3.5.5.7-.2-.2-.3-.5-.5-.7Z" fill="#9fa58d"/>
          <path class="st3" d="M542.8,372.1c0,.3.2.6.3.9,0-.3-.2-.6-.3-.9Z" fill="#9fa58d"/>
          <path class="st3" d="M535.1,358.9c.2.2.4.4.5.6-.2-.2-.4-.4-.5-.6Z" fill="#9fa58d"/>
          <path class="st3" d="M541.7,397c-.2.4-.3.7-.5,1.1.2-.4.3-.7.5-1.1Z" fill="#9fa58d"/>
          <path class="st3" d="M533.9,357.7c.2.2.4.4.6.6-.2-.2-.4-.4-.6-.6Z" fill="#9fa58d"/>
          <path class="st3" d="M506.2,347.7c.6,0,1.2,0,1.8-.1-.6,0-1.2,0-1.8.1Z" fill="#9fa58d"/>
          <path class="st3" d="M541,398.5c-.2.5-.5.9-.7,1.4.3-.5.5-.9.7-1.4Z" fill="#9fa58d"/>
          <path class="st3" d="M482.2,360.1c.2-.3.5-.6.8-.9-.3.3-.5.6-.8.9Z" fill="#9fa58d"/>
          <path class="st3" d="M544.1,388.6c0,.5-.2,1.1-.3,1.6.1-.5.2-1.1.3-1.6Z" fill="#9fa58d"/>
          <path class="st3" d="M543.3,392.3c0,.4-.2.7-.3,1.1.1-.4.2-.7.3-1.1Z" fill="#9fa58d"/>
          <path class="st3" d="M542.3,395.4c-.1.3-.3.7-.4,1,.1-.3.3-.7.4-1Z" fill="#9fa58d"/>
          <path class="st3" d="M543.8,390.5c0,.4-.2.9-.3,1.3.1-.4.2-.9.3-1.3Z" fill="#9fa58d"/>
          <path class="st3" d="M542.9,393.9c-.1.3-.2.7-.3,1,.1-.3.2-.7.3-1Z" fill="#9fa58d"/>
          <path class="st3" d="M537.2,361.5c.2.2.3.4.5.6-.2-.2-.3-.4-.5-.6Z" fill="#9fa58d"/>
          <path class="st3" d="M474.9,374c.1-.4.2-.9.4-1.3-.1.4-.3.9-.4,1.3Z" fill="#9fa58d"/>
          <path class="st10" d="M528.4,371.5c8.5,7.9,12.2,19,11.1,29.7.3-.4.5-.9.8-1.3,0,0,0,0,0,0,.3-.5.5-.9.7-1.4,0-.1.1-.3.2-.4.2-.4.3-.7.5-1.1,0-.2.1-.4.2-.5.1-.3.3-.7.4-1,0-.2.1-.4.2-.6.1-.3.2-.7.3-1,0-.2.1-.4.2-.5.1-.4.2-.7.3-1.1,0-.2,0-.3.1-.5.1-.4.2-.9.3-1.3,0,0,0-.2,0-.3.1-.5.2-1.1.3-1.6,0,0,0,0,0-.1,0-.5.1-1,.2-1.5,0-.2,0-.3,0-.5,0-.4,0-.8,0-1.1,0-.2,0-.4,0-.6,0-.4,0-.7,0-1.1,0-.2,0-.4,0-.6,0-.4,0-.7,0-1.1,0-.2,0-.4,0-.6,0-.4,0-.7,0-1.1,0-.2,0-.3,0-.5,0-.4,0-.9-.1-1.3,0,0,0-.2,0-.3,0-.5-.2-1.1-.2-1.6,0-.1,0-.3,0-.4,0-.4-.2-.8-.2-1.2,0-.2,0-.4-.1-.6,0-.3-.2-.6-.2-1,0-.2-.1-.4-.2-.6,0-.3-.2-.6-.3-.9,0-.2-.1-.4-.2-.7,0-.3-.2-.6-.3-.9,0-.2-.2-.4-.3-.7-.1-.3-.2-.6-.4-.9,0-.2-.2-.4-.3-.6-.1-.3-.3-.6-.4-.9-.1-.2-.2-.5-.4-.7-.2-.4-.4-.8-.6-1.2-.1-.2-.3-.4-.4-.7-.1-.2-.3-.5-.4-.7-.1-.2-.3-.5-.5-.7-.2-.2-.3-.5-.5-.7-.2-.2-.3-.5-.5-.7-.2-.2-.3-.4-.5-.6-.2-.2-.4-.5-.5-.7-.2-.2-.3-.4-.5-.6-.2-.2-.4-.4-.6-.7-.2-.2-.4-.4-.5-.6-.2-.2-.4-.4-.6-.6-.2-.2-.4-.4-.6-.6-.2-.2-.4-.4-.6-.6-7.1-6.6-16.2-9.8-25.2-9.5-.6,0-1.2,0-1.8.1-8.5.7-16.7,4.4-23,11.1-.1.1-.2.2-.3.3-.3.3-.5.6-.8.9-.2.2-.3.4-.5.6-.2.2-.4.5-.6.7-.2.2-.3.4-.5.6-.2.2-.4.5-.5.7-.1.2-.3.4-.4.6-.2.3-.4.6-.5.8-.1.2-.2.3-.3.5-.3.4-.5.9-.8,1.3-.1.2-.2.4-.3.6-.2.3-.3.6-.5.9,0,.2-.2.4-.3.6-.1.3-.3.6-.4.9,0,.2-.2.4-.2.6-.1.3-.3.7-.4,1,0,.1-.1.3-.2.4-.2.5-.4,1-.5,1.5,0,0,0,.1,0,.2-.1.4-.3.9-.4,1.3,0,.1,0,.3-.1.4,0,.4-.2.8-.3,1.2,0,.1,0,.3,0,.4,0,.4-.2.9-.2,1.3,0,0,0,.2,0,.2,0,.5-.2,1.1-.2,1.6,1.2-2.1,2.7-4,4.4-5.9,13.3-14.3,35.7-15.1,50-1.8Z" fill="#a8b7a3"/>
          <path class="st3" d="M584.5,220.1c.1.4.2.7.3,1.1-.1-.4-.2-.7-.3-1.1Z" fill="#9fa58d"/>
          <path class="st3" d="M497.9,229s0,0,0,0c0-.7.2-1.4.3-2-.1.7-.2,1.4-.3,2Z" fill="#9fa58d"/>
          <path class="st14" d="M577.4,93.2c.1-.1.2-.3.3-.4-.1.1-.2.3-.3.4Z" fill="#babb83"/>
          <path class="st14" d="M607.2,98.8c0,.1,0,.3.1.4,0-.2,0-.3-.1-.4Z" fill="#babb83"/>
          <path class="st14" d="M606.7,97.3c0,.2.1.4.2.6,0-.2-.1-.4-.2-.6Z" fill="#babb83"/>
          <path class="st14" d="M607.5,100.8c0,0,0,.1,0,.2,0,0,0-.1,0-.2Z" fill="#babb83"/>
          <path class="st14" d="M604.5,93.1c.1.2.2.4.4.5-.1-.2-.2-.4-.4-.5Z" fill="#babb83"/>
          <path class="st14" d="M606.1,95.8c0,.2.2.4.3.6,0-.2-.2-.4-.3-.6Z" fill="#babb83"/>
          <path class="st14" d="M607.7,102.3c0,.2,0,.3,0,.5,0-.2,0-.3,0-.5Z" fill="#babb83"/>
          <path class="st14" d="M605.3,94.4c.1.2.2.4.3.6-.1-.2-.2-.4-.3-.6Z" fill="#babb83"/>
          <path class="st1" d="M600.1,97.5c-6.7-6.3-17.3-5.9-23.6.8-.8.9-1.5,1.8-2.1,2.7-.6,5.1,1.2,10.3,5.2,14.1,6.7,6.3,17.3,5.9,23.6-.8.8-.9,1.5-1.8,2.1-2.8.5-5.1-1.2-10.3-5.2-14Z" fill="#d1d7ce"/>
          <path class="st14" d="M603.5,91.9c.1.1.3.3.4.5-.1-.2-.2-.3-.4-.5Z" fill="#babb83"/>
          <path class="st14" d="M606.8,108.3c0,.2-.1.3-.2.5,0-.2.1-.3.2-.5Z" fill="#babb83"/>
          <path class="st14" d="M602.5,90.9s0,0-.1-.1c-3.4-3.1-7.7-4.6-12-4.5,4.3-.2,8.6,1.3,12,4.5,0,0,0,0,.1.1Z" fill="#babb83"/>
          <path class="st14" d="M607.7,103.8c0,.2,0,.4,0,.6,0-.2,0-.4,0-.6Z" fill="#babb83"/>
          <path class="st14" d="M606,110.3c0-.1.1-.2.2-.4,0,.1,0,.2-.2.4Z" fill="#babb83"/>
          <path class="st14" d="M607.5,105.3c0,.2,0,.4,0,.6,0-.2,0-.4,0-.6Z" fill="#babb83"/>
          <path class="st14" d="M607.2,106.8c0,.2,0,.4-.1.6,0-.2,0-.4.1-.6Z" fill="#babb83"/>
          <path class="st14" d="M589.4,86.4c-3.9.4-7.8,2.1-10.7,5.2,0,0,0,0,0,0,0,0,0,0,0,0,2.9-3.1,6.7-4.9,10.7-5.2Z" fill="#babb83"/>
          <path class="st14" d="M576.6,94.5c0-.2.2-.3.3-.5-.1.2-.2.3-.3.5Z" fill="#babb83"/>
          <path class="st14" d="M574.8,99.1c0-.1,0-.2,0-.4,0,.1,0,.2,0,.4Z" fill="#babb83"/>
          <path class="st14" d="M575.9,95.9c0-.2.2-.3.2-.5,0,.2-.2.3-.2.5Z" fill="#babb83"/>
          <path class="st14" d="M574.5,100.6c0-.2,0-.3,0-.5,0,.2,0,.3,0,.5Z" fill="#babb83"/>
          <path class="st14" d="M575.3,97.3c0,0,0-.2.1-.3,0,0,0,.2-.1.3Z" fill="#babb83"/>
          <path class="st3" d="M607.4,105.9c0,.3-.1.6-.2.9,0-.3.1-.6.2-.9Z" fill="#9fa58d"/>
          <path class="st3" d="M607.6,104.4c0,.3,0,.6-.1.9,0-.3,0-.6.1-.9Z" fill="#9fa58d"/>
          <path class="st3" d="M574.8,98.7c.1-.5.3-1,.4-1.4-.2.5-.3.9-.4,1.4Z" fill="#9fa58d"/>
          <path class="st3" d="M574.5,100.2c0-.4.1-.7.2-1.1,0,.4-.2.7-.2,1.1Z" fill="#9fa58d"/>
          <path class="st3" d="M574.4,101.2s0,0,0,0c0-.2,0-.3,0-.5,0,.2,0,.3,0,.5Z" fill="#9fa58d"/>
          <path class="st3" d="M606.6,108.8c-.1.4-.3.7-.4,1.1.2-.4.3-.7.4-1.1Z" fill="#9fa58d"/>
          <path class="st3" d="M607.7,102.8c0,.3,0,.7,0,1,0-.3,0-.7,0-1Z" fill="#9fa58d"/>
          <path class="st3" d="M607.1,107.4c0,.3-.2.6-.3.9.1-.3.2-.6.3-.9Z" fill="#9fa58d"/>
          <path class="st3" d="M605.3,111.6c.3-.4.5-.9.7-1.3-.2.4-.5.9-.7,1.3,0,0,0,0,0,0Z" fill="#9fa58d"/>
          <path class="st3" d="M603.9,92.4c.2.3.4.5.6.8-.2-.3-.4-.5-.6-.8Z" fill="#9fa58d"/>
          <path class="st3" d="M577.8,92.8c.3-.4.6-.7.9-1.1-.3.4-.6.7-.9,1.1Z" fill="#9fa58d"/>
          <path class="st3" d="M604.8,93.7c.2.3.3.5.5.8-.2-.3-.3-.5-.5-.8Z" fill="#9fa58d"/>
          <path class="st3" d="M575.4,97c.1-.4.3-.7.5-1.1-.2.4-.3.7-.5,1.1Z" fill="#9fa58d"/>
          <path class="st3" d="M576.9,94c.2-.3.4-.6.6-.8-.2.3-.4.6-.6.8Z" fill="#9fa58d"/>
          <path class="st3" d="M602.5,90.9c.3.3.7.7,1,1-.3-.3-.6-.7-1-1Z" fill="#9fa58d"/>
          <path class="st3" d="M589.4,86.4c.3,0,.6,0,1,0-.3,0-.6,0-1,0Z" fill="#9fa58d"/>
          <path class="st3" d="M605.7,95c.1.3.3.5.4.8-.1-.3-.3-.5-.4-.8Z" fill="#9fa58d"/>
          <path class="st3" d="M607.3,99.3c.1.5.2,1,.3,1.5,0-.5-.2-1-.3-1.5Z" fill="#9fa58d"/>
          <path class="st3" d="M607.6,101c0,.4,0,.9.1,1.3,0-.4,0-.9-.1-1.3Z" fill="#9fa58d"/>
          <path class="st3" d="M576.1,95.4c.1-.3.3-.6.5-.9-.2.3-.3.6-.5.9Z" fill="#9fa58d"/>
          <path class="st3" d="M606.9,97.8c.1.3.2.7.3,1,0-.3-.2-.7-.3-1Z" fill="#9fa58d"/>
          <path class="st3" d="M606.3,96.4c.1.3.2.6.3.9-.1-.3-.2-.6-.3-.9Z" fill="#9fa58d"/>
          <path class="st10" d="M606.6,108.8c0-.2.1-.3.2-.5.1-.3.2-.6.3-.9,0-.2,0-.4.1-.6,0-.3.1-.6.2-.9,0-.2,0-.4,0-.6,0-.3,0-.6.1-.9,0-.2,0-.4,0-.6,0-.3,0-.7,0-1,0-.2,0-.3,0-.5,0-.4,0-.9-.1-1.3,0,0,0-.1,0-.2,0-.5-.2-1-.3-1.5,0-.2,0-.3-.1-.4,0-.3-.2-.7-.3-1,0-.2-.1-.4-.2-.6-.1-.3-.2-.6-.3-.9,0-.2-.2-.4-.3-.6-.1-.3-.3-.5-.4-.8-.1-.2-.2-.4-.3-.6-.2-.3-.3-.5-.5-.8-.1-.2-.2-.4-.4-.5-.2-.3-.4-.5-.6-.8-.1-.2-.2-.3-.4-.5-.3-.3-.6-.7-1-1,0,0,0,0-.1-.1-3.4-3.1-7.7-4.6-12-4.5-.3,0-.6,0-1,0-3.9.4-7.8,2.1-10.7,5.2,0,0,0,0,0,0-.3.4-.6.7-.9,1.1-.1.1-.2.3-.3.4-.2.3-.4.6-.6.8-.1.2-.2.3-.3.5-.2.3-.3.6-.5.9,0,.2-.2.3-.2.5-.2.4-.3.7-.5,1.1,0,0,0,.2-.1.3-.2.5-.3.9-.4,1.4,0,.1,0,.2,0,.4,0,.4-.2.7-.2,1.1,0,.2,0,.3,0,.5,0,.2,0,.3,0,.5.6-1,1.3-1.9,2.1-2.7,6.3-6.7,16.9-7.1,23.6-.8,4,3.7,5.8,9,5.2,14,.3-.4.5-.9.7-1.3,0-.1.1-.2.2-.4.2-.4.3-.7.4-1.1Z" fill="#a8b7a3"/>
        </g>
        <g>
          <path class="st13" d="M568.3,253.5c-.9-2.5-2.2-4.6-3.8-6.4-4.4,6.5-13.2,11-23.3,11s-.4,0-.6,0c.2,1.8.6,3.6,1.2,5.4,3.5,9.3,12.3,14.7,19.6,11.9,7.3-2.7,10.4-12.5,6.9-21.9Z" fill="#e06661"/>
          <g>
            <path class="st7" d="M502.7,207.8c0,16.6-13.4,30-30,30s-30-13.4-30-30,13.4-30,30-30,30,13.4,30,30Z" fill="#282322"/>
            <g>
              <path class="st2" d="M477.1,206.3c0,5.8-4.7,10.6-10.6,10.6s-10.6-4.7-10.6-10.6,4.7-10.6,10.6-10.6,10.6,4.7,10.6,10.6Z" fill="#fff"/>
              <path class="st2" d="M491.6,201.8c0,3.4-2.7,6.1-6.1,6.1s-6.1-2.7-6.1-6.1,2.7-6.1,6.1-6.1,6.1,2.7,6.1,6.1Z" fill="#fff"/>
            </g>
          </g>
          <path class="st5" d="M567.4,237.8c0,11.2-11.8,20.3-26.3,20.3s-10.5-1.3-14.7-3.5" fill="none" stroke="#282322" stroke-width="3px" stroke-linecap="round" stroke-linejoin="round"/>
          <path class="st10" d="M473,243.5c-2.2,4.9-11.7,5.3-21.1,1-9.4-4.3-15.2-11.8-13-16.6,2.2-4.9,11.7-5.3,21.1-1,9.4,4.3,15.2,11.8,13,16.6Z" fill="#a8b7a3"/>
          <path class="st10" d="M609.4,243.5c2.2,4.9,11.7,5.3,21.1,1,9.4-4.3,15.2-11.8,13-16.6-2.2-4.9-11.7-5.3-21.1-1-9.4,4.3-15.2,11.8-13,16.6Z" fill="#a8b7a3"/>
          <path class="st5" d="M639,203.7s-36.8-11-53.4,20.4c0,0,25.6-9.9,43.4,0" fill="none" stroke="#282322" stroke-width="3px" stroke-linecap="round" stroke-linejoin="round"/>
          <line class="st6" x1="554.4" y1="256.2" x2="558.9" y2="267.6" fill="none" stroke="#282322" stroke-width="2px" stroke-linecap="round" stroke-linejoin="round"/>
        </g>
      </g>
    </g>
  </g>
</svg>
