<?xml version="1.0" encoding="UTF-8"?>
<svg id="Layer_1" xmlns="http://www.w3.org/2000/svg" version="1.1" viewBox="0 0 1024 1024">
  <!-- Generator: Adobe Illustrator 30.3.0, SVG Export Plug-In . SVG Version: 2.1.3 Build 182)  -->
  <defs>
    <style>
      .st0 {
        fill: #498b4a;
      }
    </style>
  </defs>
  <path class="st0" d="M901,503.5c-.1-6.2-3.7-11.8-9.3-14.5-5.6-2.7-12.3-2.1-17.3,1.6-46.5,34-96.3,21-121.6-7.7-29.5-33.4-67.7-104.2-158.5-99-54,3.1-79.4,26.7-92.2,54.6-12.8-28-38.1-51.6-92.2-54.6-90.8-5.2-129,65.6-158.5,99-25.4,28.7-75.2,41.7-121.6,7.7-5-3.7-11.7-4.3-17.3-1.5-5.6,2.7-9.2,8.3-9.3,14.5-.7,32.5,8.4,81.5,60.9,114.1,84.4,52.4,213.2,65.3,296.2-8.1,0,0,25.4-26.7,41.8-59.6,16.5,32.9,41.9,59.6,41.9,59.6,83.1,73.3,211.8,60.4,296.2,8.1,52.5-32.5,61.5-81.6,60.9-114.1Z" fill="#498b4a"/>
</svg>