<?xml version="1.0" encoding="UTF-8"?>
<svg id="Layer_1" xmlns="http://www.w3.org/2000/svg" version="1.1" viewBox="0 0 1024 1024">
  <!-- Generator: Adobe Illustrator 30.3.0, SVG Export Plug-In . SVG Version: 2.1.3 Build 182)  -->
  <defs>
    <style>
      .st0 {
        fill: #f29cbf;
      }
    </style>
  </defs>
  <path class="st0" d="M407.2,257.2c-194.5,57.8-305.3,262.5-247.5,457,57.8,194.5,262.4,305.5,456.9,247.7,194.7-57.9,305.5-262.5,247.6-457.1-57.8-194.5-262.4-305.5-457.1-247.6ZM579.6,787.1c-132.1,39.3-271.2-36.1-310.5-168.2-39.3-132.3,36-271.3,168.2-310.6,132.3-39.3,271.4,36,310.7,168.3,39.3,132.1-36.1,271.2-168.4,310.5Z" fill="#f29cbf"/>
  <path class="st0" d="M613.9,148.7c0,56.3-45.6,101.9-101.9,101.9-56.3,0-101.9-45.6-101.9-101.9,0-56.3,45.6-101.9,101.9-101.9,56.3,0,101.9,45.6,101.9,101.9Z" fill="#f29cbf"/>
</svg>