<?xml version="1.0" encoding="UTF-8"?>
<svg id="Layer_1" xmlns="http://www.w3.org/2000/svg" version="1.1" viewBox="0 0 1024 1024">
  <!-- Generator: Adobe Illustrator 30.3.0, SVG Export Plug-In . SVG Version: 2.1.3 Build 182)  -->
  <defs>
    <style>
      .st0 {
        fill: #f29cbf;
      }

      .st1 {
        fill: none;
        stroke: #0f0808;
        stroke-linecap: round;
        stroke-linejoin: round;
        stroke-width: .8px;
      }

      .st2 {
        fill: #a24941;
      }
    </style>
  </defs>
  <g>
    <rect class="st2" x="86" y="412.2" width="865.6" height="199.6" transform="translate(363.8 -200.3) rotate(33.1)" fill="#a24941"/>
    <path class="st1" d="M771.2,591.7c-26.7,38.9-53.4,77.9-80.1,116.8" stroke-width=".8px" stroke="#0f0808" stroke-linejoin="round" stroke-linecap="round" fill="none"/>
    <path class="st1" d="M838.8,639.6c-24.6,36.6-49.1,73.1-73.7,109.7" stroke-width=".8px" stroke="#0f0808" stroke-linejoin="round" stroke-linecap="round" fill="none"/>
    <path class="st1" d="M341.7,311.4c-22.4,31.4-44.8,62.9-67.1,94.3" stroke-width=".8px" stroke="#0f0808" stroke-linejoin="round" stroke-linecap="round" fill="none"/>
    <path class="st1" d="M252.9,271.4c-17.1,29.8-34.1,59.5-51.2,89.3" stroke-width=".8px" stroke="#0f0808" stroke-linejoin="round" stroke-linecap="round" fill="none"/>
  </g>
  <g>
    <path class="st0" d="M643.6,593.3c44.9-68.9,25.5-161.2-43.4-206.1-68.9-44.9-161.2-25.5-206.1,43.4-44.9,68.9-25.5,161.2,43.4,206.1,68.9,44.9,161.2,25.5,206.1-43.4Z" fill="#f29cbf"/>
    <path class="st1" d="M573.5,424.2c-15.4,31.6-30.8,63.2-46.2,94.8,28.8,2.2,57.6,4.3,86.4,6.5" stroke-width=".8px" stroke="#0f0808" stroke-linejoin="round" stroke-linecap="round" fill="none"/>
  </g>
</svg>