<?xml version="1.0" encoding="UTF-8"?>
<svg id="Layer_1" xmlns="http://www.w3.org/2000/svg" version="1.1" viewBox="0 0 1024 1024">
  <!-- Generator: Adobe Illustrator 30.3.0, SVG Export Plug-In . SVG Version: 2.1.3 Build 182)  -->
  <defs>
    <style>
      .st0 {
        fill: #d6c399;
      }

      .st1 {
        fill: #f1e4c2;
      }

      .st2 {
        fill: #424044;
      }

      .st3 {
        fill: #cbbb95;
      }
    </style>
  </defs>
  <path class="st2" d="M319.1,528.9c19.9-67.1,24.8-139.2,72.1-191.3,25.6-30.4,57.4-50.5,92.7-63.6-164.7,20.2-195.7,190-216.7,232.8-12.7,25.9-71.1,11-133.2-16.4-47.8-21-65.6,6.5-66.5,34.9,50.7-.5,97.7,25.5,144.8,43.4,34.8,12.4,94.4,7.5,106.8-39.8Z" fill="#424044"/>
  <path class="st2" d="M677.7,340c-35.3-38-85.9-67.2-160.8-68h0c-.5,0-1,0-1.5,0-.5,0-1,0-1.5,0h0c-10.5.2-20.5.8-30.1,2-35.3,13.1-67.1,33.2-92.7,63.6-47.2,52.2-52.2,124.2-72.1,191.3-12.4,47.2-72.1,52.2-106.9,39.8-47-17.9-94.1-43.9-144.8-43.4-.5,13.9,3.2,28.1,9.3,36.8,49.7,70,117,73.1,229.8,66.3h417.5c6.5-29.5,11.9-70,8-117.6-6.4-78.7-35.1-137.9-54.4-170.7Z" fill="#424044"/>
  <path class="st1" d="M518.1,319.9c-33.3,0-52.9,20.4-52.9,46.9s.8,29.1,21.1,34.9c12.8,20.1,5.9,28.7,14.6,33-.1-4.7.3-10.6.3-11.5,0-1.2,1-2.1,2-2,1,0,1.8,1.1,1.7,2.3-.2,2.5-.5,8.7-.2,12.5,1.5.4,3.2.7,5.2,1-.2-6.1,1-14,1.1-14.4.2-1.2,1.1-2,2.1-1.7,1,.2,1.7,1.3,1.5,2.5-.4,2.6-1.3,9.5-1,14.1.4,0,.7,0,1.1.1,1.5,0,3,0,4.4-.2.1-4,0-10.8,0-17.1,0-1.2.8-2.2,1.8-2.2h0c1,0,1.8.9,1.8,2.1,0,3.2.1,11.5,0,16.9,2.9-.3,5.5-.6,7.8-1.1.4-2.1.5-7.7.3-12.4,0-1.2.7-2.2,1.7-2.3,1,0,1.9.9,1.9,2,.1,2.7.3,7.9-.2,11.8,1.2-.3,2.3-.7,3.3-1.1.5-2.6-.1-9-.7-12.6-.2-1.2.5-2.3,1.5-2.5,1-.2,2,.6,2.1,1.8.2,1.4,1,7.1.9,11.5,9.2-5.5,8.6-14.6,10.3-24.2,3.3-18.5,21.3-6.9,21.8-40.2.4-26.5-22.3-48-55.6-48ZM498.9,379.5c-7.5,0-14.9-.5-14.9-7.3s6.1-12.3,13.6-12.3,13.6,5.5,13.6,12.3-4.8,7.3-12.3,7.3ZM527.7,405.9c-1.5,4.2-9.6-1.5-9.6-1.5,0,0-6.9,2.7-11.9.8-5-1.9,8.4-20.7,8.4-20.7,8.8-3.4,10,6.9,10,6.9,0,0,4.6,10.3,3.1,14.6ZM541.9,379.9c-7.5,0-14.9-.5-14.9-7.3s6.1-12.3,13.6-12.3,13.6,5.5,13.6,12.3-4.7,7.3-12.3,7.3Z" fill="#f1e4c2"/>
  <path class="st3" d="M551.8,408.2c3.3-18.5,21.3-6.9,21.8-40.2.4-25.5-20.6-46.3-51.8-47.9,13.3,6.9,35.5,21.1,32.2,38.6-.6,3.1-1,6-1.3,8.6.8,1.6,1.3,3.4,1.3,5.3,0,2.9-.9,4.6-2.4,5.6-.7,9.4-.8,12.9-7.1,14-6.9,1.2-1.8,24,1.5,36.2,4.4-5.4,4.3-12.7,5.7-20.3Z" fill="#cbbb95"/>
  <path class="st2" d="M896.8,490.4c-62.1,27.3-120.5,42.2-133.2,16.4-13.5-27.6-31.1-107.7-85.9-166.8,3.7,53.4,10.4,111.7,21.6,174,7.3,40.5,15.7,78.6,24.8,114.3,112.9,6.9,180.2,3.7,229.8-66.3,18.7-26.3,14.1-103-57.2-71.6Z" fill="#424044"/>
  <path class="st1" d="M479.2,526.1l82-61.4s19.2,13.6,30.7,0c6.1-7.3-6.5-17.6-18.6-16.1,0,0,0-15.6-9.6-17.1-12.9-2-20.5,5.5-13.4,23.5l-83,58.2s-27.5-6.1-30.4,7.1c-2.8,13.2,16,11.9,20.8,9,0,0-.6,22.5,15.2,17.7,15.8-4.8,12.9-13.6,6.2-20.9Z" fill="#f1e4c2"/>
  <path class="st3" d="M584.3,450.3c3.1,3.1,4.1,7,1.4,10.3-11.5,13.7-30.7,0-30.7,0l-82,61.4c6.7,7.3,9.6,16.1-6.2,20.9-2.2.7-4,.8-5.6.5,2.2,3.3,5.8,5.4,11.8,3.6,15.8-4.8,12.9-13.6,6.2-20.9l82-61.4s19.2,13.6,30.7,0c4.2-5-.4-11.4-7.6-14.4Z" fill="#cbbb95"/>
  <polygon class="st0" points="504.1 487.4 517.9 497.1 530.9 487.4 518 477.7 504.1 487.4" fill="#d6c399"/>
  <path class="st1" d="M479.2,452.8l82,61.4s19.2-13.6,30.7,0c6.1,7.3-6.5,17.6-18.6,16.1,0,0,0,15.6-9.6,17.1-12.9,2-20.5-5.5-13.4-23.5l-83-58.2s-27.5,6.1-30.4-7.1c-2.8-13.2,16-11.9,20.8-9,0,0-.6-22.5,15.2-17.7,15.8,4.8,12.9,13.6,6.2,20.9Z" fill="#f1e4c2"/>
</svg>