<?xml version="1.0" encoding="UTF-8"?>
<svg id="Layer_1" xmlns="http://www.w3.org/2000/svg" version="1.1" viewBox="0 0 1024 1024">
  <!-- Generator: Adobe Illustrator 30.3.0, SVG Export Plug-In . SVG Version: 2.1.3 Build 182)  -->
  <defs>
    <style>
      .st0 {
        fill: #fabb64;
      }

      .st1 {
        fill: #f5a054;
      }
    </style>
  </defs>
  <path class="st0" d="M42.5,425.4c-2.4,10.6-5.8,32.1,1.6,57.1,4.7,16.1,12.2,28,17.9,35.5,0,0,0,0,0,0,0,0,10.8,9.2,23.8,15.9,142.9,73.4,465.8,41.1,465.8,41.1,322.9-32.3,389.6-42.4,419.3-101,18.7-36.9,14.5-77.1,8.4-104.4-15.9,5.6-32,10.9-48.2,16.1-217,68.6-512.3,111.6-888.6,39.8Z" fill="#fabb64"/>
  <path class="st1" d="M775.2,425.8c-1.5,19.1-2.8,38.3-4.1,57.6-5.6,83.4-9.3,165.3-11.5,245.4-44,19-88,37.9-132,56.9,13.8-114.4,27.5-228.8,41.3-343.2,35.4-5.6,70.9-11.2,106.3-16.8Z" fill="#f5a054"/>
  <g>
    <path class="st1" d="M758.7,820.9s-1.9,71.7-4.5,78.4c-2.6,6.7-7.5,8.4-7.7-2.6-.1-11,3-60.8,3-60.8l-5.4,1.8s.8,65.5-2,68.7c-2.8,3.2-6.2-12.7-6.2-64.7l-2-.4s2.9,67.9-3,69.8c-5.9,1.8-3.4-66.9-3.4-66.9l-5.4,1.3s2,69.5-4.5,69.4c-6.5-.1-2.5-69.9-2.5-69.9l-2.9,2.2s2.1,70.5-3.4,70.3c-5.5-.2-4.9-67.8-4.9-67.8l-4.5-.2s4.6,71.3-1.9,70.2c-6.6-1.1-5.5-68.3-5.5-68.3,0,0-5.2,65.9-11.2,66.2-6,.3.7-65.6.7-65.6l-4,.2s-1.9,70.7-9.5,70.1c-7.5-.6,1-69.7,1-69.7l-4.5.3s-5,68.9-10.1,68.2c-5-.7,3.6-67.3,3.6-67.3l-6.6-1.6s-2.3,72.7-7.9,71.6c-5.6-1.2,1.3-72.2,1.3-72.2l-4-.3s-4.9,70.4-9.4,70.6c-4.5.3-2.8-22.4,1.1-68.2,3.9-45.8,126.3-32.8,126.3-32.8Z" fill="#f5a054"/>
    <path class="st0" d="M775.2,425.8c.2,2.9-3.2,5.3-4.1,6.1-26.4,20.7-10,211.3-11.6,315.5-.3,19.3-2,88.5-2,88.7,0,0-52.6,25.6-125.1,17.8-25.2-214.4-15.1-375.7,23.2-412.1,22.7-21.6,48.9-27.5,48.9-27.5,32-7.3,70,2.2,70.8,11.7Z" fill="#fabb64"/>
  </g>
</svg>