<?xml version="1.0" encoding="UTF-8"?>
<svg xmlns="http://www.w3.org/2000/svg" version="1.1" viewBox="0 0 1024 1024">
  <!-- Generator: Adobe Illustrator 30.3.0, SVG Export Plug-In . SVG Version: 2.1.3 Build 182)  -->
  <defs>
    <style>
      .st0 {
        fill: #fff;
      }

      .st1 {
        stroke-width: 3px;
      }

      .st1, .st2 {
        fill: none;
        stroke: #282322;
        stroke-linecap: round;
        stroke-linejoin: round;
      }

      .st3 {
        fill: #282322;
      }

      .st4 {
        isolation: isolate;
      }

      .st5 {
        fill: #f5dc38;
      }

      .st6 {
        fill: #e99d29;
      }

      .st2 {
        stroke-width: 2px;
      }

      .st7 {
        fill: #c2e3e4;
        mix-blend-mode: overlay;
        opacity: .3;
      }
    </style>
  </defs>
  <g class="st4">
    <g id="Layer_1">
      <g>
        <g>
          <g>
            <g>
              <path class="st6" d="M646.3,359.4c-9.4,11.1-12.5,25.3-9.9,38.5-12.6-5.6-27.6-5.5-40.6,1.7-12.7,7-20.8,19.1-23.1,32.4-9.8-9.7-23.7-15-38.5-13.1-14.4,1.9-26.3,10.3-33.2,21.9-5.6-12.6-16.7-22.6-31.2-26.1-14.1-3.4-28.3.2-38.9,8.4-.7-13.8-7.5-27.1-19.7-35.5-11.9-8.3-26.4-10-39.3-6.2,4.3-13.1,2.8-28-5.6-40.3-8.2-12-21-18.9-34.5-19.9,8.8-10.7,12.7-25.1,9.3-39.6-3.3-14.1-12.8-25.2-25-31,12-6.8,20.9-18.8,22.9-33.5,2-14.4-2.9-28.1-12.1-37.9,13.6-2,26.2-10.1,33.5-23,7.1-12.7,7.4-27.3,2.3-39.7,13.5,3,28.1,0,39.5-9.4,11.2-9.3,16.8-22.8,16.5-36.2,11.4,7.7,26.2,10.2,40.3,5.4,15.3-5.2,26.1-17.6,29.8-32.2,7.3,13.5,21.1,23.1,37.6,24.1,14.5.9,27.8-5.1,36.8-15.1,3.1,13.4,12.1,25.4,25.6,31.6,13.2,6.1,27.8,5.3,39.8-.8-2,13.6,2.1,28,12.5,38.7,10.1,10.4,24,14.9,37.4,13.6-6.8,12-8.1,26.9-2.3,40.6,5.7,13.3,17,22.6,30,26.2-10.6,8.8-17.3,22.2-16.7,37,.5,14.5,7.7,27.2,18.5,35.2-13.1,4.3-24.1,14.5-29,28.5-4.7,13.7-2.6,28.1,4.6,39.5-13.8-.7-27.7,4.8-37.3,16.2Z" fill="#e99d29"/>
              <path class="st6" d="M500.6,445h0c-1.6-.1-3-1.1-3.7-2.5-5.3-12-15.6-20.6-28.3-23.6-12.3-3-25.3-.1-35.3,7.6-1.3,1-3,1.2-4.4.5-1.5-.7-2.4-2.1-2.5-3.7-.6-13.1-7.1-24.8-17.8-32.2-10.3-7.1-23.6-9.2-35.6-5.6-1.5.5-3.2,0-4.3-1.1-1.1-1.1-1.5-2.8-1-4.3,4.1-12.4,2.3-25.7-5-36.5-7.1-10.5-18.5-17.1-31.2-18-1.6-.1-3-1.1-3.6-2.6-.6-1.5-.4-3.2.6-4.4,8.3-10.1,11.4-23.2,8.4-35.9-2.9-12.4-11.1-22.6-22.6-28.1-1.4-.7-2.4-2.1-2.4-3.7,0-1.6.8-3.1,2.2-3.9,11.4-6.4,19-17.5,20.8-30.4,1.8-12.6-2.2-25.1-11-34.4-1.1-1.2-1.5-2.8-.9-4.4.5-1.5,1.8-2.6,3.4-2.8,13-1.9,24-9.5,30.3-20.9,6.2-11.1,6.9-24.2,2.1-36-.6-1.5-.3-3.2.7-4.4,1-1.2,2.7-1.8,4.2-1.4,2.2.5,4.5.8,6.7,1,10.6.7,20.9-2.7,29.1-9.5,9.8-8.1,15.2-20.1,14.9-32.8,0-1.6.8-3.1,2.2-3.9,1.4-.8,3.1-.7,4.4.2,10.7,7.2,24.3,9.1,36.5,4.9,13.4-4.5,23.5-15.4,27-29.2.4-1.7,1.9-3,3.6-3.2,1.8-.2,3.5.7,4.3,2.2,6.9,12.8,19.6,21,34.1,21.9,12.7.8,24.8-4.2,33.4-13.6,1.1-1.2,2.7-1.7,4.3-1.3,1.5.4,2.7,1.6,3.1,3.2,2.9,12.8,11.4,23.2,23.2,28.6,11.4,5.2,24.9,4.9,36.1-.7,1.4-.7,3.1-.6,4.4.3,1.3.9,2,2.5,1.7,4.1-1.9,13,2.2,25.7,11.3,35.1,7.2,7.4,16.9,11.8,27.2,12.5,2.2.1,4.5,0,6.7-.1,1.6-.2,3.1.6,4,1.9.9,1.3.9,3.1.1,4.5-6.4,11.4-7.2,24.8-2.1,36.8,5,11.7,14.9,20.3,27.2,23.7,1.5.4,2.7,1.7,3.1,3.2.3,1.6-.2,3.2-1.5,4.2-10.1,8.3-15.6,20.6-15.2,33.6.5,12.7,6.6,24.3,16.8,31.9,1.3,1,1.9,2.5,1.7,4.1-.3,1.6-1.4,2.9-2.9,3.4-12.4,4.1-22,13.5-26.3,25.8-4.1,12-2.6,25.1,4.2,35.8.9,1.4.9,3.1,0,4.5-.8,1.4-2.3,2.2-3.9,2.1-13.1-.6-25.4,4.7-33.8,14.6-8.1,9.6-11.4,22.1-9.1,34.4.2.5.3,1.1.2,1.7-.1,2.4-2.2,4.2-4.5,4,0,0,0,0,0,0-.5,0-1-.1-1.5-.4-11.7-5.2-25.5-4.7-36.8,1.5-11.1,6.1-18.8,16.8-21,29.3-.3,1.6-1.4,2.9-2.9,3.3-1.5.5-3.2,0-4.3-1.1-9.1-9.1-22.1-13.6-34.9-11.9-12.6,1.7-23.6,8.9-30.1,19.8-.8,1.4-2.3,2.2-3.9,2.1ZM462,409.2c2.9.2,5.8.6,8.7,1.3,12.9,3.1,23.8,11,30.7,22.1,8-9.8,19.4-16.2,32.2-17.9,13-1.7,26.2,1.8,36.6,9.5,3.9-12.1,12.3-22.2,23.5-28.3,8.3-4.5,17.6-6.6,27-6,3.6.2,7.1.8,10.5,1.8-.7-12.7,3.5-25.1,11.8-34.9,8.6-10.1,20.5-16.3,33.5-17.5-5.2-11.6-5.8-24.6-1.6-36.8,4.3-12.5,13.2-22.6,24.9-28.4-9-8.9-14.3-20.9-14.7-33.8-.5-13.3,4.2-25.8,13-35.5-11.6-5.1-20.9-14.3-25.9-26.2-5.2-12.2-5.4-25.6-.6-37.8-12.8-.6-24.7-6-33.6-15.1-9.3-9.5-14.2-22-14.2-35-11.9,4-25.2,3.3-36.8-2-12.1-5.5-21.2-15.4-25.9-27.6-9.8,8.1-22.2,12.2-35,11.4-14.4-.9-27.4-7.8-36.2-18.9-5.7,12.5-16.3,22.2-29.6,26.7-12.4,4.2-26,3.3-37.7-2.3-1.5,12.6-7.8,24.1-17.7,32.3-10.1,8.4-22.9,12.5-36,11.4,3.1,12.3,1.4,25.3-4.8,36.5-6.5,11.6-17,19.9-29.5,23.6,7.3,10.4,10.4,23.1,8.7,35.8-1.8,13.1-8.6,24.7-19,32.7,10.6,7,18,17.7,21,30.3,3,12.9.8,26.2-6,37.3,12.4,2.8,23.2,10.1,30.5,20.7,7.5,11,10.2,24.1,7.9,37,12.4-1.9,25.5,1.1,35.9,8.3,10.9,7.5,18.2,18.8,20.7,31.6,8.4-4.8,18.1-7.1,27.8-6.5Z" fill="#e99d29"/>
            </g>
            <path class="st5" d="M675.5,253.5c-5.5,89.6-82.6,157.8-172.3,152.3-89.6-5.5-157.8-82.6-152.3-172.3,5.5-89.6,82.6-157.8,172.3-152.3,89.6,5.5,157.8,82.6,152.3,172.3Z" fill="#f5dc38"/>
          </g>
          <path class="st7" d="M693.6,239.9c-.5-13,5.1-25.2,15.2-33.6,1.2-1,1.8-2.6,1.5-4.2-.3-1.6-1.5-2.8-3.1-3.2-12.3-3.4-22.2-12-27.2-23.7-5.1-12-4.4-25.4,2.1-36.8.8-1.4.7-3.1-.1-4.5-.9-1.3-2.4-2.1-4-1.9-2.2.2-4.5.3-6.7.1-10.3-.6-20-5.1-27.2-12.5-9.1-9.3-13.2-22.1-11.3-35.1.2-1.6-.4-3.2-1.7-4.1-1.3-.9-3-1.1-4.4-.4-11.2,5.7-24.6,5.9-36.1.7-11.8-5.4-20.3-15.9-23.2-28.6-.4-1.6-1.5-2.8-3.1-3.2-1.6-.4-3.2,0-4.3,1.3-8.6,9.5-20.7,14.4-33.4,13.6-14.4-.9-27.2-9.1-34.1-21.9-.8-1.6-2.5-2.4-4.3-2.2-1.8.2-3.2,1.5-3.6,3.2-3.5,13.8-13.6,24.7-27,29.2-10.8,3.7-22.8,2.6-32.9-2.8-13.6,24-21.4,51.9-21.4,81.5,0,91.3,74,165.4,165.4,165.4s98.1-23.9,128.5-61.2c-2.1-4.7-3.3-9.9-3.5-15.2Z" opacity=".3" fill="#c2e3e4"/>
        </g>
        <path class="st2" d="M531.1,431.7c-5,17.4-11.5,44.4-14.2,77.9-4.7,58.3,6.6,78.8,5.4,130-1.7,72-24.8,63.3-26.3,130.7-1.4,62,17.8,82.5,13,154.2-1.9,28.8-6.8,52.3-10.7,67.6" fill="none" stroke="#282322" stroke-width="2px" stroke-linecap="round" stroke-linejoin="round"/>
        <path class="st6" d="M541.8,422.9c-2.2,1.5-4.2,3.4-3.9,5.3.4,3.3,7,3.9,7,6.3,0,1.9-4.9,4.4-9.3,3.8-3.1-.4-3.4-1.8-6.2-2-5.4-.4-9.2,4.6-10.2,3.7-.8-.7,1.2-4.3,2.9-6.7,2.4-3.4,4.6-4.1,4.5-6,0-.9-.6-2.2-3.2-3.8,2.7.2,5.7.3,8.8.2,3.5,0,6.7-.4,9.6-.8Z" fill="#e99d29"/>
        <g>
          <g>
            <path class="st3" d="M615.3,236.3c0,16.2-13.1,29.3-29.3,29.3s-29.3-13.1-29.3-29.3,13.1-29.3,29.3-29.3,29.3,13.1,29.3,29.3Z" fill="#282322"/>
            <g>
              <path class="st0" d="M581,246.6c-11.8-5.8-13.5-18.2-7.6-20.3,5.1-1.8,7.6,3.5,7.6,3.5,0,0,2.5-5.3,7.6-3.5,5.9,2.1,4.2,14.5-7.6,20.3Z" fill="#fff"/>
              <path class="st0" d="M599.9,235.9c-7.4-3.6-8.4-11.3-4.7-12.6,3.2-1.1,4.7,2.2,4.7,2.2,0,0,1.6-3.3,4.7-2.2,3.7,1.3,2.6,9-4.7,12.6Z" fill="#fff"/>
            </g>
            <g>
              <path class="st3" d="M481.3,236.3c0,16.2-13.1,29.3-29.3,29.3s-29.3-13.1-29.3-29.3,13.1-29.3,29.3-29.3,29.3,13.1,29.3,29.3Z" fill="#282322"/>
              <g>
                <path class="st0" d="M446.6,246.6c-11.8-5.8-13.5-18.2-7.6-20.3,5.1-1.8,7.6,3.5,7.6,3.5,0,0,2.5-5.3,7.6-3.5,5.9,2.1,4.2,14.5-7.6,20.3Z" fill="#fff"/>
                <path class="st0" d="M465.4,235.9c-7.4-3.6-8.4-11.3-4.7-12.6,3.2-1.1,4.7,2.2,4.7,2.2,0,0,1.6-3.3,4.7-2.2,3.7,1.3,2.6,9-4.7,12.6Z" fill="#fff"/>
              </g>
            </g>
          </g>
          <path class="st6" d="M452.3,271.2c-2.2,4.8-11.4,5.2-20.6,1-9.2-4.2-14.9-11.5-12.7-16.3,2.2-4.8,11.4-5.2,20.6-1,9.2,4.2,14.9,11.5,12.7,16.3Z" fill="#e99d29"/>
          <path class="st6" d="M585.7,271.2c2.2,4.8,11.4,5.2,20.6,1,9.2-4.2,14.9-11.5,12.7-16.3-2.2-4.8-11.4-5.2-20.6-1-9.2,4.2-14.9,11.5-12.7,16.3Z" fill="#e99d29"/>
          <path class="st1" d="M520.3,259.3c7.9,0,14.3,5.1,14.3,11.3s-6.4,11.4-14.3,11.4c7.9,0,14.3,5.1,14.3,11.3s-6.4,11.3-14.3,11.3" fill="none" stroke="#282322" stroke-width="3px" stroke-linecap="round" stroke-linejoin="round"/>
        </g>
      </g>
    </g>
  </g>
</svg>
