<?xml version="1.0" encoding="UTF-8"?>
<svg id="Layer_1" xmlns="http://www.w3.org/2000/svg" version="1.1" xmlns:xlink="http://www.w3.org/1999/xlink" viewBox="0 0 1024 1024">
  <!-- Generator: Adobe Illustrator 30.3.0, SVG Export Plug-In . SVG Version: 2.1.3 Build 182)  -->
  <defs>
    <style>
      .st0 {
        opacity: .6;
      }

      .st1 {
        fill: #fabb64;
      }

      .st2 {
        fill: #f5a054;
      }

      .st3, .st4, .st5 {
        fill: none;
      }

      .st3, .st5 {
        stroke: #8a3080;
        stroke-miterlimit: 10;
      }

      .st5 {
        stroke-width: .3px;
      }

      .st6 {
        fill: #8a3080;
      }

      .st7 {
        clip-path: url(#clippath);
      }
    </style>
    <clipPath id="clippath">
      <path class="st4" d="M1131.1,540.4c2.9-11.8,6.5-17.7,11.5-23.7,0,0,7.4-8.9,19-14.4,28.5-13.6,261.9,26.3,382.6,23.5,110.9-2.6,355-46.4,392.6-55.2,1.7-.4,7.6-1.8,14.4,0,28.4,7.8,44.8,64.3,38.8,90.8-17.4,75.8-259.7,81.8-425.4,84.7-346.8,6.1-443.1-43.4-443.9-65.3-.1-2.6,1.2-3.3,10.4-40.4Z"/>
    </clipPath>
  </defs>
  <g class="st0" opacity=".6">
    <path class="st6" d="M68.7,494.2c-15-39.1-6.7-83.1,31-101.5,33.1-16.2,80.8-32,145.2-36.6,75.4-5.4,136.1,6,177.1,18.3,36.1,10.8,58.2,47.1,50.9,84.1-15.1,76.5-57.7,198.5-175,201.9-113.9,3.3-200.8-92.2-229.1-166.2Z" fill="#8a3080"/>
    <path class="st6" d="M555.2,468.7c-9.1-40.9,5.6-83.2,45.5-95.8,35.1-11.1,84.6-19.8,149-14.9,75.4,5.7,133.8,25.9,172.5,44,34.1,16,50.7,55.2,38,90.7-26.2,73.4-86.1,187.9-202.7,174-113.2-13.4-185.1-120.6-202.3-198Z" fill="#8a3080"/>
    <path class="st3" d="M448.1,423.3c21-11.9,45.8-15.9,69.9-15.3,24.1.6,48,5.5,71.6,10.3" fill="none" stroke="#8a3080" stroke-miterlimit="10"/>
    <path class="st5" d="M469.4,428c1,.2,2.1.7,3.2,1.3,16.8,9.6,13.7,55,10.1,70.1-2.1,8.9-9.9,24-21.4,21.6-5.6-1.2-9-6.7-11.3-11.9-6.5-15-8.3-32.1-5.2-48.2,2-10.2,9.7-36.5,24.6-33Z" fill="none" stroke="#8a3080" stroke-width=".3px" stroke-miterlimit="10"/>
    <path class="st5" d="M562.4,424.8c1.1.1,2.1.4,3.3.9,17.9,7.6,20.2,53,18.4,68.4-1,9.1-7,25-18.7,24-5.7-.5-9.8-5.5-12.6-10.4-8.3-14.2-12-30.9-10.8-47.2.7-10.3,5.3-37.4,20.5-35.6Z" fill="none" stroke="#8a3080" stroke-width=".3px" stroke-miterlimit="10"/>
    <path class="st6" d="M932.3,436.8l47.5,4c14.8,1.2,25.5,14.5,23.7,29.2h0c-1.7,13.4-13.2,23.2-26.7,22.8l-46.4-1.4,1.9-54.6Z" fill="#8a3080"/>
    <path class="st6" d="M96.6,487.8l-47.7,1.3c-14.8.4-27-11.6-26.8-26.4h0c.2-13.5,10.5-24.6,24-25.7l46.3-3.8,4.3,54.5Z" fill="#8a3080"/>
  </g>
  <g class="st7" clip-path="url(#clippath)">
    <path class="st1" d="M1022.6,458.4c-1.4-47.7-3.8-94.3,3-126.7,1-4.9,6.2-28.5,19.2-32.4,38.4-11.6,392.6,73.3,479.9,77.6,170.5,8.4,484.2-233.3,529.9-303.5,2.3-3.5,10.8-17.2,17.8-2.4,22,46.4,8.5,326.9,2.5,402.7-11.5,147-65.4,430.4-524.9,504.6,0,0-515.7,83.4-527.4-300.7-.8-27.4,3.6-96.5,0-219.2Z" fill="#fabb64"/>
    <g>
      <path class="st2" d="M1032.7,550.4c5.4-34.6,6.7-79.4,17.1-114.1,6.9,1.8,13.8,3.7,20.6,5.6-8.4,45-13.1,91.3-20.3,136.6-3.4,21.8-7.6,43.4-11.7,65-7.4-2.2-14.9-4.4-22.3-6.7,5.6-28.6,12.1-57.5,16.5-86.3Z" fill="#f5a054"/>
      <path class="st2" d="M1033.2,432c4.5,1.1,9,2.2,13.5,3.4-9.3,32.2-11.3,71.6-15.7,103.8-4.4,32.2-11.7,64.6-18,96.5-1.9-.6-3.9-1.2-5.8-1.8,9.1-67.1,14-135.5,26-202Z" fill="#f5a054"/>
      <path class="st2" d="M1006.6,425.9c3.3.7,6.7,1.4,10.1,2.2-9.8,66.6-15.9,134.5-28.6,200-1.9-.6-3.8-1.2-5.7-1.8,14.9-63,17.9-134.5,24.2-200.4Z" fill="#f5a054"/>
      <path class="st2" d="M986.3,422c5.4.9,11,2,16.9,3.2-3.9,39.1-6.6,78.2-11.1,117.2-3.2,27.6-7.3,55.8-13.5,82.7-6.7-2.1-13.2-4.2-19.4-6.2,9.4-65.6,16.6-131.6,27.2-197Z" fill="#f5a054"/>
      <path class="st2" d="M960.3,418.6c4.7.4,9.8,1,15.1,1.7-6.9,65.4-11.4,132.1-21.2,197.1-7.3-2.4-14.1-4.6-20.2-6.7,8.7-64.1,13.1-129.2,26.3-192.1Z" fill="#f5a054"/>
      <path class="st2" d="M940.4,418.5c4.6-.5,10.2-.6,16.5-.2-13,62.7-17.4,127.6-26,191.3-4.6-1.6-8.8-3-12.4-4.3,8.4-62.1,14.7-124.5,21.9-186.8Z" fill="#f5a054"/>
      <path class="st2" d="M925.8,427.2c.7-4.2,4.7-6.8,11.2-8.1-7.1,61.7-13.4,123.6-21.7,185.1-6.9-2.6-11.3-4.4-12.3-5.3-7.5-7,16.7-135.7,22.8-171.6Z" fill="#f5a054"/>
      <path class="st2" d="M978.7,420.8c1.4.2,2.9.4,4.4.7-5.2,32-9.5,64.3-13.8,96.5,3.1-32.5,6-65,9.4-97.2Z" fill="#f5a054"/>
      <path class="st2" d="M1019.9,428.9c3.3.8,6.7,1.6,10.1,2.4-11.9,66.4-16.8,134.8-26,201.8-4.3-1.3-8.6-2.6-12.8-3.9,12.7-65.5,18.9-133.6,28.7-200.2Z" fill="#f5a054"/>
    </g>
  </g>
</svg>
