<?xml version="1.0" encoding="UTF-8"?>
<svg id="Layer_1" xmlns="http://www.w3.org/2000/svg" version="1.1" viewBox="0 0 1024 1024">
  <!-- Generator: Adobe Illustrator 30.3.0, SVG Export Plug-In . SVG Version: 2.1.3 Build 182)  -->
  <defs>
    <style>
      .st0 {
        fill: #a7d3ae;
      }

      .st1 {
        fill: #9acfb2;
      }

      .st2 {
        fill: #86c6a1;
      }
    </style>
  </defs>
  <g>
    <path class="st2" d="M389.9,616.6c-30.1-40.1-133.8-210.7-162.2-250.9-21.7-28.4-81.9-112.1-117.1-117.1-75.3-13.4,73.6,190.7,85.3,215.7-23.4-1.7-125.4-53.5-133.8-8.4-8.4,45.2,105.4,107,135.5,127.1-43.5,13.4-179,8.4-112.1,87,40.1,46.8,123.8,56.9,182.3,50.2-13.4,21.7-97,70.2-70.2,108.7,25.1,36.8,78.6-30.1,95.3-40.1,3.3,21.7-8.4,65.2,15.1,78.6,25.1,13.4,43.5-18.4,50.2-36.8,31.8-68.6,21.7-142.2,31.8-214.1" fill="#86c6a1"/>
    <path class="st1" d="M450.1,588.2c-63.6-40.1-123.8-97-170.6-160.6-26.8-36.8-40.1-76.9-60.2-120.4-13.4-33.4-47.9-119.3-66.9-137.1-55.2-52-50.2,30.1-33.4,70.2,26.8,66.9,59.1,126,103.7,190.7-23.4-3.3-173.9-143.8-153.9-40.1,6.7,43.5,100.3,120.4,137.1,140.5-40.1,3.3-173.9-36.8-133.8,36.8,26.8,50.2,143.8,90.3,194,97-26.8,13.4-147.2,60.2-130.5,107,26.8,70.2,160.6-16.7,190.7-40.1,10,40.1,2.2,122.6,55.7,126,36.8,3.3,44.6-42.4,51.3-89.2,8.3-57.8,16.7-123.8,16.7-180.6" fill="#9acfb2"/>
    <path class="st0" d="M259.5,713.6c-15.1,1.7-85.3,20.1-68.6,43.5,21.7,33.4,61.9-28.4,68.6-43.5" fill="#a7d3ae"/>
    <path class="st0" d="M336.4,569.8c-11.7,1.7-70.2,20.1-68.6,43.5,1.7,18.4,29.3,12.1,50.2-13.4,0,13.4-15.1,71.9,16.7,48.5,16.7-13.4,6.3-60.6,1.7-78.6" fill="#a7d3ae"/>
  </g>
  <g>
    <path class="st2" d="M636,616.6c30.1-40.1,133.8-210.7,162.2-250.9,21.7-28.4,81.9-112.1,117.1-117.1,75.3-13.4-73.6,190.7-85.3,215.7,23.4-1.7,125.4-53.5,133.8-8.4,8.4,45.2-105.4,107-135.5,127.1,43.5,13.4,179,8.4,112.1,87-40.1,46.8-123.8,56.9-182.3,50.2,13.4,21.7,97,70.2,70.2,108.7-25.1,36.8-78.6-30.1-95.3-40.1-3.3,21.7,8.4,65.2-15.1,78.6-25.1,13.4-43.5-18.4-50.2-36.8-31.8-68.6-21.7-142.2-31.8-214.1" fill="#86c6a1"/>
    <path class="st1" d="M575.8,588.2c63.6-40.1,123.8-97,170.6-160.6,26.8-36.8,40.1-76.9,60.2-120.4,13.4-33.4,47.9-119.3,66.9-137.1,55.2-52,50.2,30.1,33.4,70.2-26.8,66.9-59.1,126-103.7,190.7,23.4-3.3,173.9-143.8,153.9-40.1-6.7,43.5-100.3,120.4-137.1,140.5,40.1,3.3,173.9-36.8,133.8,36.8-26.8,50.2-143.8,90.3-194,97,26.8,13.4,147.2,60.2,130.5,107-26.8,70.2-160.6-16.7-190.7-40.1-10,40.1-2.2,122.6-55.7,126-36.8,3.3-44.6-42.4-51.3-89.2-8.3-57.8-16.7-123.8-16.7-180.6" fill="#9acfb2"/>
    <path class="st0" d="M766.5,713.6c15.1,1.7,85.3,20.1,68.6,43.5-21.7,33.4-61.9-28.4-68.6-43.5" fill="#a7d3ae"/>
    <path class="st0" d="M689.6,569.8c11.7,1.7,70.2,20.1,68.6,43.5-1.7,18.4-29.3,12.1-50.2-13.4,0,13.4,15.1,71.9-16.7,48.5-16.7-13.4-6.3-60.6-1.7-78.6" fill="#a7d3ae"/>
  </g>
</svg>