<?xml version="1.0" encoding="UTF-8"?>
<svg id="Layer_1" xmlns="http://www.w3.org/2000/svg" version="1.1" xmlns:xlink="http://www.w3.org/1999/xlink" viewBox="0 0 1024 1024">
  <!-- Generator: Adobe Illustrator 30.3.0, SVG Export Plug-In . SVG Version: 2.1.3 Build 182)  -->
  <defs>
    <style>
      .st0 {
        fill: #fabb64;
      }

      .st1 {
        fill: #f5a054;
      }

      .st2 {
        fill: none;
      }

      .st3 {
        clip-path: url(#clippath);
      }
    </style>
    <clipPath id="clippath">
      <path class="st2" d="M87.1,540.4c2.9-11.8,6.5-17.7,11.5-23.7,0,0,7.4-8.9,19-14.4,28.5-13.6,261.9,26.3,382.6,23.5,110.9-2.6,355-46.4,392.6-55.2,1.7-.4,7.6-1.8,14.4,0,28.4,7.8,44.8,64.3,38.8,90.8-17.4,75.8-259.7,81.8-425.4,84.7-346.8,6.1-443.1-43.4-443.9-65.3-.1-2.6,1.2-3.3,10.4-40.4Z" fill="none"/>
    </clipPath>
  </defs>
  <g>
    <path class="st0" d="M107.7,562.2c-24.2-60.6,103-179.1,220.1-233.9,45.5-21.3,158.2-65.1,295.3-35.2,167.8,36.5,323.4,172.7,302.2,237.8-18.3,55.9-169.5,66.5-391.6,82-16.4,1.1-32.8,2.3-56,3.1-137.6,5-343.6,12.5-370.1-53.8Z" fill="#fabb64"/>
    <g class="st3" clip-path="url(#clippath)">
      <path class="st0" d="M-21.4,458.4c-1.4-47.7-3.8-94.3,3-126.7,1-4.9,6.2-28.5,19.2-32.4,38.4-11.6,392.6,73.3,479.9,77.6,170.5,8.4,484.2-233.3,529.9-303.5,2.3-3.5,10.8-17.2,17.8-2.4,22,46.4,8.5,326.9,2.5,402.7-11.5,147-65.4,430.4-524.9,504.6,0,0-515.7,83.4-527.4-300.7-.8-27.4,3.6-96.5,0-219.2Z" fill="#fabb64"/>
      <g>
        <g>
          <path class="st1" d="M655,625.6c3.3-41.4,11.2-82.4,14.3-123.9,4.4,1.1,7.3,1.9,8.1,2.2,9.9,3.3,1.5,60.8,1.5,60.8,0,0,5.9,133.9-15.8,136.3-2.2.2-6.5,0-12.3-.7,1.3-24.9,2.1-49.9,4.1-74.7Z" fill="#f5a054"/>
          <path class="st1" d="M627.6,652.5c1.7-52,5.1-109,19.5-156.1,7.5,1.7,14,3.3,19,4.5-3.1,40.1-10.7,79.5-13.9,119.7-2.1,26.3-3,52.9-4.4,79.3-5.8-.7-12.9-1.8-21-3,.1-14.8.3-29.6.8-44.4Z" fill="#f5a054"/>
          <path class="st1" d="M604.4,693c5.8-67.8,11.7-135.6,23.8-200.9,5.5,1.2,10.6,2.4,15.4,3.4-13.4,44.9-17.3,98.8-19,148.2-.6,17.5-.9,35-1,52.5-5.9-1-12.4-2.1-19.1-3.3Z" fill="#f5a054"/>
          <path class="st1" d="M606.8,487.6c6.3,1.3,12.3,2.6,18,3.8-12,65.4-17.9,133.2-23.7,201.1-1.8-.3-3.6-.6-5.4-1,1.9-68.3,2.1-137.2,11.1-203.9Z" fill="#f5a054"/>
          <path class="st1" d="M570,686.7c.7-19.7,1.6-39.5,3.5-59.1,4.8-48,11.1-95.6,13.4-144,5.7,1.1,11.2,2.2,16.7,3.3-8.9,66.8-9.2,135.7-11.1,204-7.2-1.3-14.8-2.7-22.4-4.2Z" fill="#f5a054"/>
          <path class="st1" d="M558.4,622c3.1-47.2,3.5-95.3,7.9-142.3,5.8,1.1,11.6,2.2,17.2,3.3-2.3,49.9-9,99.1-13.8,148.6-1.7,18.1-2.6,36.3-3.2,54.5-4.5-.9-9-1.7-13.5-2.6,1.9-20.4,4-40.9,5.3-61.4Z" fill="#f5a054"/>
          <path class="st1" d="M535.5,590.6c2.2-35-.6-79.6,6.6-115.2,7,1.2,14,2.4,21,3.7-4.2,45.6-4.7,92.1-7.7,137.9-1.4,22-3.6,43.9-5.7,65.8-7.6-1.5-15.2-3-22.8-4.6,3-29,6.7-58.4,8.5-87.5Z" fill="#f5a054"/>
          <path class="st1" d="M525.2,472.7c4.5.7,9.1,1.4,13.7,2.2-6.3,32.9-4.6,72.3-6.1,104.9-1.5,32.5-5.7,65.4-9.1,97.7-2-.4-4-.8-6-1.2,2.9-67.6,1.5-136.2,7.4-203.5Z" fill="#f5a054"/>
          <path class="st1" d="M498.1,469.1c3.4.4,6.8.8,10.3,1.3-3.6,67.2-3.5,135.4-10.2,201.8-2-.4-3.9-.8-5.8-1.3,9.1-64.1,5.5-135.6,5.8-201.8Z" fill="#f5a054"/>
          <path class="st1" d="M477.6,467c5.5.4,11.2,1,17.1,1.7-.3,39.3.6,78.5-.3,117.8-.7,27.8-2.1,56.3-5.9,83.6-6.9-1.5-13.6-3-19.9-4.4,3.4-66.2,4.5-132.6,9-198.6Z" fill="#f5a054"/>
          <path class="st1" d="M451.3,466c4.7,0,9.8,0,15.2.3-.9,65.8.8,132.5-3.1,198.2-7.5-1.7-14.5-3.3-20.7-4.8,2.8-64.6,1.2-129.8,8.6-193.7Z" fill="#f5a054"/>
          <path class="st1" d="M431.5,467.8c4.6-1,10.1-1.5,16.4-1.7-7.2,63.6-5.6,128.6-8.4,192.9-4.7-1.1-9-2.2-12.7-3.2,2.6-62.6,3.3-125.3,4.7-188Z" fill="#f5a054"/>
          <path class="st1" d="M417.8,477.7c.3-4.3,4.1-7.2,10.4-9.1-1.4,62.1-2,124.3-4.6,186.3-7.1-1.9-11.7-3.4-12.7-4.2-8.1-6.3,4.2-136.6,6.9-173Z" fill="#f5a054"/>
          <path class="st1" d="M469.9,466.5c1.5,0,2.9.2,4.4.3-2.2,32.4-3.6,64.9-4.8,97.4.2-32.6,0-65.2.4-97.6Z" fill="#f5a054"/>
          <path class="st1" d="M511.7,470.8c3.4.5,6.8.9,10.2,1.4-5.8,67.2-4.4,135.7-7.3,203.3-4.4-.9-8.8-1.8-13.1-2.7,6.6-66.4,6.6-134.7,10.2-202Z" fill="#f5a054"/>
        </g>
        <g>
          <path class="st1" d="M154.9,617.9c3.4-43.6,2.2-87.4,5.7-131.1-4.5.5-7.5.8-8.4,1-10.3,1.9-11.2,63-11.2,63,0,0-27.3,138.3-6.3,144.2,2.2.6,6.4,1,12.3,1.2,2.8-26.1,5.9-52.2,7.9-78.3Z" fill="#f5a054"/>
          <path class="st1" d="M177.7,650.1c6.7-54.4,12.5-114.2,5.7-165.4-7.7.6-14.3,1.2-19.5,1.7-3.3,42.2-2.2,84.4-5.4,126.7-2.1,27.7-5.5,55.5-8.4,83.2,5.9.2,13.1.2,21.2,0,2.3-15.4,4.4-30.8,6.3-46.3Z" fill="#f5a054"/>
          <path class="st1" d="M194.1,695.9c5.2-71.4,10.1-142.8,8.7-212.7-5.6.4-10.9.8-15.8,1.2,6.1,48.8,1.3,105.5-4.9,157.1-2.2,18.3-4.8,36.6-7.4,54.8,6,0,12.6-.2,19.4-.4Z" fill="#f5a054"/>
          <path class="st1" d="M224.6,481.8c-6.4.4-12.6.8-18.4,1.2,1.4,69.9-3.6,141.4-8.8,212.8,1.8,0,3.7-.1,5.5-.2,9.1-71.3,19.9-143,21.7-213.8Z" fill="#f5a054"/>
          <path class="st1" d="M229.1,694.6c2.5-20.6,4.8-41.3,6-62,3-50.6,4.3-101.2,9.9-151.9-5.8.3-11.5.6-17,.9-1.9,70.8-12.6,142.6-21.7,213.9,7.4-.3,15-.6,22.8-.9Z" fill="#f5a054"/>
          <path class="st1" d="M250.9,629.1c4.5-49.6,11.8-99.7,15-149.3-5.9.2-11.8.4-17.5.7-5.7,52.3-6.9,104.5-10.2,156.7-1.2,19.1-3.2,38.1-5.6,57.2,4.5-.2,9.1-.4,13.8-.6,1.4-21.6,2.6-43.1,4.6-64.7Z" fill="#f5a054"/>
          <path class="st1" d="M278.5,600.1c3.5-36.7,13.4-82.7,11.9-120.9-7.1.1-14.2.3-21.3.5-3.1,48.1-10.1,96.5-14.5,144.6-2.1,23.1-3.5,46.2-4.9,69.3,7.7-.4,15.5-.8,23.3-1.2,1.7-30.6,2.7-61.8,5.6-92.3Z" fill="#f5a054"/>
          <path class="st1" d="M307.6,479.1c-4.6,0-9.2,0-13.9.1.9,35.2-7,75.9-10.7,110-3.7,34-4.8,68.9-6.7,103,2-.1,4.1-.2,6.1-.4,8-70.8,20.3-141.9,25.3-212.8Z" fill="#f5a054"/>
          <path class="st1" d="M335,479.4c-3.4-.1-6.8-.2-10.3-.3-7.2,70.5-18.2,141.4-22.3,211.4,2-.1,4-.3,6-.4,1.3-68.1,16.3-141.9,26.6-210.8Z" fill="#f5a054"/>
          <path class="st1" d="M355.5,480.5c-5.5-.4-11.2-.7-17.1-.9-6,40.9-13.2,81.5-18.5,122.6-3.8,29-6.9,58.8-7.6,87.8,7.1-.5,13.9-1,20.4-1.5,7.3-69.3,16.8-138.6,22.9-208Z" fill="#f5a054"/>
          <path class="st1" d="M381.6,483.5c-4.7-.8-9.7-1.5-15.1-2-9.7,68.6-22,137.7-28.7,206.6,7.7-.6,14.8-1.2,21.3-1.8,7.6-67.6,19.6-135.2,22.6-202.8Z" fill="#f5a054"/>
          <path class="st1" d="M400.9,488.4c-4.3-1.7-9.7-3.2-15.9-4.3-3.1,67.3-15.1,134.7-22.6,201.9,4.9-.5,9.3-.9,13.1-1.3,7.4-65.5,16.8-130.9,25.5-196.3Z" fill="#f5a054"/>
          <path class="st1" d="M412.9,500.9c.4-4.5-2.9-8.2-8.8-11.1-8.6,64.8-17.9,129.6-25.3,194.5,7.4-.9,12.1-1.7,13.2-2.4,9-5.3,17.8-142.7,20.9-181Z" fill="#f5a054"/>
          <path class="st1" d="M363.2,481.1c-1.5-.1-2.9-.3-4.4-.4-3,34-6.8,68-10.8,102,5.1-33.9,10.5-67.9,15.2-101.6Z" fill="#f5a054"/>
          <path class="st1" d="M321.3,479.1c-3.4,0-6.9,0-10.3,0-5,70.8-17.4,141.9-25.3,212.6,4.5-.3,8.9-.5,13.3-.8,4.1-70.1,15.1-141.2,22.3-211.7Z" fill="#f5a054"/>
        </g>
        <g>
          <path class="st1" d="M104.5,596.2c7.1-41,18.7-81,25.6-122.1,4.3,1.5,7.1,2.5,7.9,2.9,9.5,4.2-4.1,60.7-4.1,60.7,0,0-6.4,133.9-28.2,134.2-2.2,0-6.5-.6-12.2-1.8,3.5-24.7,6.7-49.5,11-74Z" fill="#f5a054"/>
          <path class="st1" d="M74.7,620.4c6.4-51.7,15-108.1,33.7-153.7,7.3,2.4,13.6,4.5,18.5,6.2-6.8,39.7-18,78.2-24.9,117.9-4.5,26-7.8,52.4-11.6,78.6-5.7-1.2-12.7-2.9-20.6-5,1.5-14.7,3-29.4,4.9-44.1Z" fill="#f5a054"/>
          <path class="st1" d="M47.9,658.7c12-67,24.1-133.9,42.1-197.9,5.3,1.7,10.4,3.3,15,4.8-17.5,43.5-26.3,96.8-32.5,145.8-2.2,17.4-4.1,34.8-5.8,52.2-5.8-1.5-12.1-3.2-18.8-5Z" fill="#f5a054"/>
          <path class="st1" d="M69.1,454.3c6.1,1.9,12,3.7,17.6,5.5-17.9,64-30.1,131-42,198-1.7-.5-3.5-1-5.3-1.5,8.1-67.8,14.7-136.4,29.8-202Z" fill="#f5a054"/>
          <path class="st1" d="M14.2,649.2c2.5-19.6,5.2-39.2,8.9-58.5,9.1-47.3,19.8-94.2,26.5-142.2,5.5,1.6,11,3.3,16.3,4.9-15,65.7-21.6,134.3-29.8,202.1-7.1-2-14.4-4.1-22-6.3Z" fill="#f5a054"/>
          <path class="st1" d="M8.6,583.7c7.4-46.7,12.2-94.6,20.9-141,5.7,1.6,11.3,3.2,16.9,4.8-6.9,49.5-18.1,97.8-27.3,146.7-3.4,17.9-5.9,35.9-8.2,54-4.4-1.3-8.8-2.6-13.2-3.9,3.8-20.2,7.7-40.3,10.9-60.7Z" fill="#f5a054"/>
          <path class="st1" d="M-11.3,550.4c5.4-34.6,6.7-79.4,17.1-114.1,6.9,1.8,13.8,3.7,20.6,5.6-8.4,45-13.1,91.3-20.3,136.6-3.4,21.8-7.6,43.4-11.7,65-7.4-2.2-14.9-4.4-22.3-6.7,5.6-28.6,12.1-57.5,16.5-86.3Z" fill="#f5a054"/>
          <path class="st1" d="M-10.8,432c4.5,1.1,9,2.2,13.5,3.4-9.3,32.2-11.3,71.6-15.7,103.8-4.4,32.2-11.7,64.6-18,96.5-1.9-.6-3.9-1.2-5.8-1.8,9.1-67.1,14-135.5,26-202Z" fill="#f5a054"/>
        </g>
        <g>
          <path class="st1" d="M706.8,585.1c-2.1-35.2-8.7-70-10.6-105.3-4.4.8-7.3,1.4-8.2,1.6-10,2.6-3.3,51.5-3.3,51.5,0,0-10,113.2,11.6,115.8,2.2.3,6.5.2,12.3-.2-.5-21.1-.6-42.3-1.9-63.4Z" fill="#f5a054"/>
          <path class="st1" d="M733.4,608.6c0-44.1-1.7-92.5-14.7-132.7-7.6,1.3-14.1,2.4-19.1,3.3,1.9,34.1,8.3,67.6,10.3,101.7,1.3,22.3,1.4,44.9,2,67.3,5.8-.5,13-1.2,21.1-2,.3-12.5.6-25.1.5-37.6Z" fill="#f5a054"/>
          <path class="st1" d="M755.4,643.6c-3.7-57.6-7.6-115.1-17.6-170.8-5.5.9-10.7,1.7-15.5,2.5,12,38.4,14.3,84.1,14.5,126,0,14.9-.2,29.7-.6,44.5,6-.7,12.4-1.4,19.2-2.3Z" fill="#f5a054"/>
          <path class="st1" d="M759.2,469.5c-6.3.9-12.4,1.9-18.1,2.8,10,55.7,13.9,113.3,17.6,170.9,1.8-.2,3.6-.5,5.5-.7.2-57.9,2-116.2-4.9-173Z" fill="#f5a054"/>
          <path class="st1" d="M790,639.1c0-16.7-.4-33.5-1.7-50.1-3.3-40.8-8.2-81.3-9-122.3-5.7.8-11.3,1.6-16.7,2.4,6.9,56.8,5.1,115.2,4.9,173,7.3-.9,14.8-1.9,22.6-3Z" fill="#f5a054"/>
          <path class="st1" d="M803.5,584.6c-1.6-40-.6-80.8-3.6-120.7-5.8.8-11.6,1.5-17.3,2.3.8,42.4,6,84.2,9.3,126.2,1.2,15.4,1.5,30.8,1.5,46.2,4.5-.6,9-1.2,13.6-1.9-1.3-17.4-2.7-34.7-3.5-52.1Z" fill="#f5a054"/>
          <path class="st1" d="M827.3,558.6c-1.1-29.7,3.1-67.4-3.1-97.8-7,.8-14.1,1.7-21.1,2.6,2.8,38.7,1.9,78.1,3.5,117,.8,18.7,2.3,37.3,3.7,55.9,7.6-1.1,15.3-2.2,22.9-3.3-2.1-24.6-5-49.6-5.9-74.3Z" fill="#f5a054"/>
          <path class="st1" d="M841.3,459c-4.6.5-9.2,1-13.8,1.5,5.3,28,2.4,61.4,2.9,89,.5,27.5,3.8,55.5,6.1,83,2-.3,4-.6,6-.9-.8-57.4,2.6-115.4-1.2-172.5Z" fill="#f5a054"/>
          <path class="st1" d="M868.4,456.6c-3.4.2-6.8.5-10.3.8,1.6,57-.6,114.8,4,171.1,2-.3,3.9-.6,5.9-.9-7.1-54.6-1.4-115,.4-171.1Z" fill="#f5a054"/>
          <path class="st1" d="M889,455.4c-5.5.2-11.2.6-17.1,1-.9,33.3-3,66.5-3.2,99.8-.1,23.5.4,47.7,3.3,70.9,7-1.1,13.6-2.2,20-3.2-1.4-56.1-.5-112.4-3-168.5Z" fill="#f5a054"/>
          <path class="st1" d="M915.2,455.2c-4.7-.2-9.8-.2-15.2-.1-1.1,55.8-4.8,112.2-3,168,7.6-1.2,14.6-2.4,20.9-3.5-.8-54.8,2.7-110-2.7-164.3Z" fill="#f5a054"/>
          <path class="st1" d="M935,457.3c-4.5-.9-10-1.6-16.4-1.9,5.2,54.1,1.7,109.1,2.5,163.6,4.8-.9,9.1-1.6,12.8-2.4-.7-53.1.5-106.2,1-159.3Z" fill="#f5a054"/>
          <path class="st1" d="M948.4,466c-.2-3.6-3.8-6.2-10.1-8-.5,52.6-1.8,105.3-1,157.9,7.2-1.4,11.8-2.6,12.8-3.2,8.3-5.1,0-115.8-1.7-146.7Z" fill="#f5a054"/>
          <path class="st1" d="M896.7,455.2c-1.5,0-2.9,0-4.4.1,1.2,27.5,1.6,55,1.9,82.6.8-27.6,2-55.3,2.5-82.7Z" fill="#f5a054"/>
          <path class="st1" d="M854.8,457.7c-3.4.3-6.8.6-10.3,1,3.7,57.1.3,115.1,1.2,172.4,4.4-.7,8.8-1.3,13.1-2-4.6-56.4-2.5-114.3-4-171.4Z" fill="#f5a054"/>
        </g>
      </g>
    </g>
  </g>
  <circle class="st1" cx="512" cy="258.5" r="80.2" fill="#f5a054"/>
</svg>