<?xml version="1.0" encoding="UTF-8"?>
<svg id="Layer_1" xmlns="http://www.w3.org/2000/svg" version="1.1" xmlns:xlink="http://www.w3.org/1999/xlink" viewBox="0 0 1024 1024">
  <!-- Generator: Adobe Illustrator 30.3.0, SVG Export Plug-In . SVG Version: 2.1.3 Build 182)  -->
  <defs>
    <style>
      .st0 {
        filter: url(#drop-shadow-5);
      }

      .st1 {
        fill: #f5dc38;
      }

      .st2 {
        fill: #067;
      }

      .st3 {
        fill: #fff;
        opacity: 0;
      }

      .st4 {
        fill: #498b4a;
      }

      .st5 {
        fill: #e99d29;
      }

      .st6 {
        clip-path: url(#clippath);
      }
    </style>
    <filter id="drop-shadow-5" x="152.7" y="179.4" width="821" height="678.1" filterUnits="userSpaceOnUse">
      <feOffset dx="4" dy="4"/>
      <feGaussianBlur result="blur" stdDeviation="0"/>
      <feFlood flood-color="#010101" flood-opacity="0"/>
      <feComposite in2="blur" operator="in"/>
      <feComposite in="SourceGraphic"/>
    </filter>
    <clipPath id="clippath">
      <path class="st4" d="M246.1,344.7c-11.9-21.7,257.8-178.9,292.9-164.4,35.1,14.5,193.7,417.5,193.7,417.5l-326.9,30.4s41.3-243.3,34.8-272.6c-6.5-29.3-182.5,10.9-194.4-10.9Z" fill="#498b4a"/>
    </clipPath>
  </defs>
  <g class="st0" filter="url(#drop-shadow-5)">
    <g>
      <path class="st4" d="M246.1,344.7c-11.9-21.7,257.8-178.9,292.9-164.4,35.1,14.5,193.7,417.5,193.7,417.5l-326.9,30.4s41.3-243.3,34.8-272.6c-6.5-29.3-182.5,10.9-194.4-10.9Z" fill="#498b4a"/>
      <g class="st6" clip-path="url(#clippath)">
        <polygon class="st5" points="590.5 205.5 618.6 262.5 681.5 271.6 636 316 646.7 378.6 590.5 349.1 534.2 378.6 544.9 316 499.4 271.6 562.3 262.5 590.5 205.5" fill="#e99d29"/>
        <polygon class="st5" points="477.7 380.3 496.7 418.7 539.1 424.9 508.4 454.8 515.6 497 477.7 477 439.8 497 447.1 454.8 416.4 424.9 458.8 418.7 477.7 380.3" fill="#e99d29"/>
        <polygon class="st5" points="605.5 438.9 616.9 461.9 642.3 465.6 623.9 483.6 628.2 508.9 605.5 496.9 582.7 508.9 587.1 483.6 568.7 465.6 594.1 461.9 605.5 438.9" fill="#e99d29"/>
      </g>
    </g>
    <path class="st4" d="M406.3,624l-253.6,104.1s42.4,146.6,441,122.7c398.6-23.9,375.8-216.1,375.8-216.1l-243.8-51.9-319.4,41.3Z" fill="#498b4a"/>
    <path class="st2" d="M402.5,561.7v66.5s89.1,41.3,176,29.3c86.9-12,154.2-79,154.2-79l-22.6-56.5s-74.5,44.4-146,52.9c-71.5,8.5-161.6-13.2-161.6-13.2Z" fill="#067"/>
    <path class="st1" d="M622.9,649.4c0,14.1-11.4,25.5-25.5,25.5h-66.4c-14.1,0-25.5-11.4-25.5-25.5v-66.4c0-14.1,11.4-25.5,25.5-25.5h66.4c14.1,0,25.5,11.4,25.5,25.5v66.4ZM530.6,624.2c0,14.1,11.4,25.5,25.5,25.5h16c14.1,0,25.5-11.4,25.5-25.5v-16c0-14.1-11.4-25.5-25.5-25.5h-16c-14.1,0-25.5,11.4-25.5,25.5v16Z" fill="#f5dc38"/>
    <path class="st3" d="M454.5,805.4c0,21.6,196.8,28.8,326.4-24,129.6-52.8,146.4-121.7,146.4-121.7l-105.6-31.5s-41.6,81.5-135.6,120.8c-109.2,45.6-231.6,34.8-231.6,56.4Z" opacity="0" fill="#fff"/>
  </g>
</svg>