<?xml version="1.0" encoding="UTF-8"?>
<svg id="Layer_1" xmlns="http://www.w3.org/2000/svg" version="1.1" viewBox="0 0 1024 1024">
  <!-- Generator: Adobe Illustrator 30.3.0, SVG Export Plug-In . SVG Version: 2.1.3 Build 182)  -->
  <defs>
    <style>
      .st0 {
        stroke-linecap: round;
        stroke-linejoin: round;
      }

      .st0, .st1 {
        fill: none;
        stroke: #3c2238;
        stroke-width: .5px;
      }

      .st2 {
        fill: #fdca65;
      }

      .st3 {
        fill: #3c2238;
      }

      .st1 {
        stroke-miterlimit: 10;
      }
    </style>
  </defs>
  <g>
    <circle class="st1" cx="526.6" cy="382.7" r="157.5" transform="translate(64.2 841) rotate(-80.8)" fill="none" stroke="#3c2238" stroke-width=".5px" stroke-miterlimit="10"/>
    <g>
      <path class="st2" d="M765,733.3l-89.5-33.3,81.4,50c-24.1,45.3-66.4,94.9-140.7,119.2l-49.3-116.6,28.8,122.6c-28.9,7-62.1,10.5-100.2,9-33.3-1.3-61.8-6.9-86.1-15.3l46.6-131.2-66.3,123.2c-77.7-35.9-106.8-105.8-117-162.7l127.3-37.1-129.9,20c-5.1-40.4-1.3-70.8-1.3-70.8h204v41.1c0,31,25.1,56.3,56.3,56.3s29.6-6.3,39.8-16.5c10.2-10.2,16.5-24.3,16.5-39.8v-37.2l202.4,40.2s-3.2,35.7-22.6,79Z" fill="#fdca65"/>
      <path class="st0" d="M585.2,529.5v121.8c0,15.6-6.3,29.7-16.5,39.9-10.2,10.2-24.2,16.5-39.8,16.5-31.1,0-56.3-25.2-56.3-56.3v-120.2" fill="none" stroke="#3c2238" stroke-width=".5px" stroke-linejoin="round" stroke-linecap="round"/>
    </g>
  </g>
  <path class="st3" d="M580.6,183.6c0,24.3-19.7,44-44,44s-44-19.7-44-44,19.7-44,44-44,44,19.7,44,44Z" fill="#3c2238"/>
</svg>
